<ttFont>
    <TTGlyph name=".notdef" xMin="76" yMin="0" xMax="628" yMax="660">
      <contour>
        <pt x="76" y="660" on="1"/>
        <pt x="628" y="660" on="1"/>
        <pt x="628" y="0" on="1"/>
        <pt x="76" y="0" on="1"/>
      </contour>
      <contour>
        <pt x="270" y="340" on="1"/>
        <pt x="188" y="508" on="1"/>
        <pt x="188" y="172" on="1"/>
      </contour>
      <contour>
        <pt x="516" y="172" on="1"/>
        <pt x="516" y="508" on="1"/>
        <pt x="434" y="340" on="1"/>
      </contour>
      <contour>
        <pt x="416" y="104" on="1"/>
        <pt x="390" y="160" on="1"/>
        <pt x="354" y="256" on="1"/>
        <pt x="350" y="256" on="1"/>
        <pt x="314" y="160" on="1"/>
        <pt x="288" y="104" on="1"/>
      </contour>
      <contour>
        <pt x="354" y="424" on="1"/>
        <pt x="394" y="520" on="1"/>
        <pt x="412" y="556" on="1"/>
        <pt x="292" y="556" on="1"/>
        <pt x="310" y="520" on="1"/>
        <pt x="350" y="424" on="1"/>
      </contour>
    </TTGlyph>
    <TTGlyph name="A" xMin="-10" yMin="0" xMax="594" yMax="650">
      <contour>
        <pt x="349" y="271" on="1"/>
        <pt x="338" y="316" on="1"/>
        <pt x="326" y="363" on="0"/>
        <pt x="302" y="473" on="0"/>
        <pt x="290" y="522" on="1"/>
        <pt x="286" y="522" on="1"/>
        <pt x="275" y="472" on="0"/>
        <pt x="252" y="363" on="0"/>
        <pt x="240" y="316" on="1"/>
        <pt x="229" y="271" on="1"/>
      </contour>
      <contour>
        <pt x="380" y="138" on="1"/>
        <pt x="198" y="138" on="1"/>
        <pt x="166" y="0" on="1"/>
        <pt x="-10" y="0" on="1"/>
        <pt x="188" y="650" on="1"/>
        <pt x="396" y="650" on="1"/>
        <pt x="594" y="0" on="1"/>
        <pt x="412" y="0" on="1"/>
      </contour>
    </TTGlyph>
    <TTGlyph name="A.sc" xMin="-10" yMin="0" xMax="526" yMax="532">
      <contour>
        <pt x="297" y="216" on="1"/>
        <pt x="291" y="244" on="1"/>
        <pt x="283" y="280" on="0"/>
        <pt x="266" y="371" on="0"/>
        <pt x="256" y="409" on="1"/>
        <pt x="252" y="409" on="1"/>
        <pt x="244" y="371" on="0"/>
        <pt x="227" y="280" on="0"/>
        <pt x="219" y="244" on="1"/>
        <pt x="213" y="216" on="1"/>
      </contour>
      <contour>
        <pt x="325" y="94" on="1"/>
        <pt x="185" y="94" on="1"/>
        <pt x="164" y="0" on="1"/>
        <pt x="-10" y="0" on="1"/>
        <pt x="155" y="532" on="1"/>
        <pt x="361" y="532" on="1"/>
        <pt x="526" y="0" on="1"/>
        <pt x="346" y="0" on="1"/>
      </contour>
    </TTGlyph>
    <TTGlyph name="A.sups" xMin="-7" yMin="260" xMax="405" yMax="692">
      <contour>
        <pt x="236" y="441" on="1"/>
        <pt x="229" y="470" on="1"/>
        <pt x="222" y="500" on="0"/>
        <pt x="205" y="572" on="0"/>
        <pt x="197" y="604" on="1"/>
        <pt x="195" y="604" on="1"/>
        <pt x="188" y="572" on="0"/>
        <pt x="171" y="500" on="0"/>
        <pt x="164" y="470" on="1"/>
        <pt x="157" y="441" on="1"/>
      </contour>
      <contour>
        <pt x="256" y="350" on="1"/>
        <pt x="137" y="350" on="1"/>
        <pt x="116" y="260" on="1"/>
        <pt x="-7" y="260" on="1"/>
        <pt x="126" y="692" on="1"/>
        <pt x="272" y="692" on="1"/>
        <pt x="405" y="260" on="1"/>
        <pt x="277" y="260" on="1"/>
      </contour>
    </TTGlyph>
    <TTGlyph name="AE" xMin="-22" yMin="0" xMax="800" yMax="650">
      <contour>
        <pt x="380" y="265" on="1"/>
        <pt x="380" y="522" on="1"/>
        <pt x="376" y="522" on="1"/>
        <pt x="358" y="475" on="0"/>
        <pt x="325" y="387" on="0"/>
        <pt x="308" y="348" on="1"/>
        <pt x="272" y="265" on="1"/>
      </contour>
      <contour>
        <pt x="800" y="144" on="1"/>
        <pt x="800" y="0" on="1"/>
        <pt x="380" y="0" on="1"/>
        <pt x="380" y="132" on="1"/>
        <pt x="215" y="132" on="1"/>
        <pt x="158" y="0" on="1"/>
        <pt x="-22" y="0" on="1"/>
        <pt x="274" y="650" on="1"/>
        <pt x="790" y="650" on="1"/>
        <pt x="790" y="506" on="1"/>
        <pt x="552" y="506" on="1"/>
        <pt x="552" y="404" on="1"/>
        <pt x="754" y="404" on="1"/>
        <pt x="754" y="260" on="1"/>
        <pt x="552" y="260" on="1"/>
        <pt x="552" y="144" on="1"/>
      </contour>
    </TTGlyph>
    <TTGlyph name="AE.sc" xMin="-22" yMin="0" xMax="698" yMax="532">
      <contour>
        <pt x="326" y="216" on="1"/>
        <pt x="326" y="408" on="1"/>
        <pt x="322" y="408" on="1"/>
        <pt x="308" y="372" on="0"/>
        <pt x="285" y="304" on="0"/>
        <pt x="273" y="277" on="1"/>
        <pt x="247" y="216" on="1"/>
      </contour>
      <contour>
        <pt x="698" y="132" on="1"/>
        <pt x="698" y="0" on="1"/>
        <pt x="326" y="0" on="1"/>
        <pt x="326" y="94" on="1"/>
        <pt x="195" y="94" on="1"/>
        <pt x="155" y="0" on="1"/>
        <pt x="-22" y="0" on="1"/>
        <pt x="221" y="532" on="1"/>
        <pt x="688" y="532" on="1"/>
        <pt x="688" y="400" on="1"/>
        <pt x="498" y="400" on="1"/>
        <pt x="498" y="330" on="1"/>
        <pt x="660" y="330" on="1"/>
        <pt x="660" y="206" on="1"/>
        <pt x="498" y="206" on="1"/>
        <pt x="498" y="132" on="1"/>
      </contour>
    </TTGlyph>
    <TTGlyph name="Aacute" xMin="-10" yMin="0" xMax="594" yMax="824">
      <component glyphName="A" x="0" y="0" flags="0x204"/>
      <component glyphName="uni0301.cap" x="288" y="0" flags="0x4"/>
    </TTGlyph>
    <TTGlyph name="Aacute.sc" xMin="-10" yMin="0" xMax="526" yMax="717">
      <component glyphName="A.sc" x="0" y="0" flags="0x204"/>
      <component glyphName="uni0301.cap" x="254" y="-107" flags="0x4"/>
    </TTGlyph>
    <TTGlyph name="Abreve" xMin="-10" yMin="0" xMax="594" yMax="824">
      <component glyphName="A" x="0" y="0" flags="0x204"/>
      <component glyphName="uni0306.cap" x="288" y="0" flags="0x4"/>
    </TTGlyph>
    <TTGlyph name="Abreve.sc" xMin="-10" yMin="0" xMax="526" yMax="717">
      <component glyphName="A.sc" x="0" y="0" flags="0x204"/>
      <component glyphName="uni0306.cap" x="254" y="-107" flags="0x4"/>
    </TTGlyph>
    <TTGlyph name="Acircumflex" xMin="-10" yMin="0" xMax="594" yMax="824">
      <component glyphName="A" x="0" y="0" flags="0x204"/>
      <component glyphName="uni0302.cap" x="288" y="0" flags="0x4"/>
    </TTGlyph>
    <TTGlyph name="Acircumflex.sc" xMin="-10" yMin="0" xMax="526" yMax="717">
      <component glyphName="A.sc" x="0" y="0" flags="0x204"/>
      <component glyphName="uni0302.cap" x="254" y="-107" flags="0x4"/>
    </TTGlyph>
    <TTGlyph name="Adieresis" xMin="-10" yMin="0" xMax="594" yMax="850">
      <component glyphName="A" x="0" y="0" flags="0x204"/>
      <component glyphName="uni0308.cap" x="288" y="0" flags="0x4"/>
    </TTGlyph>
    <TTGlyph name="Adieresis.sc" xMin="-10" yMin="0" xMax="526" yMax="743">
      <component glyphName="A.sc" x="0" y="0" flags="0x204"/>
      <component glyphName="uni0308.cap" x="254" y="-107" flags="0x4"/>
    </TTGlyph>
    <TTGlyph name="Agrave" xMin="-10" yMin="0" xMax="594" yMax="824">
      <component glyphName="A" x="0" y="0" flags="0x204"/>
      <component glyphName="uni0300.cap" x="288" y="0" flags="0x4"/>
    </TTGlyph>
    <TTGlyph name="Agrave.sc" xMin="-10" yMin="0" xMax="526" yMax="717">
      <component glyphName="A.sc" x="0" y="0" flags="0x204"/>
      <component glyphName="uni0300.cap" x="254" y="-107" flags="0x4"/>
    </TTGlyph>
    <TTGlyph name="Amacron" xMin="-10" yMin="0" xMax="594" yMax="824">
      <component glyphName="A" x="0" y="0" flags="0x204"/>
      <component glyphName="uni0304.cap" x="288" y="0" flags="0x4"/>
    </TTGlyph>
    <TTGlyph name="Amacron.sc" xMin="-10" yMin="0" xMax="526" yMax="717">
      <component glyphName="A.sc" x="0" y="0" flags="0x204"/>
      <component glyphName="uni0304.cap" x="254" y="-107" flags="0x4"/>
    </TTGlyph>
    <TTGlyph name="Aogonek" xMin="-10" yMin="-228" xMax="612" yMax="650">
      <contour>
        <pt x="349" y="271" on="1"/>
        <pt x="338" y="316" on="1"/>
        <pt x="326" y="363" on="0"/>
        <pt x="302" y="473" on="0"/>
        <pt x="290" y="522" on="1"/>
        <pt x="286" y="522" on="1"/>
        <pt x="275" y="472" on="0"/>
        <pt x="252" y="363" on="0"/>
        <pt x="240" y="316" on="1"/>
        <pt x="229" y="271" on="1"/>
      </contour>
      <contour>
        <pt x="612" y="-190" on="1"/>
        <pt x="591" y="-207" on="0"/>
        <pt x="527" y="-228" on="0"/>
        <pt x="498" y="-228" on="1"/>
        <pt x="447" y="-228" on="0"/>
        <pt x="376" y="-177" on="0"/>
        <pt x="376" y="-130" on="1"/>
        <pt x="376" y="-106" on="0"/>
        <pt x="393" y="-64" on="0"/>
        <pt x="419" y="-30" on="0"/>
        <pt x="448" y="-6" on="0"/>
        <pt x="460" y="0" on="1"/>
        <pt x="412" y="0" on="1"/>
        <pt x="380" y="138" on="1"/>
        <pt x="198" y="138" on="1"/>
        <pt x="166" y="0" on="1"/>
        <pt x="-10" y="0" on="1"/>
        <pt x="188" y="650" on="1"/>
        <pt x="396" y="650" on="1"/>
        <pt x="594" y="0" on="1"/>
        <pt x="572" y="0" on="0"/>
        <pt x="537" y="-15" on="0"/>
        <pt x="513" y="-39" on="0"/>
        <pt x="500" y="-69" on="0"/>
        <pt x="500" y="-84" on="1"/>
        <pt x="500" y="-101" on="0"/>
        <pt x="521" y="-118" on="0"/>
        <pt x="536" y="-118" on="1"/>
        <pt x="547" y="-118" on="0"/>
        <pt x="567" y="-109" on="0"/>
        <pt x="574" y="-104" on="1"/>
      </contour>
    </TTGlyph>
    <TTGlyph name="Aogonek.sc" xMin="-10" yMin="-228" xMax="544" yMax="532">
      <contour>
        <pt x="297" y="216" on="1"/>
        <pt x="291" y="244" on="1"/>
        <pt x="283" y="280" on="0"/>
        <pt x="266" y="371" on="0"/>
        <pt x="256" y="409" on="1"/>
        <pt x="252" y="409" on="1"/>
        <pt x="244" y="371" on="0"/>
        <pt x="227" y="280" on="0"/>
        <pt x="219" y="244" on="1"/>
        <pt x="213" y="216" on="1"/>
      </contour>
      <contour>
        <pt x="544" y="-190" on="1"/>
        <pt x="523" y="-207" on="0"/>
        <pt x="459" y="-228" on="0"/>
        <pt x="430" y="-228" on="1"/>
        <pt x="379" y="-228" on="0"/>
        <pt x="308" y="-177" on="0"/>
        <pt x="308" y="-130" on="1"/>
        <pt x="308" y="-106" on="0"/>
        <pt x="325" y="-64" on="0"/>
        <pt x="351" y="-30" on="0"/>
        <pt x="380" y="-6" on="0"/>
        <pt x="392" y="0" on="1"/>
        <pt x="346" y="0" on="1"/>
        <pt x="325" y="94" on="1"/>
        <pt x="185" y="94" on="1"/>
        <pt x="164" y="0" on="1"/>
        <pt x="-10" y="0" on="1"/>
        <pt x="155" y="532" on="1"/>
        <pt x="361" y="532" on="1"/>
        <pt x="526" y="0" on="1"/>
        <pt x="504" y="0" on="0"/>
        <pt x="469" y="-15" on="0"/>
        <pt x="445" y="-39" on="0"/>
        <pt x="432" y="-69" on="0"/>
        <pt x="432" y="-84" on="1"/>
        <pt x="432" y="-101" on="0"/>
        <pt x="453" y="-118" on="0"/>
        <pt x="468" y="-118" on="1"/>
        <pt x="479" y="-118" on="0"/>
        <pt x="499" y="-109" on="0"/>
        <pt x="506" y="-104" on="1"/>
      </contour>
    </TTGlyph>
    <TTGlyph name="Aring" xMin="-10" yMin="0" xMax="594" yMax="900">
      <component glyphName="A" x="0" y="0" flags="0x204"/>
      <component glyphName="uni030A.cap" x="288" y="0" flags="0x4"/>
    </TTGlyph>
    <TTGlyph name="Aring.sc" xMin="-10" yMin="0" xMax="526" yMax="793">
      <component glyphName="A.sc" x="0" y="0" flags="0x204"/>
      <component glyphName="uni030A.cap" x="254" y="-107" flags="0x4"/>
    </TTGlyph>
    <TTGlyph name="Atilde" xMin="-10" yMin="0" xMax="594" yMax="846">
      <component glyphName="A" x="0" y="0" flags="0x204"/>
      <component glyphName="uni0303.cap" x="288" y="0" flags="0x4"/>
    </TTGlyph>
    <TTGlyph name="Atilde.sc" xMin="-10" yMin="0" xMax="526" yMax="739">
      <component glyphName="A.sc" x="0" y="0" flags="0x204"/>
      <component glyphName="uni0303.cap" x="254" y="-107" flags="0x4"/>
    </TTGlyph>
    <TTGlyph name="B" xMin="72" yMin="0" xMax="582" yMax="650">
      <contour>
        <pt x="72" y="650" on="1"/>
        <pt x="306" y="650" on="1"/>
        <pt x="357" y="650" on="0"/>
        <pt x="447" y="635" on="0"/>
        <pt x="513" y="599" on="0"/>
        <pt x="552" y="536" on="0"/>
        <pt x="552" y="488" on="1"/>
        <pt x="552" y="467" on="0"/>
        <pt x="540" y="424" on="0"/>
        <pt x="513" y="385" on="0"/>
        <pt x="472" y="355" on="0"/>
        <pt x="444" y="348" on="1"/>
        <pt x="444" y="344" on="1"/>
        <pt x="513" y="330" on="0"/>
        <pt x="582" y="257" on="0"/>
        <pt x="582" y="192" on="1"/>
        <pt x="582" y="142" on="0"/>
        <pt x="541" y="69" on="0"/>
        <pt x="472" y="22" on="0"/>
        <pt x="378" y="0" on="0"/>
        <pt x="326" y="0" on="1"/>
        <pt x="72" y="0" on="1"/>
      </contour>
      <contour>
        <pt x="302" y="394" on="1"/>
        <pt x="344" y="394" on="0"/>
        <pt x="384" y="432" on="0"/>
        <pt x="384" y="462" on="1"/>
        <pt x="384" y="492" on="0"/>
        <pt x="344" y="518" on="0"/>
        <pt x="302" y="518" on="1"/>
        <pt x="244" y="518" on="1"/>
        <pt x="244" y="394" on="1"/>
      </contour>
      <contour>
        <pt x="314" y="132" on="1"/>
        <pt x="414" y="132" on="0"/>
        <pt x="414" y="206" on="1"/>
        <pt x="414" y="242" on="0"/>
        <pt x="365" y="274" on="0"/>
        <pt x="314" y="274" on="1"/>
        <pt x="244" y="274" on="1"/>
        <pt x="244" y="132" on="1"/>
      </contour>
    </TTGlyph>
    <TTGlyph name="B.sc" xMin="72" yMin="0" xMax="524" yMax="532">
      <contour>
        <pt x="72" y="532" on="1"/>
        <pt x="283" y="532" on="1"/>
        <pt x="327" y="532" on="0"/>
        <pt x="406" y="521" on="0"/>
        <pt x="466" y="491" on="0"/>
        <pt x="501" y="439" on="0"/>
        <pt x="501" y="398" on="1"/>
        <pt x="501" y="382" on="0"/>
        <pt x="491" y="347" on="0"/>
        <pt x="469" y="315" on="0"/>
        <pt x="434" y="290" on="0"/>
        <pt x="409" y="284" on="1"/>
        <pt x="409" y="280" on="1"/>
        <pt x="468" y="268" on="0"/>
        <pt x="524" y="209" on="0"/>
        <pt x="524" y="155" on="1"/>
        <pt x="524" y="113" on="0"/>
        <pt x="488" y="55" on="0"/>
        <pt x="427" y="17" on="0"/>
        <pt x="346" y="0" on="0"/>
        <pt x="301" y="0" on="1"/>
        <pt x="72" y="0" on="1"/>
      </contour>
      <contour>
        <pt x="288" y="324" on="1"/>
        <pt x="319" y="324" on="0"/>
        <pt x="345" y="350" on="0"/>
        <pt x="345" y="370" on="1"/>
        <pt x="345" y="391" on="0"/>
        <pt x="317" y="408" on="0"/>
        <pt x="287" y="408" on="1"/>
        <pt x="244" y="408" on="1"/>
        <pt x="244" y="324" on="1"/>
      </contour>
      <contour>
        <pt x="291" y="124" on="1"/>
        <pt x="328" y="124" on="0"/>
        <pt x="359" y="152" on="0"/>
        <pt x="359" y="172" on="1"/>
        <pt x="359" y="195" on="0"/>
        <pt x="327" y="218" on="0"/>
        <pt x="291" y="218" on="1"/>
        <pt x="244" y="218" on="1"/>
        <pt x="244" y="124" on="1"/>
      </contour>
    </TTGlyph>
    <TTGlyph name="B.sups" xMin="47" yMin="260" xMax="393" yMax="692">
      <contour>
        <pt x="47" y="692" on="1"/>
        <pt x="208" y="692" on="1"/>
        <pt x="242" y="692" on="0"/>
        <pt x="303" y="682" on="0"/>
        <pt x="348" y="658" on="0"/>
        <pt x="374" y="617" on="0"/>
        <pt x="374" y="586" on="1"/>
        <pt x="374" y="558" on="0"/>
        <pt x="340" y="503" on="0"/>
        <pt x="302" y="491" on="1"/>
        <pt x="302" y="489" on="1"/>
        <pt x="393" y="471" on="0"/>
        <pt x="393" y="389" on="1"/>
        <pt x="393" y="356" on="0"/>
        <pt x="366" y="307" on="0"/>
        <pt x="319" y="275" on="0"/>
        <pt x="257" y="260" on="0"/>
        <pt x="222" y="260" on="1"/>
        <pt x="47" y="260" on="1"/>
      </contour>
      <contour>
        <pt x="204" y="523" on="1"/>
        <pt x="231" y="523" on="0"/>
        <pt x="257" y="548" on="0"/>
        <pt x="257" y="566" on="1"/>
        <pt x="257" y="601" on="0"/>
        <pt x="204" y="601" on="1"/>
        <pt x="167" y="601" on="1"/>
        <pt x="167" y="523" on="1"/>
      </contour>
      <contour>
        <pt x="213" y="351" on="1"/>
        <pt x="246" y="351" on="0"/>
        <pt x="276" y="376" on="0"/>
        <pt x="276" y="399" on="1"/>
        <pt x="276" y="421" on="0"/>
        <pt x="246" y="441" on="0"/>
        <pt x="213" y="441" on="1"/>
        <pt x="167" y="441" on="1"/>
        <pt x="167" y="351" on="1"/>
      </contour>
    </TTGlyph>
    <TTGlyph name="C" xMin="44" yMin="-12" xMax="568" yMax="662">
      <contour>
        <pt x="44" y="320" on="1"/>
        <pt x="44" y="402" on="0"/>
        <pt x="96" y="529" on="0"/>
        <pt x="184" y="616" on="0"/>
        <pt x="299" y="662" on="0"/>
        <pt x="362" y="662" on="1"/>
        <pt x="424" y="662" on="0"/>
        <pt x="525" y="611" on="0"/>
        <pt x="560" y="576" on="1"/>
        <pt x="466" y="470" on="1"/>
        <pt x="442" y="491" on="0"/>
        <pt x="396" y="514" on="0"/>
        <pt x="364" y="514" on="1"/>
        <pt x="335" y="514" on="0"/>
        <pt x="282" y="488" on="0"/>
        <pt x="243" y="440" on="0"/>
        <pt x="220" y="370" on="0"/>
        <pt x="220" y="326" on="1"/>
        <pt x="220" y="234" on="0"/>
        <pt x="297" y="136" on="0"/>
        <pt x="360" y="136" on="1"/>
        <pt x="398" y="136" on="0"/>
        <pt x="453" y="165" on="0"/>
        <pt x="474" y="188" on="1"/>
        <pt x="568" y="84" on="1"/>
        <pt x="526" y="36" on="0"/>
        <pt x="418" y="-12" on="0"/>
        <pt x="358" y="-12" on="1"/>
        <pt x="294" y="-12" on="0"/>
        <pt x="180" y="29" on="0"/>
        <pt x="94" y="112" on="0"/>
        <pt x="44" y="237" on="0"/>
      </contour>
    </TTGlyph>
    <TTGlyph name="C.sc" xMin="44" yMin="-12" xMax="508" yMax="544">
      <contour>
        <pt x="44" y="261" on="1"/>
        <pt x="44" y="329" on="0"/>
        <pt x="91" y="435" on="0"/>
        <pt x="170" y="507" on="0"/>
        <pt x="272" y="544" on="0"/>
        <pt x="327" y="544" on="1"/>
        <pt x="381" y="544" on="0"/>
        <pt x="472" y="502" on="0"/>
        <pt x="504" y="472" on="1"/>
        <pt x="412" y="370" on="1"/>
        <pt x="391" y="387" on="0"/>
        <pt x="354" y="404" on="0"/>
        <pt x="329" y="404" on="1"/>
        <pt x="307" y="404" on="0"/>
        <pt x="267" y="386" on="0"/>
        <pt x="236" y="351" on="0"/>
        <pt x="218" y="300" on="0"/>
        <pt x="218" y="267" on="1"/>
        <pt x="218" y="197" on="0"/>
        <pt x="277" y="128" on="0"/>
        <pt x="325" y="128" on="1"/>
        <pt x="355" y="128" on="0"/>
        <pt x="400" y="151" on="0"/>
        <pt x="416" y="166" on="1"/>
        <pt x="508" y="66" on="1"/>
        <pt x="471" y="26" on="0"/>
        <pt x="371" y="-12" on="0"/>
        <pt x="317" y="-12" on="1"/>
        <pt x="263" y="-12" on="0"/>
        <pt x="164" y="21" on="0"/>
        <pt x="89" y="88" on="0"/>
        <pt x="44" y="191" on="0"/>
      </contour>
    </TTGlyph>
    <TTGlyph name="C.sups" xMin="29" yMin="252" xMax="384" yMax="700">
      <contour>
        <pt x="29" y="471" on="1"/>
        <pt x="29" y="525" on="0"/>
        <pt x="64" y="610" on="0"/>
        <pt x="124" y="669" on="0"/>
        <pt x="202" y="700" on="0"/>
        <pt x="244" y="700" on="1"/>
        <pt x="287" y="700" on="0"/>
        <pt x="356" y="666" on="0"/>
        <pt x="378" y="641" on="1"/>
        <pt x="313" y="568" on="1"/>
        <pt x="296" y="582" on="0"/>
        <pt x="266" y="596" on="0"/>
        <pt x="246" y="596" on="1"/>
        <pt x="208" y="596" on="0"/>
        <pt x="152" y="531" on="0"/>
        <pt x="152" y="475" on="1"/>
        <pt x="152" y="417" on="0"/>
        <pt x="201" y="354" on="0"/>
        <pt x="243" y="354" on="1"/>
        <pt x="268" y="354" on="0"/>
        <pt x="305" y="373" on="0"/>
        <pt x="319" y="389" on="1"/>
        <pt x="384" y="318" on="1"/>
        <pt x="355" y="284" on="0"/>
        <pt x="281" y="252" on="0"/>
        <pt x="236" y="252" on="1"/>
        <pt x="194" y="252" on="0"/>
        <pt x="119" y="279" on="0"/>
        <pt x="62" y="334" on="0"/>
        <pt x="29" y="416" on="0"/>
      </contour>
    </TTGlyph>
    <TTGlyph name="Cacute" xMin="44" yMin="-12" xMax="568" yMax="824">
      <component glyphName="C" x="0" y="0" flags="0x204"/>
      <component glyphName="uni0301.cap" x="348" y="0" flags="0x4"/>
    </TTGlyph>
    <TTGlyph name="Cacute.sc" xMin="44" yMin="-12" xMax="508" yMax="717">
      <component glyphName="C.sc" x="0" y="0" flags="0x204"/>
      <component glyphName="uni0301.cap" x="312" y="-107" flags="0x4"/>
    </TTGlyph>
    <TTGlyph name="Ccaron" xMin="44" yMin="-12" xMax="568" yMax="824">
      <component glyphName="C" x="0" y="0" flags="0x204"/>
      <component glyphName="uni030C.cap" x="348" y="0" flags="0x4"/>
    </TTGlyph>
    <TTGlyph name="Ccaron.sc" xMin="44" yMin="-12" xMax="508" yMax="717">
      <component glyphName="C.sc" x="0" y="0" flags="0x204"/>
      <component glyphName="uni030C.cap" x="312" y="-107" flags="0x4"/>
    </TTGlyph>
    <TTGlyph name="Ccedilla" xMin="44" yMin="-224" xMax="568" yMax="662">
      <component glyphName="C" x="0" y="0" flags="0x204"/>
      <component glyphName="uni0327.cap" x="352" y="0" flags="0x4"/>
    </TTGlyph>
    <TTGlyph name="Ccedilla.sc" xMin="44" yMin="-224" xMax="508" yMax="544">
      <component glyphName="C.sc" x="0" y="0" flags="0x204"/>
      <component glyphName="uni0327.cap" x="312" y="0" flags="0x4"/>
    </TTGlyph>
    <TTGlyph name="Ccircumflex" xMin="44" yMin="-12" xMax="568" yMax="824">
      <component glyphName="C" x="0" y="0" flags="0x204"/>
      <component glyphName="uni0302.cap" x="348" y="0" flags="0x4"/>
    </TTGlyph>
    <TTGlyph name="Ccircumflex.sc" xMin="44" yMin="-12" xMax="508" yMax="717">
      <component glyphName="C.sc" x="0" y="0" flags="0x204"/>
      <component glyphName="uni0302.cap" x="312" y="-107" flags="0x4"/>
    </TTGlyph>
    <TTGlyph name="Cdotaccent" xMin="44" yMin="-12" xMax="568" yMax="868">
      <component glyphName="C" x="0" y="0" flags="0x204"/>
      <component glyphName="uni0307.cap" x="348" y="0" flags="0x4"/>
    </TTGlyph>
    <TTGlyph name="Cdotaccent.sc" xMin="44" yMin="-12" xMax="508" yMax="761">
      <component glyphName="C.sc" x="0" y="0" flags="0x204"/>
      <component glyphName="uni0307.cap" x="312" y="-107" flags="0x4"/>
    </TTGlyph>
    <TTGlyph name="D" xMin="72" yMin="0" xMax="598" yMax="650">
      <contour>
        <pt x="72" y="650" on="1"/>
        <pt x="264" y="650" on="1"/>
        <pt x="338" y="650" on="0"/>
        <pt x="461" y="614" on="0"/>
        <pt x="549" y="536" on="0"/>
        <pt x="598" y="414" on="0"/>
        <pt x="598" y="328" on="1"/>
        <pt x="598" y="242" on="0"/>
        <pt x="550" y="118" on="0"/>
        <pt x="463" y="38" on="0"/>
        <pt x="344" y="0" on="0"/>
        <pt x="274" y="0" on="1"/>
        <pt x="72" y="0" on="1"/>
      </contour>
      <contour>
        <pt x="254" y="138" on="1"/>
        <pt x="289" y="138" on="0"/>
        <pt x="351" y="155" on="0"/>
        <pt x="396" y="197" on="0"/>
        <pt x="422" y="271" on="0"/>
        <pt x="422" y="328" on="1"/>
        <pt x="422" y="385" on="0"/>
        <pt x="396" y="457" on="0"/>
        <pt x="351" y="497" on="0"/>
        <pt x="289" y="512" on="0"/>
        <pt x="254" y="512" on="1"/>
        <pt x="244" y="512" on="1"/>
        <pt x="244" y="138" on="1"/>
      </contour>
    </TTGlyph>
    <TTGlyph name="D.sc" xMin="72" yMin="0" xMax="546" yMax="532">
      <contour>
        <pt x="72" y="532" on="1"/>
        <pt x="246" y="532" on="1"/>
        <pt x="309" y="532" on="0"/>
        <pt x="418" y="506" on="0"/>
        <pt x="499" y="444" on="0"/>
        <pt x="546" y="344" on="0"/>
        <pt x="546" y="269" on="1"/>
        <pt x="546" y="194" on="0"/>
        <pt x="500" y="91" on="0"/>
        <pt x="421" y="28" on="0"/>
        <pt x="316" y="0" on="0"/>
        <pt x="257" y="0" on="1"/>
        <pt x="72" y="0" on="1"/>
      </contour>
      <contour>
        <pt x="257" y="133" on="1"/>
        <pt x="308" y="133" on="0"/>
        <pt x="370" y="193" on="0"/>
        <pt x="370" y="269" on="1"/>
        <pt x="370" y="307" on="0"/>
        <pt x="354" y="357" on="0"/>
        <pt x="324" y="387" on="0"/>
        <pt x="282" y="399" on="0"/>
        <pt x="257" y="399" on="1"/>
        <pt x="244" y="399" on="1"/>
        <pt x="244" y="133" on="1"/>
      </contour>
    </TTGlyph>
    <TTGlyph name="D.sups" xMin="47" yMin="260" xMax="404" yMax="692">
      <contour>
        <pt x="47" y="692" on="1"/>
        <pt x="177" y="692" on="1"/>
        <pt x="228" y="692" on="0"/>
        <pt x="311" y="668" on="0"/>
        <pt x="371" y="617" on="0"/>
        <pt x="404" y="537" on="0"/>
        <pt x="404" y="480" on="1"/>
        <pt x="404" y="422" on="0"/>
        <pt x="371" y="339" on="0"/>
        <pt x="313" y="285" on="0"/>
        <pt x="232" y="260" on="0"/>
        <pt x="184" y="260" on="1"/>
        <pt x="47" y="260" on="1"/>
      </contour>
      <contour>
        <pt x="173" y="355" on="1"/>
        <pt x="196" y="355" on="0"/>
        <pt x="236" y="366" on="0"/>
        <pt x="265" y="393" on="0"/>
        <pt x="281" y="441" on="0"/>
        <pt x="281" y="478" on="1"/>
        <pt x="281" y="516" on="0"/>
        <pt x="265" y="563" on="0"/>
        <pt x="236" y="588" on="0"/>
        <pt x="196" y="597" on="0"/>
        <pt x="173" y="597" on="1"/>
        <pt x="167" y="597" on="1"/>
        <pt x="167" y="355" on="1"/>
      </contour>
    </TTGlyph>
    <TTGlyph name="Dcaron" xMin="72" yMin="0" xMax="598" yMax="824">
      <component glyphName="D" x="0" y="0" flags="0x204"/>
      <component glyphName="uni030C.cap" x="322" y="0" flags="0x4"/>
    </TTGlyph>
    <TTGlyph name="Dcaron.sc" xMin="72" yMin="0" xMax="546" yMax="717">
      <component glyphName="D.sc" x="0" y="0" flags="0x4"/>
      <component glyphName="uni030C.cap" x="301" y="-107" flags="0x4"/>
    </TTGlyph>
    <TTGlyph name="Dcroat" xMin="24" yMin="0" xMax="624" yMax="650">
      <component glyphName="Eth" x="0" y="0" flags="0x204"/>
    </TTGlyph>
    <TTGlyph name="Dcroat.sc" xMin="24" yMin="0" xMax="572" yMax="532">
      <component glyphName="Eth.sc" x="0" y="0" flags="0x204"/>
    </TTGlyph>
    <TTGlyph name="E" xMin="72" yMin="0" xMax="502" yMax="650">
      <contour>
        <pt x="72" y="650" on="1"/>
        <pt x="492" y="650" on="1"/>
        <pt x="492" y="506" on="1"/>
        <pt x="244" y="506" on="1"/>
        <pt x="244" y="404" on="1"/>
        <pt x="456" y="404" on="1"/>
        <pt x="456" y="260" on="1"/>
        <pt x="244" y="260" on="1"/>
        <pt x="244" y="144" on="1"/>
        <pt x="502" y="144" on="1"/>
        <pt x="502" y="0" on="1"/>
        <pt x="72" y="0" on="1"/>
      </contour>
    </TTGlyph>
    <TTGlyph name="E.sc" xMin="72" yMin="0" xMax="454" yMax="532">
      <contour>
        <pt x="72" y="532" on="1"/>
        <pt x="444" y="532" on="1"/>
        <pt x="444" y="400" on="1"/>
        <pt x="244" y="400" on="1"/>
        <pt x="244" y="330" on="1"/>
        <pt x="416" y="330" on="1"/>
        <pt x="416" y="206" on="1"/>
        <pt x="244" y="206" on="1"/>
        <pt x="244" y="132" on="1"/>
        <pt x="454" y="132" on="1"/>
        <pt x="454" y="0" on="1"/>
        <pt x="72" y="0" on="1"/>
      </contour>
    </TTGlyph>
    <TTGlyph name="E.sups" xMin="47" yMin="260" xMax="339" yMax="692">
      <contour>
        <pt x="47" y="692" on="1"/>
        <pt x="333" y="692" on="1"/>
        <pt x="333" y="593" on="1"/>
        <pt x="167" y="593" on="1"/>
        <pt x="167" y="530" on="1"/>
        <pt x="309" y="530" on="1"/>
        <pt x="309" y="431" on="1"/>
        <pt x="167" y="431" on="1"/>
        <pt x="167" y="359" on="1"/>
        <pt x="339" y="359" on="1"/>
        <pt x="339" y="260" on="1"/>
        <pt x="47" y="260" on="1"/>
      </contour>
    </TTGlyph>
    <TTGlyph name="Eacute" xMin="72" yMin="0" xMax="502" yMax="824">
      <component glyphName="E" x="0" y="0" flags="0x204"/>
      <component glyphName="uni0301.cap" x="290" y="0" flags="0x4"/>
    </TTGlyph>
    <TTGlyph name="Eacute.sc" xMin="72" yMin="0" xMax="454" yMax="717">
      <component glyphName="E.sc" x="0" y="0" flags="0x204"/>
      <component glyphName="uni0301.cap" x="271" y="-107" flags="0x4"/>
    </TTGlyph>
    <TTGlyph name="Ebreve" xMin="72" yMin="0" xMax="502" yMax="824">
      <component glyphName="E" x="0" y="0" flags="0x204"/>
      <component glyphName="uni0306.cap" x="290" y="0" flags="0x4"/>
    </TTGlyph>
    <TTGlyph name="Ebreve.sc" xMin="72" yMin="0" xMax="454" yMax="717">
      <component glyphName="E.sc" x="0" y="0" flags="0x204"/>
      <component glyphName="uni0306.cap" x="271" y="-107" flags="0x4"/>
    </TTGlyph>
    <TTGlyph name="Ecaron" xMin="72" yMin="0" xMax="502" yMax="824">
      <component glyphName="E" x="0" y="0" flags="0x204"/>
      <component glyphName="uni030C.cap" x="290" y="0" flags="0x4"/>
    </TTGlyph>
    <TTGlyph name="Ecaron.sc" xMin="72" yMin="0" xMax="454" yMax="717">
      <component glyphName="E.sc" x="0" y="0" flags="0x204"/>
      <component glyphName="uni030C.cap" x="271" y="-107" flags="0x4"/>
    </TTGlyph>
    <TTGlyph name="Ecircumflex" xMin="72" yMin="0" xMax="502" yMax="824">
      <component glyphName="E" x="0" y="0" flags="0x204"/>
      <component glyphName="uni0302.cap" x="290" y="0" flags="0x4"/>
    </TTGlyph>
    <TTGlyph name="Ecircumflex.sc" xMin="72" yMin="0" xMax="454" yMax="717">
      <component glyphName="E.sc" x="0" y="0" flags="0x204"/>
      <component glyphName="uni0302.cap" x="271" y="-107" flags="0x4"/>
    </TTGlyph>
    <TTGlyph name="Edieresis" xMin="72" yMin="0" xMax="502" yMax="850">
      <component glyphName="E" x="0" y="0" flags="0x204"/>
      <component glyphName="uni0308.cap" x="290" y="0" flags="0x4"/>
    </TTGlyph>
    <TTGlyph name="Edieresis.sc" xMin="72" yMin="0" xMax="454" yMax="743">
      <component glyphName="E.sc" x="0" y="0" flags="0x204"/>
      <component glyphName="uni0308.cap" x="271" y="-107" flags="0x4"/>
    </TTGlyph>
    <TTGlyph name="Edotaccent" xMin="72" yMin="0" xMax="502" yMax="868">
      <component glyphName="E" x="0" y="0" flags="0x204"/>
      <component glyphName="uni0307.cap" x="290" y="0" flags="0x4"/>
    </TTGlyph>
    <TTGlyph name="Edotaccent.sc" xMin="72" yMin="0" xMax="454" yMax="761">
      <component glyphName="E.sc" x="0" y="0" flags="0x204"/>
      <component glyphName="uni0307.cap" x="271" y="-107" flags="0x4"/>
    </TTGlyph>
    <TTGlyph name="Egrave" xMin="72" yMin="0" xMax="502" yMax="824">
      <component glyphName="E" x="0" y="0" flags="0x204"/>
      <component glyphName="uni0300.cap" x="290" y="0" flags="0x4"/>
    </TTGlyph>
    <TTGlyph name="Egrave.sc" xMin="72" yMin="0" xMax="454" yMax="717">
      <component glyphName="E.sc" x="0" y="0" flags="0x204"/>
      <component glyphName="uni0300.cap" x="271" y="-107" flags="0x4"/>
    </TTGlyph>
    <TTGlyph name="Emacron" xMin="72" yMin="0" xMax="502" yMax="824">
      <component glyphName="E" x="0" y="0" flags="0x204"/>
      <component glyphName="uni0304.cap" x="290" y="0" flags="0x4"/>
    </TTGlyph>
    <TTGlyph name="Emacron.sc" xMin="72" yMin="0" xMax="454" yMax="717">
      <component glyphName="E.sc" x="0" y="0" flags="0x204"/>
      <component glyphName="uni0304.cap" x="271" y="-107" flags="0x4"/>
    </TTGlyph>
    <TTGlyph name="Eogonek" xMin="72" yMin="-228" xMax="524" yMax="650">
      <contour>
        <pt x="72" y="650" on="1"/>
        <pt x="492" y="650" on="1"/>
        <pt x="492" y="506" on="1"/>
        <pt x="244" y="506" on="1"/>
        <pt x="244" y="404" on="1"/>
        <pt x="456" y="404" on="1"/>
        <pt x="456" y="260" on="1"/>
        <pt x="244" y="260" on="1"/>
        <pt x="244" y="144" on="1"/>
        <pt x="502" y="144" on="1"/>
        <pt x="502" y="0" on="1"/>
        <pt x="496" y="0" on="1"/>
        <pt x="479" y="0" on="0"/>
        <pt x="448" y="-15" on="0"/>
        <pt x="425" y="-39" on="0"/>
        <pt x="412" y="-69" on="0"/>
        <pt x="412" y="-84" on="1"/>
        <pt x="412" y="-102" on="0"/>
        <pt x="437" y="-118" on="0"/>
        <pt x="452" y="-118" on="1"/>
        <pt x="461" y="-118" on="0"/>
        <pt x="479" y="-109" on="0"/>
        <pt x="486" y="-104" on="1"/>
        <pt x="524" y="-190" on="1"/>
        <pt x="503" y="-207" on="0"/>
        <pt x="439" y="-228" on="0"/>
        <pt x="410" y="-228" on="1"/>
        <pt x="359" y="-228" on="0"/>
        <pt x="288" y="-177" on="0"/>
        <pt x="288" y="-130" on="1"/>
        <pt x="288" y="-106" on="0"/>
        <pt x="304" y="-65" on="0"/>
        <pt x="328" y="-32" on="0"/>
        <pt x="356" y="-8" on="0"/>
        <pt x="368" y="0" on="1"/>
        <pt x="72" y="0" on="1"/>
      </contour>
    </TTGlyph>
    <TTGlyph name="Eogonek.sc" xMin="72" yMin="-228" xMax="476" yMax="532">
      <contour>
        <pt x="72" y="532" on="1"/>
        <pt x="444" y="532" on="1"/>
        <pt x="444" y="400" on="1"/>
        <pt x="244" y="400" on="1"/>
        <pt x="244" y="330" on="1"/>
        <pt x="416" y="330" on="1"/>
        <pt x="416" y="206" on="1"/>
        <pt x="244" y="206" on="1"/>
        <pt x="244" y="132" on="1"/>
        <pt x="454" y="132" on="1"/>
        <pt x="454" y="0" on="1"/>
        <pt x="448" y="0" on="1"/>
        <pt x="431" y="0" on="0"/>
        <pt x="400" y="-15" on="0"/>
        <pt x="377" y="-39" on="0"/>
        <pt x="364" y="-69" on="0"/>
        <pt x="364" y="-84" on="1"/>
        <pt x="364" y="-102" on="0"/>
        <pt x="389" y="-118" on="0"/>
        <pt x="404" y="-118" on="1"/>
        <pt x="413" y="-118" on="0"/>
        <pt x="431" y="-109" on="0"/>
        <pt x="438" y="-104" on="1"/>
        <pt x="476" y="-190" on="1"/>
        <pt x="455" y="-207" on="0"/>
        <pt x="391" y="-228" on="0"/>
        <pt x="362" y="-228" on="1"/>
        <pt x="311" y="-228" on="0"/>
        <pt x="240" y="-177" on="0"/>
        <pt x="240" y="-130" on="1"/>
        <pt x="240" y="-106" on="0"/>
        <pt x="256" y="-65" on="0"/>
        <pt x="280" y="-32" on="0"/>
        <pt x="308" y="-8" on="0"/>
        <pt x="320" y="0" on="1"/>
        <pt x="72" y="0" on="1"/>
      </contour>
    </TTGlyph>
    <TTGlyph name="Eth" xMin="24" yMin="0" xMax="624" yMax="650">
      <contour>
        <pt x="280" y="138" on="1"/>
        <pt x="315" y="138" on="0"/>
        <pt x="377" y="155" on="0"/>
        <pt x="422" y="197" on="0"/>
        <pt x="448" y="271" on="0"/>
        <pt x="448" y="328" on="1"/>
        <pt x="448" y="385" on="0"/>
        <pt x="422" y="457" on="0"/>
        <pt x="377" y="497" on="0"/>
        <pt x="315" y="512" on="0"/>
        <pt x="280" y="512" on="1"/>
        <pt x="270" y="512" on="1"/>
        <pt x="270" y="374" on="1"/>
        <pt x="386" y="374" on="1"/>
        <pt x="386" y="294" on="1"/>
        <pt x="270" y="294" on="1"/>
        <pt x="270" y="138" on="1"/>
      </contour>
      <contour>
        <pt x="290" y="650" on="1"/>
        <pt x="364" y="650" on="0"/>
        <pt x="487" y="614" on="0"/>
        <pt x="575" y="536" on="0"/>
        <pt x="624" y="414" on="0"/>
        <pt x="624" y="328" on="1"/>
        <pt x="624" y="242" on="0"/>
        <pt x="576" y="118" on="0"/>
        <pt x="489" y="38" on="0"/>
        <pt x="370" y="0" on="0"/>
        <pt x="300" y="0" on="1"/>
        <pt x="98" y="0" on="1"/>
        <pt x="98" y="294" on="1"/>
        <pt x="24" y="294" on="1"/>
        <pt x="24" y="368" on="1"/>
        <pt x="98" y="374" on="1"/>
        <pt x="98" y="650" on="1"/>
      </contour>
    </TTGlyph>
    <TTGlyph name="Eth.sc" xMin="24" yMin="0" xMax="572" yMax="532">
      <contour>
        <pt x="283" y="133" on="1"/>
        <pt x="334" y="133" on="0"/>
        <pt x="396" y="193" on="0"/>
        <pt x="396" y="269" on="1"/>
        <pt x="396" y="307" on="0"/>
        <pt x="380" y="357" on="0"/>
        <pt x="350" y="387" on="0"/>
        <pt x="308" y="399" on="0"/>
        <pt x="283" y="399" on="1"/>
        <pt x="270" y="399" on="1"/>
        <pt x="270" y="310" on="1"/>
        <pt x="352" y="310" on="1"/>
        <pt x="352" y="230" on="1"/>
        <pt x="270" y="230" on="1"/>
        <pt x="270" y="133" on="1"/>
      </contour>
      <contour>
        <pt x="272" y="532" on="1"/>
        <pt x="335" y="532" on="0"/>
        <pt x="444" y="506" on="0"/>
        <pt x="525" y="444" on="0"/>
        <pt x="572" y="344" on="0"/>
        <pt x="572" y="269" on="1"/>
        <pt x="572" y="194" on="0"/>
        <pt x="526" y="91" on="0"/>
        <pt x="447" y="28" on="0"/>
        <pt x="342" y="0" on="0"/>
        <pt x="283" y="0" on="1"/>
        <pt x="98" y="0" on="1"/>
        <pt x="98" y="230" on="1"/>
        <pt x="24" y="230" on="1"/>
        <pt x="24" y="304" on="1"/>
        <pt x="98" y="310" on="1"/>
        <pt x="98" y="532" on="1"/>
      </contour>
    </TTGlyph>
    <TTGlyph name="Euro" xMin="20" yMin="-12" xMax="530" yMax="646">
      <contour>
        <pt x="530" y="80" on="1"/>
        <pt x="492" y="35" on="0"/>
        <pt x="398" y="-12" on="0"/>
        <pt x="344" y="-12" on="1"/>
        <pt x="296" y="-12" on="0"/>
        <pt x="212" y="16" on="0"/>
        <pt x="144" y="71" on="0"/>
        <pt x="95" y="153" on="0"/>
        <pt x="83" y="208" on="1"/>
        <pt x="20" y="208" on="1"/>
        <pt x="20" y="286" on="1"/>
        <pt x="72" y="290" on="1"/>
        <pt x="72" y="312" on="1"/>
        <pt x="72" y="318" on="0"/>
        <pt x="72" y="330" on="0"/>
        <pt x="73" y="336" on="1"/>
        <pt x="20" y="336" on="1"/>
        <pt x="20" y="414" on="1"/>
        <pt x="83" y="419" on="1"/>
        <pt x="109" y="529" on="0"/>
        <pt x="253" y="646" on="0"/>
        <pt x="354" y="646" on="1"/>
        <pt x="399" y="646" on="0"/>
        <pt x="487" y="607" on="0"/>
        <pt x="522" y="568" on="1"/>
        <pt x="428" y="476" on="1"/>
        <pt x="410" y="493" on="0"/>
        <pt x="372" y="514" on="0"/>
        <pt x="348" y="514" on="1"/>
        <pt x="278" y="514" on="0"/>
        <pt x="255" y="420" on="1"/>
        <pt x="452" y="420" on="1"/>
        <pt x="452" y="336" on="1"/>
        <pt x="244" y="336" on="1"/>
        <pt x="244" y="318" on="1"/>
        <pt x="244" y="311" on="0"/>
        <pt x="244" y="298" on="0"/>
        <pt x="245" y="292" on="1"/>
        <pt x="412" y="292" on="1"/>
        <pt x="412" y="208" on="1"/>
        <pt x="257" y="208" on="1"/>
        <pt x="284" y="120" on="0"/>
        <pt x="354" y="120" on="1"/>
        <pt x="380" y="120" on="0"/>
        <pt x="419" y="145" on="0"/>
        <pt x="436" y="168" on="1"/>
      </contour>
    </TTGlyph>
    <TTGlyph name="F" xMin="72" yMin="0" xMax="496" yMax="650">
      <contour>
        <pt x="72" y="650" on="1"/>
        <pt x="496" y="650" on="1"/>
        <pt x="496" y="506" on="1"/>
        <pt x="244" y="506" on="1"/>
        <pt x="244" y="382" on="1"/>
        <pt x="460" y="382" on="1"/>
        <pt x="460" y="238" on="1"/>
        <pt x="244" y="238" on="1"/>
        <pt x="244" y="0" on="1"/>
        <pt x="72" y="0" on="1"/>
      </contour>
    </TTGlyph>
    <TTGlyph name="F.sc" xMin="72" yMin="0" xMax="448" yMax="532">
      <contour>
        <pt x="72" y="532" on="1"/>
        <pt x="448" y="532" on="1"/>
        <pt x="448" y="392" on="1"/>
        <pt x="244" y="392" on="1"/>
        <pt x="244" y="308" on="1"/>
        <pt x="420" y="308" on="1"/>
        <pt x="420" y="180" on="1"/>
        <pt x="244" y="180" on="1"/>
        <pt x="244" y="0" on="1"/>
        <pt x="72" y="0" on="1"/>
      </contour>
    </TTGlyph>
    <TTGlyph name="F.sups" xMin="47" yMin="260" xMax="336" yMax="692">
      <contour>
        <pt x="47" y="692" on="1"/>
        <pt x="336" y="692" on="1"/>
        <pt x="336" y="593" on="1"/>
        <pt x="167" y="593" on="1"/>
        <pt x="167" y="514" on="1"/>
        <pt x="312" y="514" on="1"/>
        <pt x="312" y="415" on="1"/>
        <pt x="167" y="415" on="1"/>
        <pt x="167" y="260" on="1"/>
        <pt x="47" y="260" on="1"/>
      </contour>
    </TTGlyph>
    <TTGlyph name="G" xMin="44" yMin="-12" xMax="592" yMax="662">
      <contour>
        <pt x="44" y="320" on="1"/>
        <pt x="44" y="402" on="0"/>
        <pt x="96" y="529" on="0"/>
        <pt x="186" y="616" on="0"/>
        <pt x="305" y="662" on="0"/>
        <pt x="372" y="662" on="1"/>
        <pt x="441" y="662" on="0"/>
        <pt x="545" y="611" on="0"/>
        <pt x="580" y="576" on="1"/>
        <pt x="486" y="470" on="1"/>
        <pt x="462" y="491" on="0"/>
        <pt x="413" y="514" on="0"/>
        <pt x="374" y="514" on="1"/>
        <pt x="341" y="514" on="0"/>
        <pt x="285" y="488" on="0"/>
        <pt x="243" y="440" on="0"/>
        <pt x="220" y="370" on="0"/>
        <pt x="220" y="326" on="1"/>
        <pt x="220" y="234" on="0"/>
        <pt x="302" y="136" on="0"/>
        <pt x="390" y="136" on="1"/>
        <pt x="404" y="136" on="0"/>
        <pt x="431" y="142" on="0"/>
        <pt x="440" y="148" on="1"/>
        <pt x="440" y="238" on="1"/>
        <pt x="344" y="238" on="1"/>
        <pt x="344" y="378" on="1"/>
        <pt x="592" y="378" on="1"/>
        <pt x="592" y="68" on="1"/>
        <pt x="556" y="35" on="0"/>
        <pt x="437" y="-12" on="0"/>
        <pt x="368" y="-12" on="1"/>
        <pt x="301" y="-12" on="0"/>
        <pt x="183" y="29" on="0"/>
        <pt x="95" y="112" on="0"/>
        <pt x="44" y="237" on="0"/>
      </contour>
    </TTGlyph>
    <TTGlyph name="G.sc" xMin="44" yMin="-12" xMax="532" yMax="544">
      <contour>
        <pt x="44" y="261" on="1"/>
        <pt x="44" y="329" on="0"/>
        <pt x="91" y="435" on="0"/>
        <pt x="171" y="507" on="0"/>
        <pt x="277" y="544" on="0"/>
        <pt x="335" y="544" on="1"/>
        <pt x="395" y="544" on="0"/>
        <pt x="488" y="500" on="0"/>
        <pt x="520" y="470" on="1"/>
        <pt x="428" y="370" on="1"/>
        <pt x="407" y="388" on="0"/>
        <pt x="366" y="405" on="0"/>
        <pt x="337" y="405" on="1"/>
        <pt x="286" y="405" on="0"/>
        <pt x="218" y="332" on="0"/>
        <pt x="218" y="261" on="1"/>
        <pt x="218" y="197" on="0"/>
        <pt x="278" y="124" on="0"/>
        <pt x="346" y="124" on="1"/>
        <pt x="369" y="124" on="0"/>
        <pt x="382" y="132" on="1"/>
        <pt x="382" y="198" on="1"/>
        <pt x="308" y="198" on="1"/>
        <pt x="308" y="316" on="1"/>
        <pt x="532" y="316" on="1"/>
        <pt x="532" y="55" on="1"/>
        <pt x="500" y="26" on="0"/>
        <pt x="392" y="-12" on="0"/>
        <pt x="333" y="-12" on="1"/>
        <pt x="274" y="-12" on="0"/>
        <pt x="169" y="21" on="0"/>
        <pt x="90" y="88" on="0"/>
        <pt x="44" y="191" on="0"/>
      </contour>
    </TTGlyph>
    <TTGlyph name="G.sups" xMin="29" yMin="252" xMax="403" yMax="700">
      <contour>
        <pt x="29" y="473" on="1"/>
        <pt x="29" y="527" on="0"/>
        <pt x="65" y="612" on="0"/>
        <pt x="126" y="670" on="0"/>
        <pt x="207" y="700" on="0"/>
        <pt x="252" y="700" on="1"/>
        <pt x="299" y="700" on="0"/>
        <pt x="368" y="668" on="0"/>
        <pt x="394" y="645" on="1"/>
        <pt x="327" y="569" on="1"/>
        <pt x="311" y="583" on="0"/>
        <pt x="279" y="597" on="0"/>
        <pt x="252" y="597" on="1"/>
        <pt x="209" y="597" on="0"/>
        <pt x="152" y="534" on="0"/>
        <pt x="152" y="477" on="1"/>
        <pt x="152" y="418" on="0"/>
        <pt x="206" y="354" on="0"/>
        <pt x="263" y="354" on="1"/>
        <pt x="285" y="354" on="0"/>
        <pt x="295" y="361" on="1"/>
        <pt x="295" y="417" on="1"/>
        <pt x="233" y="417" on="1"/>
        <pt x="233" y="514" on="1"/>
        <pt x="403" y="514" on="1"/>
        <pt x="403" y="306" on="1"/>
        <pt x="377" y="286" on="0"/>
        <pt x="296" y="252" on="0"/>
        <pt x="250" y="252" on="1"/>
        <pt x="204" y="252" on="0"/>
        <pt x="124" y="280" on="0"/>
        <pt x="64" y="335" on="0"/>
        <pt x="29" y="418" on="0"/>
      </contour>
    </TTGlyph>
    <TTGlyph name="Gbreve" xMin="44" yMin="-12" xMax="592" yMax="824">
      <component glyphName="G" x="0" y="0" flags="0x204"/>
      <component glyphName="uni0306.cap" x="372" y="0" flags="0x4"/>
    </TTGlyph>
    <TTGlyph name="Gbreve.sc" xMin="44" yMin="-12" xMax="532" yMax="717">
      <component glyphName="G.sc" x="0" y="0" flags="0x204"/>
      <component glyphName="uni0306.cap" x="324" y="-107" flags="0x4"/>
    </TTGlyph>
    <TTGlyph name="Gcaron" xMin="44" yMin="-12" xMax="592" yMax="824">
      <component glyphName="G" x="0" y="0" flags="0x204"/>
      <component glyphName="uni030C.cap" x="372" y="0" flags="0x4"/>
    </TTGlyph>
    <TTGlyph name="Gcaron.sc" xMin="44" yMin="-12" xMax="532" yMax="717">
      <component glyphName="G.sc" x="0" y="0" flags="0x204"/>
      <component glyphName="uni030C.cap" x="324" y="-107" flags="0x4"/>
    </TTGlyph>
    <TTGlyph name="Gcircumflex" xMin="44" yMin="-12" xMax="592" yMax="824">
      <component glyphName="G" x="0" y="0" flags="0x204"/>
      <component glyphName="uni0302.cap" x="372" y="0" flags="0x4"/>
    </TTGlyph>
    <TTGlyph name="Gcircumflex.sc" xMin="44" yMin="-12" xMax="532" yMax="717">
      <component glyphName="G.sc" x="0" y="0" flags="0x204"/>
      <component glyphName="uni0302.cap" x="324" y="-107" flags="0x4"/>
    </TTGlyph>
    <TTGlyph name="Gdotaccent" xMin="44" yMin="-12" xMax="592" yMax="868">
      <component glyphName="G" x="0" y="0" flags="0x204"/>
      <component glyphName="uni0307.cap" x="372" y="0" flags="0x4"/>
    </TTGlyph>
    <TTGlyph name="Gdotaccent.sc" xMin="44" yMin="-12" xMax="532" yMax="761">
      <component glyphName="G.sc" x="0" y="0" flags="0x204"/>
      <component glyphName="uni0307.cap" x="324" y="-107" flags="0x4"/>
    </TTGlyph>
    <TTGlyph name="H" xMin="72" yMin="0" xMax="610" yMax="650">
      <contour>
        <pt x="72" y="650" on="1"/>
        <pt x="244" y="650" on="1"/>
        <pt x="244" y="408" on="1"/>
        <pt x="438" y="408" on="1"/>
        <pt x="438" y="650" on="1"/>
        <pt x="610" y="650" on="1"/>
        <pt x="610" y="0" on="1"/>
        <pt x="438" y="0" on="1"/>
        <pt x="438" y="258" on="1"/>
        <pt x="244" y="258" on="1"/>
        <pt x="244" y="0" on="1"/>
        <pt x="72" y="0" on="1"/>
      </contour>
    </TTGlyph>
    <TTGlyph name="H.sc" xMin="72" yMin="0" xMax="560" yMax="532">
      <contour>
        <pt x="72" y="532" on="1"/>
        <pt x="244" y="532" on="1"/>
        <pt x="244" y="344" on="1"/>
        <pt x="388" y="344" on="1"/>
        <pt x="388" y="532" on="1"/>
        <pt x="560" y="532" on="1"/>
        <pt x="560" y="0" on="1"/>
        <pt x="388" y="0" on="1"/>
        <pt x="388" y="196" on="1"/>
        <pt x="244" y="196" on="1"/>
        <pt x="244" y="0" on="1"/>
        <pt x="72" y="0" on="1"/>
      </contour>
    </TTGlyph>
    <TTGlyph name="H.sups" xMin="47" yMin="260" xMax="413" yMax="692">
      <contour>
        <pt x="47" y="692" on="1"/>
        <pt x="167" y="692" on="1"/>
        <pt x="167" y="533" on="1"/>
        <pt x="293" y="533" on="1"/>
        <pt x="293" y="692" on="1"/>
        <pt x="413" y="692" on="1"/>
        <pt x="413" y="260" on="1"/>
        <pt x="293" y="260" on="1"/>
        <pt x="293" y="430" on="1"/>
        <pt x="167" y="430" on="1"/>
        <pt x="167" y="260" on="1"/>
        <pt x="47" y="260" on="1"/>
      </contour>
    </TTGlyph>
    <TTGlyph name="Hbar" xMin="22" yMin="0" xMax="700" yMax="650">
      <contour>
        <pt x="458" y="484" on="1"/>
        <pt x="264" y="484" on="1"/>
        <pt x="264" y="408" on="1"/>
        <pt x="458" y="408" on="1"/>
      </contour>
      <contour>
        <pt x="700" y="484" on="1"/>
        <pt x="630" y="484" on="1"/>
        <pt x="630" y="0" on="1"/>
        <pt x="458" y="0" on="1"/>
        <pt x="458" y="258" on="1"/>
        <pt x="264" y="258" on="1"/>
        <pt x="264" y="0" on="1"/>
        <pt x="92" y="0" on="1"/>
        <pt x="92" y="484" on="1"/>
        <pt x="22" y="484" on="1"/>
        <pt x="22" y="558" on="1"/>
        <pt x="92" y="564" on="1"/>
        <pt x="92" y="650" on="1"/>
        <pt x="264" y="650" on="1"/>
        <pt x="264" y="564" on="1"/>
        <pt x="458" y="564" on="1"/>
        <pt x="458" y="650" on="1"/>
        <pt x="630" y="650" on="1"/>
        <pt x="630" y="564" on="1"/>
        <pt x="700" y="564" on="1"/>
      </contour>
    </TTGlyph>
    <TTGlyph name="Hbar.sc" xMin="22" yMin="0" xMax="650" yMax="532">
      <contour>
        <pt x="408" y="388" on="1"/>
        <pt x="264" y="388" on="1"/>
        <pt x="264" y="334" on="1"/>
        <pt x="408" y="334" on="1"/>
      </contour>
      <contour>
        <pt x="650" y="388" on="1"/>
        <pt x="580" y="388" on="1"/>
        <pt x="580" y="0" on="1"/>
        <pt x="408" y="0" on="1"/>
        <pt x="408" y="206" on="1"/>
        <pt x="264" y="206" on="1"/>
        <pt x="264" y="0" on="1"/>
        <pt x="92" y="0" on="1"/>
        <pt x="92" y="388" on="1"/>
        <pt x="22" y="388" on="1"/>
        <pt x="22" y="462" on="1"/>
        <pt x="92" y="468" on="1"/>
        <pt x="92" y="532" on="1"/>
        <pt x="264" y="532" on="1"/>
        <pt x="264" y="468" on="1"/>
        <pt x="408" y="468" on="1"/>
        <pt x="408" y="532" on="1"/>
        <pt x="580" y="532" on="1"/>
        <pt x="580" y="468" on="1"/>
        <pt x="650" y="468" on="1"/>
      </contour>
    </TTGlyph>
    <TTGlyph name="Hcircumflex" xMin="72" yMin="0" xMax="610" yMax="824">
      <component glyphName="H" x="0" y="0" flags="0x204"/>
      <component glyphName="uni0302.cap" x="340" y="0" flags="0x4"/>
    </TTGlyph>
    <TTGlyph name="Hcircumflex.sc" xMin="72" yMin="0" xMax="560" yMax="717">
      <component glyphName="H.sc" x="0" y="0" flags="0x204"/>
      <component glyphName="uni0302.cap" x="316" y="-107" flags="0x4"/>
    </TTGlyph>
    <TTGlyph name="I" xMin="72" yMin="0" xMax="244" yMax="650">
      <contour>
        <pt x="72" y="650" on="1"/>
        <pt x="244" y="650" on="1"/>
        <pt x="244" y="0" on="1"/>
        <pt x="72" y="0" on="1"/>
      </contour>
    </TTGlyph>
    <TTGlyph name="I.a" xMin="54" yMin="0" xMax="362" yMax="650">
      <contour>
        <pt x="54" y="144" on="1"/>
        <pt x="122" y="144" on="1"/>
        <pt x="122" y="506" on="1"/>
        <pt x="54" y="506" on="1"/>
        <pt x="54" y="650" on="1"/>
        <pt x="362" y="650" on="1"/>
        <pt x="362" y="506" on="1"/>
        <pt x="294" y="506" on="1"/>
        <pt x="294" y="144" on="1"/>
        <pt x="362" y="144" on="1"/>
        <pt x="362" y="0" on="1"/>
        <pt x="54" y="0" on="1"/>
      </contour>
    </TTGlyph>
    <TTGlyph name="I.sc" xMin="72" yMin="0" xMax="244" yMax="532">
      <contour>
        <pt x="72" y="532" on="1"/>
        <pt x="244" y="532" on="1"/>
        <pt x="244" y="0" on="1"/>
        <pt x="72" y="0" on="1"/>
      </contour>
    </TTGlyph>
    <TTGlyph name="I.sups" xMin="47" yMin="260" xMax="167" yMax="692">
      <contour>
        <pt x="47" y="692" on="1"/>
        <pt x="167" y="692" on="1"/>
        <pt x="167" y="260" on="1"/>
        <pt x="47" y="260" on="1"/>
      </contour>
    </TTGlyph>
    <TTGlyph name="Iacute" xMin="72" yMin="0" xMax="332" yMax="824">
      <component glyphName="I" x="0" y="0" flags="0x204"/>
      <component glyphName="uni0301.cap" x="158" y="0" flags="0x4"/>
    </TTGlyph>
    <TTGlyph name="Iacute.a" xMin="54" yMin="0" xMax="382" yMax="824">
      <component glyphName="I.a" x="0" y="0" flags="0x204"/>
      <component glyphName="uni0301.cap" x="208" y="0" flags="0x4"/>
    </TTGlyph>
    <TTGlyph name="Iacute.sc" xMin="72" yMin="0" xMax="332" yMax="717">
      <component glyphName="I.sc" x="0" y="0" flags="0x204"/>
      <component glyphName="uni0301.cap" x="158" y="-107" flags="0x4"/>
    </TTGlyph>
    <TTGlyph name="Icircumflex" xMin="-22" yMin="0" xMax="338" yMax="824">
      <component glyphName="I" x="0" y="0" flags="0x204"/>
      <component glyphName="uni0302.cap" x="158" y="0" flags="0x4"/>
    </TTGlyph>
    <TTGlyph name="Icircumflex.a" xMin="28" yMin="0" xMax="388" yMax="824">
      <component glyphName="I.a" x="0" y="0" flags="0x204"/>
      <component glyphName="uni0302.cap" x="208" y="0" flags="0x4"/>
    </TTGlyph>
    <TTGlyph name="Icircumflex.sc" xMin="-22" yMin="0" xMax="338" yMax="717">
      <component glyphName="I.sc" x="0" y="0" flags="0x204"/>
      <component glyphName="uni0302.cap" x="158" y="-107" flags="0x4"/>
    </TTGlyph>
    <TTGlyph name="Idieresis" xMin="-24" yMin="0" xMax="340" yMax="850">
      <component glyphName="I" x="0" y="0" flags="0x204"/>
      <component glyphName="uni0308.cap" x="158" y="0" flags="0x4"/>
    </TTGlyph>
    <TTGlyph name="Idieresis.a" xMin="26" yMin="0" xMax="390" yMax="850">
      <component glyphName="I.a" x="0" y="0" flags="0x204"/>
      <component glyphName="uni0308.cap" x="208" y="0" flags="0x4"/>
    </TTGlyph>
    <TTGlyph name="Idieresis.sc" xMin="-24" yMin="0" xMax="340" yMax="743">
      <component glyphName="I.sc" x="0" y="0" flags="0x204"/>
      <component glyphName="uni0308.cap" x="158" y="-107" flags="0x4"/>
    </TTGlyph>
    <TTGlyph name="Idotaccent" xMin="62" yMin="0" xMax="254" yMax="868">
      <component glyphName="I" x="0" y="0" flags="0x204"/>
      <component glyphName="uni0307.cap" x="158" y="0" flags="0x4"/>
    </TTGlyph>
    <TTGlyph name="Idotaccent.a" xMin="54" yMin="0" xMax="362" yMax="868">
      <component glyphName="I.a" x="0" y="0" flags="0x204"/>
      <component glyphName="uni0307.cap" x="208" y="0" flags="0x4"/>
    </TTGlyph>
    <TTGlyph name="Idotaccent.sc" xMin="62" yMin="0" xMax="254" yMax="761">
      <component glyphName="I.sc" x="0" y="0" flags="0x204"/>
      <component glyphName="uni0307.cap" x="158" y="-107" flags="0x4"/>
    </TTGlyph>
    <TTGlyph name="Igrave" xMin="-16" yMin="0" xMax="244" yMax="824">
      <component glyphName="I" x="0" y="0" flags="0x204"/>
      <component glyphName="uni0300.cap" x="158" y="0" flags="0x4"/>
    </TTGlyph>
    <TTGlyph name="Igrave.a" xMin="34" yMin="0" xMax="362" yMax="824">
      <component glyphName="I.a" x="0" y="0" flags="0x204"/>
      <component glyphName="uni0300.cap" x="208" y="0" flags="0x4"/>
    </TTGlyph>
    <TTGlyph name="Igrave.sc" xMin="-16" yMin="0" xMax="244" yMax="717">
      <component glyphName="I.sc" x="0" y="0" flags="0x204"/>
      <component glyphName="uni0300.cap" x="158" y="-107" flags="0x4"/>
    </TTGlyph>
    <TTGlyph name="Imacron" xMin="10" yMin="0" xMax="306" yMax="824">
      <component glyphName="I" x="0" y="0" flags="0x204"/>
      <component glyphName="uni0304.cap" x="158" y="0" flags="0x4"/>
    </TTGlyph>
    <TTGlyph name="Imacron.a" xMin="54" yMin="0" xMax="362" yMax="824">
      <component glyphName="I.a" x="0" y="0" flags="0x204"/>
      <component glyphName="uni0304.cap" x="208" y="0" flags="0x4"/>
    </TTGlyph>
    <TTGlyph name="Imacron.sc" xMin="10" yMin="0" xMax="306" yMax="717">
      <component glyphName="I.sc" x="0" y="0" flags="0x204"/>
      <component glyphName="uni0304.cap" x="158" y="-107" flags="0x4"/>
    </TTGlyph>
    <TTGlyph name="Iogonek" xMin="42" yMin="-228" xMax="278" yMax="650">
      <contour>
        <pt x="72" y="650" on="1"/>
        <pt x="244" y="650" on="1"/>
        <pt x="244" y="0" on="1"/>
        <pt x="200" y="-14" on="0"/>
        <pt x="166" y="-60" on="0"/>
        <pt x="166" y="-84" on="1"/>
        <pt x="166" y="-102" on="0"/>
        <pt x="191" y="-118" on="0"/>
        <pt x="205" y="-118" on="1"/>
        <pt x="215" y="-118" on="0"/>
        <pt x="234" y="-109" on="0"/>
        <pt x="240" y="-104" on="1"/>
        <pt x="278" y="-190" on="1"/>
        <pt x="257" y="-207" on="0"/>
        <pt x="193" y="-228" on="0"/>
        <pt x="164" y="-228" on="1"/>
        <pt x="113" y="-228" on="0"/>
        <pt x="42" y="-177" on="0"/>
        <pt x="42" y="-130" on="1"/>
        <pt x="42" y="-105" on="0"/>
        <pt x="58" y="-64" on="0"/>
        <pt x="82" y="-31" on="0"/>
        <pt x="108" y="-7" on="0"/>
        <pt x="119" y="0" on="1"/>
        <pt x="72" y="0" on="1"/>
      </contour>
    </TTGlyph>
    <TTGlyph name="Iogonek.a" xMin="54" yMin="-228" xMax="362" yMax="650">
      <contour>
        <pt x="54" y="144" on="1"/>
        <pt x="122" y="144" on="1"/>
        <pt x="122" y="506" on="1"/>
        <pt x="54" y="506" on="1"/>
        <pt x="54" y="650" on="1"/>
        <pt x="362" y="650" on="1"/>
        <pt x="362" y="506" on="1"/>
        <pt x="294" y="506" on="1"/>
        <pt x="294" y="144" on="1"/>
        <pt x="362" y="144" on="1"/>
        <pt x="362" y="0" on="1"/>
        <pt x="267" y="0" on="1"/>
        <pt x="243" y="-20" on="0"/>
        <pt x="216" y="-63" on="0"/>
        <pt x="216" y="-84" on="1"/>
        <pt x="216" y="-102" on="0"/>
        <pt x="241" y="-118" on="0"/>
        <pt x="256" y="-118" on="1"/>
        <pt x="265" y="-118" on="0"/>
        <pt x="283" y="-109" on="0"/>
        <pt x="290" y="-104" on="1"/>
        <pt x="328" y="-190" on="1"/>
        <pt x="307" y="-207" on="0"/>
        <pt x="243" y="-228" on="0"/>
        <pt x="214" y="-228" on="1"/>
        <pt x="163" y="-228" on="0"/>
        <pt x="92" y="-177" on="0"/>
        <pt x="92" y="-130" on="1"/>
        <pt x="92" y="-106" on="0"/>
        <pt x="108" y="-65" on="0"/>
        <pt x="130" y="-31" on="0"/>
        <pt x="156" y="-7" on="0"/>
        <pt x="165" y="0" on="1"/>
        <pt x="54" y="0" on="1"/>
      </contour>
    </TTGlyph>
    <TTGlyph name="Iogonek.sc" xMin="42" yMin="-228" xMax="278" yMax="532">
      <contour>
        <pt x="72" y="532" on="1"/>
        <pt x="244" y="532" on="1"/>
        <pt x="244" y="0" on="1"/>
        <pt x="200" y="-14" on="0"/>
        <pt x="166" y="-60" on="0"/>
        <pt x="166" y="-84" on="1"/>
        <pt x="166" y="-102" on="0"/>
        <pt x="191" y="-118" on="0"/>
        <pt x="205" y="-118" on="1"/>
        <pt x="215" y="-118" on="0"/>
        <pt x="234" y="-109" on="0"/>
        <pt x="240" y="-104" on="1"/>
        <pt x="278" y="-190" on="1"/>
        <pt x="257" y="-207" on="0"/>
        <pt x="193" y="-228" on="0"/>
        <pt x="164" y="-228" on="1"/>
        <pt x="113" y="-228" on="0"/>
        <pt x="42" y="-177" on="0"/>
        <pt x="42" y="-130" on="1"/>
        <pt x="42" y="-105" on="0"/>
        <pt x="58" y="-64" on="0"/>
        <pt x="82" y="-31" on="0"/>
        <pt x="108" y="-7" on="0"/>
        <pt x="119" y="0" on="1"/>
        <pt x="72" y="0" on="1"/>
      </contour>
    </TTGlyph>
    <TTGlyph name="Itilde" xMin="-22" yMin="0" xMax="338" yMax="846">
      <component glyphName="I" x="0" y="0" flags="0x204"/>
      <component glyphName="uni0303.cap" x="158" y="0" flags="0x4"/>
    </TTGlyph>
    <TTGlyph name="Itilde.a" xMin="28" yMin="0" xMax="388" yMax="846">
      <component glyphName="I.a" x="0" y="0" flags="0x204"/>
      <component glyphName="uni0303.cap" x="208" y="0" flags="0x4"/>
    </TTGlyph>
    <TTGlyph name="Itilde.sc" xMin="-22" yMin="0" xMax="338" yMax="739">
      <component glyphName="I.sc" x="0" y="0" flags="0x204"/>
      <component glyphName="uni0303.cap" x="158" y="-107" flags="0x4"/>
    </TTGlyph>
    <TTGlyph name="J" xMin="10" yMin="-12" xMax="452" yMax="650">
      <contour>
        <pt x="126" y="198" on="1"/>
        <pt x="143" y="166" on="0"/>
        <pt x="187" y="136" on="0"/>
        <pt x="208" y="136" on="1"/>
        <pt x="225" y="136" on="0"/>
        <pt x="252" y="145" on="0"/>
        <pt x="270" y="169" on="0"/>
        <pt x="280" y="209" on="0"/>
        <pt x="280" y="240" on="1"/>
        <pt x="280" y="650" on="1"/>
        <pt x="452" y="650" on="1"/>
        <pt x="452" y="226" on="1"/>
        <pt x="452" y="177" on="0"/>
        <pt x="425" y="91" on="0"/>
        <pt x="371" y="26" on="0"/>
        <pt x="288" y="-12" on="0"/>
        <pt x="232" y="-12" on="1"/>
        <pt x="152" y="-12" on="0"/>
        <pt x="46" y="48" on="0"/>
        <pt x="10" y="111" on="1"/>
      </contour>
    </TTGlyph>
    <TTGlyph name="J.sc" xMin="10" yMin="-12" xMax="414" yMax="532">
      <contour>
        <pt x="124" y="180" on="1"/>
        <pt x="137" y="157" on="0"/>
        <pt x="173" y="130" on="0"/>
        <pt x="190" y="130" on="1"/>
        <pt x="202" y="130" on="0"/>
        <pt x="221" y="136" on="0"/>
        <pt x="234" y="152" on="0"/>
        <pt x="242" y="182" on="0"/>
        <pt x="242" y="205" on="1"/>
        <pt x="242" y="532" on="1"/>
        <pt x="414" y="532" on="1"/>
        <pt x="414" y="194" on="1"/>
        <pt x="414" y="152" on="0"/>
        <pt x="389" y="77" on="0"/>
        <pt x="338" y="21" on="0"/>
        <pt x="262" y="-12" on="0"/>
        <pt x="211" y="-12" on="1"/>
        <pt x="139" y="-12" on="0"/>
        <pt x="43" y="41" on="0"/>
        <pt x="10" y="96" on="1"/>
      </contour>
    </TTGlyph>
    <TTGlyph name="J.sups" xMin="6" yMin="252" xMax="308" yMax="692">
      <contour>
        <pt x="87" y="396" on="1"/>
        <pt x="98" y="374" on="0"/>
        <pt x="127" y="354" on="0"/>
        <pt x="142" y="354" on="1"/>
        <pt x="165" y="354" on="0"/>
        <pt x="188" y="381" on="0"/>
        <pt x="188" y="423" on="1"/>
        <pt x="188" y="692" on="1"/>
        <pt x="308" y="692" on="1"/>
        <pt x="308" y="413" on="1"/>
        <pt x="308" y="380" on="0"/>
        <pt x="290" y="322" on="0"/>
        <pt x="252" y="278" on="0"/>
        <pt x="195" y="252" on="0"/>
        <pt x="155" y="252" on="1"/>
        <pt x="102" y="252" on="0"/>
        <pt x="31" y="293" on="0"/>
        <pt x="6" y="336" on="1"/>
      </contour>
    </TTGlyph>
    <TTGlyph name="Jcircumflex" xMin="10" yMin="-12" xMax="544" yMax="824">
      <component glyphName="J" x="0" y="0" flags="0x204"/>
      <component glyphName="uni0302.cap" x="364" y="0" flags="0x4"/>
    </TTGlyph>
    <TTGlyph name="Jcircumflex.sc" xMin="10" yMin="-12" xMax="502" yMax="717">
      <component glyphName="J.sc" x="0" y="0" flags="0x204"/>
      <component glyphName="uni0302.cap" x="322" y="-107" flags="0x4"/>
    </TTGlyph>
    <TTGlyph name="K" xMin="72" yMin="0" xMax="638" yMax="650">
      <contour>
        <pt x="72" y="650" on="1"/>
        <pt x="244" y="650" on="1"/>
        <pt x="244" y="408" on="1"/>
        <pt x="248" y="408" on="1"/>
        <pt x="412" y="650" on="1"/>
        <pt x="600" y="650" on="1"/>
        <pt x="406" y="386" on="1"/>
        <pt x="638" y="0" on="1"/>
        <pt x="450" y="0" on="1"/>
        <pt x="306" y="250" on="1"/>
        <pt x="244" y="162" on="1"/>
        <pt x="244" y="0" on="1"/>
        <pt x="72" y="0" on="1"/>
      </contour>
    </TTGlyph>
    <TTGlyph name="K.sc" xMin="72" yMin="0" xMax="580" yMax="532">
      <contour>
        <pt x="72" y="532" on="1"/>
        <pt x="244" y="532" on="1"/>
        <pt x="244" y="358" on="1"/>
        <pt x="248" y="358" on="1"/>
        <pt x="364" y="532" on="1"/>
        <pt x="548" y="532" on="1"/>
        <pt x="384" y="310" on="1"/>
        <pt x="580" y="0" on="1"/>
        <pt x="398" y="0" on="1"/>
        <pt x="286" y="192" on="1"/>
        <pt x="244" y="140" on="1"/>
        <pt x="244" y="0" on="1"/>
        <pt x="72" y="0" on="1"/>
      </contour>
    </TTGlyph>
    <TTGlyph name="K.sups" xMin="47" yMin="260" xMax="433" yMax="692">
      <contour>
        <pt x="47" y="692" on="1"/>
        <pt x="167" y="692" on="1"/>
        <pt x="167" y="536" on="1"/>
        <pt x="170" y="536" on="1"/>
        <pt x="276" y="692" on="1"/>
        <pt x="407" y="692" on="1"/>
        <pt x="277" y="518" on="1"/>
        <pt x="433" y="260" on="1"/>
        <pt x="302" y="260" on="1"/>
        <pt x="208" y="426" on="1"/>
        <pt x="167" y="370" on="1"/>
        <pt x="167" y="260" on="1"/>
        <pt x="47" y="260" on="1"/>
      </contour>
    </TTGlyph>
    <TTGlyph name="L" xMin="72" yMin="0" xMax="490" yMax="650">
      <contour>
        <pt x="72" y="650" on="1"/>
        <pt x="244" y="650" on="1"/>
        <pt x="244" y="144" on="1"/>
        <pt x="490" y="144" on="1"/>
        <pt x="490" y="0" on="1"/>
        <pt x="72" y="0" on="1"/>
      </contour>
    </TTGlyph>
    <TTGlyph name="L.sc" xMin="72" yMin="0" xMax="444" yMax="532">
      <contour>
        <pt x="72" y="532" on="1"/>
        <pt x="244" y="532" on="1"/>
        <pt x="244" y="140" on="1"/>
        <pt x="444" y="140" on="1"/>
        <pt x="444" y="0" on="1"/>
        <pt x="72" y="0" on="1"/>
      </contour>
    </TTGlyph>
    <TTGlyph name="L.sups" xMin="47" yMin="260" xMax="332" yMax="692">
      <contour>
        <pt x="47" y="692" on="1"/>
        <pt x="167" y="692" on="1"/>
        <pt x="167" y="359" on="1"/>
        <pt x="332" y="359" on="1"/>
        <pt x="332" y="260" on="1"/>
        <pt x="47" y="260" on="1"/>
      </contour>
    </TTGlyph>
    <TTGlyph name="Lacute" xMin="72" yMin="0" xMax="490" yMax="824">
      <component glyphName="L" x="0" y="0" flags="0x204"/>
      <component glyphName="uni0301.cap" x="162" y="0" flags="0x4"/>
    </TTGlyph>
    <TTGlyph name="Lacute.sc" xMin="72" yMin="0" xMax="444" yMax="717">
      <component glyphName="L.sc" x="0" y="0" flags="0x204"/>
      <component glyphName="uni0301.cap" x="162" y="-107" flags="0x4"/>
    </TTGlyph>
    <TTGlyph name="Lcaron" xMin="72" yMin="0" xMax="490" yMax="735">
      <component glyphName="L" x="0" y="0" flags="0x204"/>
      <component glyphName="uni030C.a" x="380" y="-39" flags="0x4"/>
    </TTGlyph>
    <TTGlyph name="Lcaron.sc" xMin="72" yMin="0" xMax="444" yMax="635">
      <component glyphName="L.sc" x="0" y="0" flags="0x204"/>
      <component glyphName="uni030C.a" x="362" y="-139" flags="0x4"/>
    </TTGlyph>
    <TTGlyph name="Ldot" xMin="72" yMin="0" xMax="523" yMax="650">
      <component glyphName="L" x="0" y="0" flags="0x204"/>
      <component glyphName="period" x="263" y="238" flags="0x4"/>
    </TTGlyph>
    <TTGlyph name="Ldot.sc" xMin="72" yMin="0" xMax="496" yMax="532">
      <component glyphName="L.sc" x="0" y="0" flags="0x204"/>
      <component glyphName="period" x="236" y="238" flags="0x4"/>
    </TTGlyph>
    <TTGlyph name="Lslash" xMin="10" yMin="0" xMax="498" yMax="650">
      <contour>
        <pt x="498" y="144" on="1"/>
        <pt x="498" y="0" on="1"/>
        <pt x="80" y="0" on="1"/>
        <pt x="80" y="198" on="1"/>
        <pt x="10" y="156" on="1"/>
        <pt x="10" y="288" on="1"/>
        <pt x="80" y="330" on="1"/>
        <pt x="80" y="650" on="1"/>
        <pt x="252" y="650" on="1"/>
        <pt x="252" y="410" on="1"/>
        <pt x="420" y="504" on="1"/>
        <pt x="420" y="372" on="1"/>
        <pt x="252" y="278" on="1"/>
        <pt x="252" y="144" on="1"/>
      </contour>
    </TTGlyph>
    <TTGlyph name="Lslash.sc" xMin="10" yMin="0" xMax="452" yMax="532">
      <contour>
        <pt x="452" y="140" on="1"/>
        <pt x="452" y="0" on="1"/>
        <pt x="80" y="0" on="1"/>
        <pt x="80" y="138" on="1"/>
        <pt x="10" y="96" on="1"/>
        <pt x="10" y="222" on="1"/>
        <pt x="80" y="264" on="1"/>
        <pt x="80" y="532" on="1"/>
        <pt x="252" y="532" on="1"/>
        <pt x="252" y="343" on="1"/>
        <pt x="390" y="420" on="1"/>
        <pt x="390" y="294" on="1"/>
        <pt x="252" y="217" on="1"/>
        <pt x="252" y="140" on="1"/>
      </contour>
    </TTGlyph>
    <TTGlyph name="M" xMin="72" yMin="0" xMax="704" yMax="650">
      <contour>
        <pt x="72" y="650" on="1"/>
        <pt x="250" y="650" on="1"/>
        <pt x="352" y="380" on="1"/>
        <pt x="388" y="274" on="1"/>
        <pt x="392" y="274" on="1"/>
        <pt x="428" y="380" on="1"/>
        <pt x="526" y="650" on="1"/>
        <pt x="704" y="650" on="1"/>
        <pt x="704" y="0" on="1"/>
        <pt x="544" y="0" on="1"/>
        <pt x="544" y="192" on="1"/>
        <pt x="544" y="217" on="0"/>
        <pt x="549" y="277" on="0"/>
        <pt x="555" y="340" on="0"/>
        <pt x="563" y="400" on="0"/>
        <pt x="566" y="424" on="1"/>
        <pt x="562" y="424" on="1"/>
        <pt x="508" y="272" on="1"/>
        <pt x="418" y="53" on="1"/>
        <pt x="354" y="53" on="1"/>
        <pt x="264" y="272" on="1"/>
        <pt x="212" y="424" on="1"/>
        <pt x="208" y="424" on="1"/>
        <pt x="211" y="400" on="0"/>
        <pt x="219" y="340" on="0"/>
        <pt x="225" y="277" on="0"/>
        <pt x="230" y="217" on="0"/>
        <pt x="230" y="192" on="1"/>
        <pt x="230" y="0" on="1"/>
        <pt x="72" y="0" on="1"/>
      </contour>
    </TTGlyph>
    <TTGlyph name="M.sc" xMin="72" yMin="0" xMax="628" yMax="532">
      <contour>
        <pt x="72" y="532" on="1"/>
        <pt x="244" y="532" on="1"/>
        <pt x="320" y="336" on="1"/>
        <pt x="350" y="252" on="1"/>
        <pt x="354" y="252" on="1"/>
        <pt x="384" y="336" on="1"/>
        <pt x="457" y="532" on="1"/>
        <pt x="628" y="532" on="1"/>
        <pt x="628" y="0" on="1"/>
        <pt x="474" y="0" on="1"/>
        <pt x="474" y="106" on="1"/>
        <pt x="474" y="127" on="0"/>
        <pt x="479" y="183" on="0"/>
        <pt x="485" y="242" on="0"/>
        <pt x="493" y="297" on="0"/>
        <pt x="496" y="318" on="1"/>
        <pt x="492" y="318" on="1"/>
        <pt x="440" y="192" on="1"/>
        <pt x="375" y="39" on="1"/>
        <pt x="323" y="39" on="1"/>
        <pt x="258" y="192" on="1"/>
        <pt x="208" y="318" on="1"/>
        <pt x="204" y="318" on="1"/>
        <pt x="207" y="297" on="0"/>
        <pt x="215" y="242" on="0"/>
        <pt x="221" y="183" on="0"/>
        <pt x="226" y="127" on="0"/>
        <pt x="226" y="106" on="1"/>
        <pt x="226" y="0" on="1"/>
        <pt x="72" y="0" on="1"/>
      </contour>
    </TTGlyph>
    <TTGlyph name="M.sups" xMin="47" yMin="260" xMax="479" yMax="692">
      <contour>
        <pt x="47" y="692" on="1"/>
        <pt x="170" y="692" on="1"/>
        <pt x="240" y="517" on="1"/>
        <pt x="264" y="448" on="1"/>
        <pt x="267" y="448" on="1"/>
        <pt x="290" y="517" on="1"/>
        <pt x="354" y="692" on="1"/>
        <pt x="479" y="692" on="1"/>
        <pt x="479" y="260" on="1"/>
        <pt x="367" y="260" on="1"/>
        <pt x="367" y="382" on="1"/>
        <pt x="367" y="399" on="0"/>
        <pt x="370" y="440" on="0"/>
        <pt x="375" y="482" on="0"/>
        <pt x="381" y="521" on="0"/>
        <pt x="383" y="536" on="1"/>
        <pt x="380" y="536" on="1"/>
        <pt x="342" y="436" on="1"/>
        <pt x="283" y="296" on="1"/>
        <pt x="240" y="296" on="1"/>
        <pt x="181" y="436" on="1"/>
        <pt x="144" y="536" on="1"/>
        <pt x="142" y="536" on="1"/>
        <pt x="144" y="521" on="0"/>
        <pt x="149" y="482" on="0"/>
        <pt x="154" y="440" on="0"/>
        <pt x="157" y="399" on="0"/>
        <pt x="157" y="382" on="1"/>
        <pt x="157" y="260" on="1"/>
        <pt x="47" y="260" on="1"/>
      </contour>
    </TTGlyph>
    <TTGlyph name="N" xMin="72" yMin="0" xMax="600" yMax="650">
      <contour>
        <pt x="72" y="650" on="1"/>
        <pt x="248" y="650" on="1"/>
        <pt x="392" y="360" on="1"/>
        <pt x="454" y="214" on="1"/>
        <pt x="458" y="214" on="1"/>
        <pt x="455" y="240" on="0"/>
        <pt x="447" y="302" on="0"/>
        <pt x="441" y="367" on="0"/>
        <pt x="436" y="432" on="0"/>
        <pt x="436" y="462" on="1"/>
        <pt x="436" y="650" on="1"/>
        <pt x="600" y="650" on="1"/>
        <pt x="600" y="0" on="1"/>
        <pt x="424" y="0" on="1"/>
        <pt x="280" y="291" on="1"/>
        <pt x="218" y="436" on="1"/>
        <pt x="214" y="436" on="1"/>
        <pt x="220" y="380" on="0"/>
        <pt x="236" y="248" on="0"/>
        <pt x="236" y="188" on="1"/>
        <pt x="236" y="0" on="1"/>
        <pt x="72" y="0" on="1"/>
      </contour>
    </TTGlyph>
    <TTGlyph name="N.sc" xMin="72" yMin="0" xMax="542" yMax="532">
      <contour>
        <pt x="72" y="532" on="1"/>
        <pt x="244" y="532" on="1"/>
        <pt x="345" y="331" on="1"/>
        <pt x="402" y="200" on="1"/>
        <pt x="406" y="200" on="1"/>
        <pt x="403" y="222" on="0"/>
        <pt x="395" y="278" on="0"/>
        <pt x="389" y="338" on="0"/>
        <pt x="384" y="398" on="0"/>
        <pt x="384" y="424" on="1"/>
        <pt x="384" y="532" on="1"/>
        <pt x="542" y="532" on="1"/>
        <pt x="542" y="0" on="1"/>
        <pt x="374" y="0" on="1"/>
        <pt x="269" y="202" on="1"/>
        <pt x="212" y="332" on="1"/>
        <pt x="208" y="332" on="1"/>
        <pt x="211" y="308" on="0"/>
        <pt x="219" y="252" on="0"/>
        <pt x="225" y="192" on="0"/>
        <pt x="230" y="133" on="0"/>
        <pt x="230" y="107" on="1"/>
        <pt x="230" y="0" on="1"/>
        <pt x="72" y="0" on="1"/>
      </contour>
    </TTGlyph>
    <TTGlyph name="N.sups" xMin="47" yMin="260" xMax="406" yMax="692">
      <contour>
        <pt x="47" y="692" on="1"/>
        <pt x="172" y="692" on="1"/>
        <pt x="263" y="506" on="1"/>
        <pt x="304" y="407" on="1"/>
        <pt x="307" y="407" on="1"/>
        <pt x="302" y="443" on="0"/>
        <pt x="294" y="534" on="0"/>
        <pt x="294" y="575" on="1"/>
        <pt x="294" y="692" on="1"/>
        <pt x="406" y="692" on="1"/>
        <pt x="406" y="260" on="1"/>
        <pt x="281" y="260" on="1"/>
        <pt x="190" y="449" on="1"/>
        <pt x="149" y="545" on="1"/>
        <pt x="146" y="545" on="1"/>
        <pt x="151" y="507" on="0"/>
        <pt x="159" y="419" on="0"/>
        <pt x="159" y="380" on="1"/>
        <pt x="159" y="260" on="1"/>
        <pt x="47" y="260" on="1"/>
      </contour>
    </TTGlyph>
    <TTGlyph name="Nacute" xMin="72" yMin="0" xMax="600" yMax="824">
      <component glyphName="N" x="0" y="0" flags="0x204"/>
      <component glyphName="uni0301.cap" x="336" y="0" flags="0x4"/>
    </TTGlyph>
    <TTGlyph name="Nacute.sc" xMin="72" yMin="0" xMax="542" yMax="717">
      <component glyphName="N.sc" x="0" y="0" flags="0x204"/>
      <component glyphName="uni0301.cap" x="316" y="-107" flags="0x4"/>
    </TTGlyph>
    <TTGlyph name="Ncaron" xMin="72" yMin="0" xMax="600" yMax="824">
      <component glyphName="N" x="0" y="0" flags="0x204"/>
      <component glyphName="uni030C.cap" x="336" y="0" flags="0x4"/>
    </TTGlyph>
    <TTGlyph name="Ncaron.sc" xMin="72" yMin="0" xMax="542" yMax="717">
      <component glyphName="N.sc" x="0" y="0" flags="0x204"/>
      <component glyphName="uni030C.cap" x="316" y="-107" flags="0x4"/>
    </TTGlyph>
    <TTGlyph name="Ntilde" xMin="72" yMin="0" xMax="600" yMax="846">
      <component glyphName="N" x="0" y="0" flags="0x204"/>
      <component glyphName="uni0303.cap" x="336" y="0" flags="0x4"/>
    </TTGlyph>
    <TTGlyph name="Ntilde.sc" xMin="72" yMin="0" xMax="542" yMax="739">
      <component glyphName="N.sc" x="0" y="0" flags="0x204"/>
      <component glyphName="uni0303.cap" x="316" y="-107" flags="0x4"/>
    </TTGlyph>
    <TTGlyph name="O" xMin="44" yMin="-12" xMax="648" yMax="662">
      <contour>
        <pt x="346" y="-12" on="1"/>
        <pt x="278" y="-12" on="0"/>
        <pt x="167" y="34" on="0"/>
        <pt x="88" y="121" on="0"/>
        <pt x="44" y="248" on="0"/>
        <pt x="44" y="328" on="1"/>
        <pt x="44" y="408" on="0"/>
        <pt x="88" y="533" on="0"/>
        <pt x="167" y="618" on="0"/>
        <pt x="278" y="662" on="0"/>
        <pt x="346" y="662" on="1"/>
        <pt x="413" y="662" on="0"/>
        <pt x="525" y="618" on="0"/>
        <pt x="604" y="532" on="0"/>
        <pt x="648" y="408" on="0"/>
        <pt x="648" y="328" on="1"/>
        <pt x="648" y="248" on="0"/>
        <pt x="604" y="121" on="0"/>
        <pt x="525" y="34" on="0"/>
        <pt x="413" y="-12" on="0"/>
      </contour>
      <contour>
        <pt x="346" y="136" on="1"/>
        <pt x="405" y="136" on="0"/>
        <pt x="472" y="239" on="0"/>
        <pt x="472" y="328" on="1"/>
        <pt x="472" y="417" on="0"/>
        <pt x="405" y="514" on="0"/>
        <pt x="346" y="514" on="1"/>
        <pt x="287" y="514" on="0"/>
        <pt x="220" y="417" on="0"/>
        <pt x="220" y="328" on="1"/>
        <pt x="220" y="239" on="0"/>
        <pt x="287" y="136" on="0"/>
      </contour>
    </TTGlyph>
    <TTGlyph name="O.sc" xMin="44" yMin="-12" xMax="582" yMax="544">
      <contour>
        <pt x="314" y="-12" on="1"/>
        <pt x="254" y="-12" on="0"/>
        <pt x="154" y="26" on="0"/>
        <pt x="83" y="98" on="0"/>
        <pt x="44" y="202" on="0"/>
        <pt x="44" y="269" on="1"/>
        <pt x="44" y="336" on="0"/>
        <pt x="83" y="438" on="0"/>
        <pt x="154" y="508" on="0"/>
        <pt x="254" y="544" on="0"/>
        <pt x="314" y="544" on="1"/>
        <pt x="374" y="544" on="0"/>
        <pt x="472" y="508" on="0"/>
        <pt x="543" y="438" on="0"/>
        <pt x="582" y="335" on="0"/>
        <pt x="582" y="269" on="1"/>
        <pt x="582" y="202" on="0"/>
        <pt x="543" y="98" on="0"/>
        <pt x="472" y="26" on="0"/>
        <pt x="374" y="-12" on="0"/>
      </contour>
      <contour>
        <pt x="314" y="128" on="1"/>
        <pt x="358" y="128" on="0"/>
        <pt x="406" y="203" on="0"/>
        <pt x="406" y="269" on="1"/>
        <pt x="406" y="335" on="0"/>
        <pt x="358" y="404" on="0"/>
        <pt x="314" y="404" on="1"/>
        <pt x="269" y="404" on="0"/>
        <pt x="220" y="335" on="0"/>
        <pt x="220" y="269" on="1"/>
        <pt x="220" y="203" on="0"/>
        <pt x="269" y="128" on="0"/>
      </contour>
    </TTGlyph>
    <TTGlyph name="O.sups" xMin="29" yMin="252" xMax="439" yMax="700">
      <contour>
        <pt x="234" y="252" on="1"/>
        <pt x="188" y="252" on="0"/>
        <pt x="112" y="283" on="0"/>
        <pt x="58" y="341" on="0"/>
        <pt x="29" y="425" on="0"/>
        <pt x="29" y="478" on="1"/>
        <pt x="29" y="531" on="0"/>
        <pt x="58" y="614" on="0"/>
        <pt x="112" y="671" on="0"/>
        <pt x="188" y="700" on="0"/>
        <pt x="234" y="700" on="1"/>
        <pt x="279" y="700" on="0"/>
        <pt x="355" y="670" on="0"/>
        <pt x="409" y="613" on="0"/>
        <pt x="439" y="531" on="0"/>
        <pt x="439" y="478" on="1"/>
        <pt x="439" y="425" on="0"/>
        <pt x="409" y="341" on="0"/>
        <pt x="355" y="283" on="0"/>
        <pt x="279" y="252" on="0"/>
      </contour>
      <contour>
        <pt x="234" y="354" on="1"/>
        <pt x="272" y="354" on="0"/>
        <pt x="316" y="421" on="0"/>
        <pt x="316" y="478" on="1"/>
        <pt x="316" y="535" on="0"/>
        <pt x="272" y="597" on="0"/>
        <pt x="234" y="597" on="1"/>
        <pt x="195" y="597" on="0"/>
        <pt x="152" y="535" on="0"/>
        <pt x="152" y="478" on="1"/>
        <pt x="152" y="421" on="0"/>
        <pt x="195" y="354" on="0"/>
      </contour>
    </TTGlyph>
    <TTGlyph name="OE" xMin="44" yMin="0" xMax="826" yMax="650">
      <contour>
        <pt x="44" y="328" on="1"/>
        <pt x="44" y="414" on="0"/>
        <pt x="97" y="536" on="0"/>
        <pt x="189" y="614" on="0"/>
        <pt x="313" y="650" on="0"/>
        <pt x="384" y="650" on="1"/>
        <pt x="816" y="650" on="1"/>
        <pt x="816" y="506" on="1"/>
        <pt x="580" y="506" on="1"/>
        <pt x="580" y="404" on="1"/>
        <pt x="780" y="404" on="1"/>
        <pt x="780" y="260" on="1"/>
        <pt x="580" y="260" on="1"/>
        <pt x="580" y="144" on="1"/>
        <pt x="826" y="144" on="1"/>
        <pt x="826" y="0" on="1"/>
        <pt x="374" y="0" on="1"/>
        <pt x="306" y="0" on="0"/>
        <pt x="186" y="38" on="0"/>
        <pt x="96" y="118" on="0"/>
        <pt x="44" y="242" on="0"/>
      </contour>
      <contour>
        <pt x="220" y="328" on="1"/>
        <pt x="220" y="270" on="0"/>
        <pt x="247" y="196" on="0"/>
        <pt x="294" y="154" on="0"/>
        <pt x="358" y="138" on="0"/>
        <pt x="394" y="138" on="1"/>
        <pt x="408" y="138" on="1"/>
        <pt x="408" y="512" on="1"/>
        <pt x="394" y="512" on="1"/>
        <pt x="358" y="512" on="0"/>
        <pt x="294" y="498" on="0"/>
        <pt x="247" y="458" on="0"/>
        <pt x="220" y="386" on="0"/>
      </contour>
    </TTGlyph>
    <TTGlyph name="OE.sc" xMin="44" yMin="0" xMax="724" yMax="532">
      <contour>
        <pt x="44" y="263" on="1"/>
        <pt x="44" y="338" on="0"/>
        <pt x="90" y="441" on="0"/>
        <pt x="169" y="504" on="0"/>
        <pt x="274" y="532" on="0"/>
        <pt x="333" y="532" on="1"/>
        <pt x="714" y="532" on="1"/>
        <pt x="714" y="400" on="1"/>
        <pt x="518" y="400" on="1"/>
        <pt x="518" y="330" on="1"/>
        <pt x="686" y="330" on="1"/>
        <pt x="686" y="206" on="1"/>
        <pt x="518" y="206" on="1"/>
        <pt x="518" y="132" on="1"/>
        <pt x="724" y="132" on="1"/>
        <pt x="724" y="0" on="1"/>
        <pt x="344" y="0" on="1"/>
        <pt x="281" y="0" on="0"/>
        <pt x="171" y="26" on="0"/>
        <pt x="90" y="88" on="0"/>
        <pt x="44" y="188" on="0"/>
      </contour>
      <contour>
        <pt x="333" y="399" on="1"/>
        <pt x="282" y="399" on="0"/>
        <pt x="220" y="339" on="0"/>
        <pt x="220" y="263" on="1"/>
        <pt x="220" y="225" on="0"/>
        <pt x="236" y="175" on="0"/>
        <pt x="266" y="145" on="0"/>
        <pt x="307" y="133" on="0"/>
        <pt x="333" y="133" on="1"/>
        <pt x="346" y="133" on="1"/>
        <pt x="346" y="399" on="1"/>
      </contour>
    </TTGlyph>
    <TTGlyph name="Oacute" xMin="44" yMin="-12" xMax="648" yMax="824">
      <component glyphName="O" x="0" y="0" flags="0x204"/>
      <component glyphName="uni0301.cap" x="346" y="0" flags="0x4"/>
    </TTGlyph>
    <TTGlyph name="Oacute.sc" xMin="44" yMin="-12" xMax="582" yMax="717">
      <component glyphName="O.sc" x="0" y="0" flags="0x204"/>
      <component glyphName="uni0301.cap" x="314" y="-107" flags="0x4"/>
    </TTGlyph>
    <TTGlyph name="Ocircumflex" xMin="44" yMin="-12" xMax="648" yMax="824">
      <component glyphName="O" x="0" y="0" flags="0x204"/>
      <component glyphName="uni0302.cap" x="346" y="0" flags="0x4"/>
    </TTGlyph>
    <TTGlyph name="Ocircumflex.sc" xMin="44" yMin="-12" xMax="582" yMax="717">
      <component glyphName="O.sc" x="0" y="0" flags="0x204"/>
      <component glyphName="uni0302.cap" x="314" y="-107" flags="0x4"/>
    </TTGlyph>
    <TTGlyph name="Odieresis" xMin="44" yMin="-12" xMax="648" yMax="850">
      <component glyphName="O" x="0" y="0" flags="0x204"/>
      <component glyphName="uni0308.cap" x="346" y="0" flags="0x4"/>
    </TTGlyph>
    <TTGlyph name="Odieresis.sc" xMin="44" yMin="-12" xMax="582" yMax="743">
      <component glyphName="O.sc" x="0" y="0" flags="0x204"/>
      <component glyphName="uni0308.cap" x="314" y="-107" flags="0x4"/>
    </TTGlyph>
    <TTGlyph name="Ograve" xMin="44" yMin="-12" xMax="648" yMax="824">
      <component glyphName="O" x="0" y="0" flags="0x204"/>
      <component glyphName="uni0300.cap" x="346" y="0" flags="0x4"/>
    </TTGlyph>
    <TTGlyph name="Ograve.sc" xMin="44" yMin="-12" xMax="582" yMax="717">
      <component glyphName="O.sc" x="0" y="0" flags="0x204"/>
      <component glyphName="uni0300.cap" x="314" y="-107" flags="0x4"/>
    </TTGlyph>
    <TTGlyph name="Ohorn" xMin="44" yMin="-12" xMax="672" yMax="788">
      <contour>
        <pt x="346" y="136" on="1"/>
        <pt x="405" y="136" on="0"/>
        <pt x="472" y="239" on="0"/>
        <pt x="472" y="328" on="1"/>
        <pt x="472" y="417" on="0"/>
        <pt x="405" y="514" on="0"/>
        <pt x="346" y="514" on="1"/>
        <pt x="287" y="514" on="0"/>
        <pt x="220" y="417" on="0"/>
        <pt x="220" y="328" on="1"/>
        <pt x="220" y="239" on="0"/>
        <pt x="287" y="136" on="0"/>
      </contour>
      <contour>
        <pt x="640" y="788" on="1"/>
        <pt x="652" y="774" on="0"/>
        <pt x="672" y="729" on="0"/>
        <pt x="672" y="702" on="1"/>
        <pt x="672" y="650" on="0"/>
        <pt x="613" y="590" on="0"/>
        <pt x="563" y="576" on="1"/>
        <pt x="604" y="533" on="0"/>
        <pt x="648" y="409" on="0"/>
        <pt x="648" y="328" on="1"/>
        <pt x="648" y="248" on="0"/>
        <pt x="604" y="121" on="0"/>
        <pt x="525" y="34" on="0"/>
        <pt x="413" y="-12" on="0"/>
        <pt x="346" y="-12" on="1"/>
        <pt x="278" y="-12" on="0"/>
        <pt x="167" y="34" on="0"/>
        <pt x="88" y="121" on="0"/>
        <pt x="44" y="248" on="0"/>
        <pt x="44" y="328" on="1"/>
        <pt x="44" y="408" on="0"/>
        <pt x="88" y="533" on="0"/>
        <pt x="167" y="618" on="0"/>
        <pt x="278" y="662" on="0"/>
        <pt x="346" y="662" on="1"/>
        <pt x="425" y="662" on="0"/>
        <pt x="489" y="631" on="1"/>
        <pt x="513" y="639" on="0"/>
        <pt x="540" y="662" on="0"/>
        <pt x="540" y="690" on="1"/>
        <pt x="540" y="705" on="0"/>
        <pt x="529" y="730" on="0"/>
        <pt x="524" y="738" on="1"/>
      </contour>
    </TTGlyph>
    <TTGlyph name="Ohorn.sc" xMin="44" yMin="-12" xMax="630" yMax="660">
      <contour>
        <pt x="314" y="128" on="1"/>
        <pt x="358" y="128" on="0"/>
        <pt x="406" y="203" on="0"/>
        <pt x="406" y="269" on="1"/>
        <pt x="406" y="335" on="0"/>
        <pt x="358" y="404" on="0"/>
        <pt x="314" y="404" on="1"/>
        <pt x="269" y="404" on="0"/>
        <pt x="220" y="335" on="0"/>
        <pt x="220" y="269" on="1"/>
        <pt x="220" y="203" on="0"/>
        <pt x="269" y="128" on="0"/>
      </contour>
      <contour>
        <pt x="598" y="660" on="1"/>
        <pt x="610" y="646" on="0"/>
        <pt x="630" y="601" on="0"/>
        <pt x="630" y="574" on="1"/>
        <pt x="630" y="523" on="0"/>
        <pt x="574" y="463" on="0"/>
        <pt x="529" y="449" on="1"/>
        <pt x="555" y="415" on="0"/>
        <pt x="582" y="325" on="0"/>
        <pt x="582" y="269" on="1"/>
        <pt x="582" y="202" on="0"/>
        <pt x="543" y="98" on="0"/>
        <pt x="472" y="26" on="0"/>
        <pt x="374" y="-12" on="0"/>
        <pt x="314" y="-12" on="1"/>
        <pt x="254" y="-12" on="0"/>
        <pt x="154" y="26" on="0"/>
        <pt x="83" y="98" on="0"/>
        <pt x="44" y="202" on="0"/>
        <pt x="44" y="269" on="1"/>
        <pt x="44" y="336" on="0"/>
        <pt x="83" y="438" on="0"/>
        <pt x="154" y="508" on="0"/>
        <pt x="254" y="544" on="0"/>
        <pt x="314" y="544" on="1"/>
        <pt x="399" y="544" on="0"/>
        <pt x="461" y="508" on="1"/>
        <pt x="478" y="514" on="0"/>
        <pt x="498" y="538" on="0"/>
        <pt x="498" y="562" on="1"/>
        <pt x="498" y="577" on="0"/>
        <pt x="487" y="602" on="0"/>
        <pt x="482" y="610" on="1"/>
      </contour>
    </TTGlyph>
    <TTGlyph name="Ohungarumlaut" xMin="44" yMin="-12" xMax="648" yMax="824">
      <component glyphName="O" x="0" y="0" flags="0x204"/>
      <component glyphName="uni030B.cap" x="346" y="0" flags="0x4"/>
    </TTGlyph>
    <TTGlyph name="Ohungarumlaut.sc" xMin="44" yMin="-12" xMax="582" yMax="717">
      <component glyphName="O.sc" x="0" y="0" flags="0x204"/>
      <component glyphName="uni030B.cap" x="314" y="-107" flags="0x4"/>
    </TTGlyph>
    <TTGlyph name="Omacron" xMin="44" yMin="-12" xMax="648" yMax="824">
      <component glyphName="O" x="0" y="0" flags="0x204"/>
      <component glyphName="uni0304.cap" x="346" y="0" flags="0x4"/>
    </TTGlyph>
    <TTGlyph name="Omacron.sc" xMin="44" yMin="-12" xMax="582" yMax="717">
      <component glyphName="O.sc" x="0" y="0" flags="0x204"/>
      <component glyphName="uni0304.cap" x="314" y="-107" flags="0x4"/>
    </TTGlyph>
    <TTGlyph name="Oslash" xMin="36" yMin="-46" xMax="676" yMax="696">
      <contour>
        <pt x="287" y="153" on="1"/>
        <pt x="313" y="136" on="0"/>
        <pt x="346" y="136" on="1"/>
        <pt x="405" y="136" on="0"/>
        <pt x="472" y="239" on="0"/>
        <pt x="472" y="328" on="1"/>
        <pt x="472" y="354" on="0"/>
        <pt x="469" y="375" on="1"/>
      </contour>
      <contour>
        <pt x="418" y="488" on="1"/>
        <pt x="387" y="514" on="0"/>
        <pt x="346" y="514" on="1"/>
        <pt x="287" y="514" on="0"/>
        <pt x="220" y="417" on="0"/>
        <pt x="220" y="328" on="1"/>
        <pt x="220" y="286" on="0"/>
        <pt x="227" y="255" on="1"/>
      </contour>
      <contour>
        <pt x="597" y="532" on="1"/>
        <pt x="622" y="492" on="0"/>
        <pt x="648" y="390" on="0"/>
        <pt x="648" y="328" on="1"/>
        <pt x="648" y="248" on="0"/>
        <pt x="604" y="121" on="0"/>
        <pt x="525" y="34" on="0"/>
        <pt x="413" y="-12" on="0"/>
        <pt x="346" y="-12" on="1"/>
        <pt x="253" y="-12" on="0"/>
        <pt x="186" y="30" on="1"/>
        <pt x="124" y="-46" on="1"/>
        <pt x="36" y="22" on="1"/>
        <pt x="105" y="106" on="1"/>
        <pt x="76" y="148" on="0"/>
        <pt x="44" y="259" on="0"/>
        <pt x="44" y="328" on="1"/>
        <pt x="44" y="408" on="0"/>
        <pt x="88" y="533" on="0"/>
        <pt x="167" y="618" on="0"/>
        <pt x="278" y="662" on="0"/>
        <pt x="346" y="662" on="1"/>
        <pt x="446" y="662" on="0"/>
        <pt x="520" y="613" on="1"/>
        <pt x="588" y="696" on="1"/>
        <pt x="676" y="628" on="1"/>
      </contour>
    </TTGlyph>
    <TTGlyph name="Oslash.sc" xMin="44" yMin="-26" xMax="582" yMax="558">
      <contour>
        <pt x="254" y="139" on="1"/>
        <pt x="278" y="118" on="0"/>
        <pt x="314" y="118" on="1"/>
        <pt x="362" y="118" on="0"/>
        <pt x="416" y="199" on="0"/>
        <pt x="416" y="269" on="1"/>
        <pt x="416" y="283" on="0"/>
        <pt x="414" y="308" on="0"/>
        <pt x="412" y="319" on="1"/>
      </contour>
      <contour>
        <pt x="373" y="394" on="1"/>
        <pt x="348" y="414" on="0"/>
        <pt x="314" y="414" on="1"/>
        <pt x="264" y="414" on="0"/>
        <pt x="210" y="339" on="0"/>
        <pt x="210" y="269" on="1"/>
        <pt x="210" y="254" on="0"/>
        <pt x="213" y="226" on="0"/>
        <pt x="215" y="214" on="1"/>
      </contour>
      <contour>
        <pt x="527" y="451" on="1"/>
        <pt x="553" y="417" on="0"/>
        <pt x="582" y="326" on="0"/>
        <pt x="582" y="269" on="1"/>
        <pt x="582" y="202" on="0"/>
        <pt x="543" y="98" on="0"/>
        <pt x="472" y="26" on="0"/>
        <pt x="374" y="-12" on="0"/>
        <pt x="314" y="-12" on="1"/>
        <pt x="222" y="-12" on="0"/>
        <pt x="158" y="30" on="1"/>
        <pt x="110" y="-26" on="1"/>
        <pt x="48" y="22" on="1"/>
        <pt x="101" y="82" on="1"/>
        <pt x="44" y="154" on="0"/>
        <pt x="44" y="269" on="1"/>
        <pt x="44" y="336" on="0"/>
        <pt x="83" y="438" on="0"/>
        <pt x="154" y="508" on="0"/>
        <pt x="254" y="544" on="0"/>
        <pt x="314" y="544" on="1"/>
        <pt x="403" y="544" on="0"/>
        <pt x="469" y="504" on="1"/>
        <pt x="516" y="558" on="1"/>
        <pt x="578" y="510" on="1"/>
      </contour>
    </TTGlyph>
    <TTGlyph name="Otilde" xMin="44" yMin="-12" xMax="648" yMax="846">
      <component glyphName="O" x="0" y="0" flags="0x204"/>
      <component glyphName="uni0303.cap" x="346" y="0" flags="0x4"/>
    </TTGlyph>
    <TTGlyph name="Otilde.sc" xMin="44" yMin="-12" xMax="582" yMax="739">
      <component glyphName="O.sc" x="0" y="0" flags="0x204"/>
      <component glyphName="uni0303.cap" x="314" y="-107" flags="0x4"/>
    </TTGlyph>
    <TTGlyph name="P" xMin="72" yMin="0" xMax="584" yMax="650">
      <contour>
        <pt x="72" y="650" on="1"/>
        <pt x="324" y="650" on="1"/>
        <pt x="376" y="650" on="0"/>
        <pt x="471" y="629" on="0"/>
        <pt x="542" y="578" on="0"/>
        <pt x="584" y="495" on="0"/>
        <pt x="584" y="434" on="1"/>
        <pt x="584" y="374" on="0"/>
        <pt x="541" y="288" on="0"/>
        <pt x="469" y="233" on="0"/>
        <pt x="375" y="206" on="0"/>
        <pt x="324" y="206" on="1"/>
        <pt x="244" y="206" on="1"/>
        <pt x="244" y="0" on="1"/>
        <pt x="72" y="0" on="1"/>
      </contour>
      <contour>
        <pt x="316" y="342" on="1"/>
        <pt x="367" y="342" on="0"/>
        <pt x="416" y="390" on="0"/>
        <pt x="416" y="434" on="1"/>
        <pt x="416" y="478" on="0"/>
        <pt x="364" y="514" on="0"/>
        <pt x="316" y="514" on="1"/>
        <pt x="244" y="514" on="1"/>
        <pt x="244" y="342" on="1"/>
      </contour>
    </TTGlyph>
    <TTGlyph name="P.sc" xMin="72" yMin="0" xMax="530" yMax="532">
      <contour>
        <pt x="72" y="532" on="1"/>
        <pt x="301" y="532" on="1"/>
        <pt x="346" y="532" on="0"/>
        <pt x="429" y="514" on="0"/>
        <pt x="492" y="472" on="0"/>
        <pt x="530" y="401" on="0"/>
        <pt x="530" y="348" on="1"/>
        <pt x="530" y="297" on="0"/>
        <pt x="491" y="224" on="0"/>
        <pt x="427" y="177" on="0"/>
        <pt x="344" y="156" on="0"/>
        <pt x="301" y="156" on="1"/>
        <pt x="244" y="156" on="1"/>
        <pt x="244" y="0" on="1"/>
        <pt x="72" y="0" on="1"/>
      </contour>
      <contour>
        <pt x="296" y="272" on="1"/>
        <pt x="331" y="272" on="0"/>
        <pt x="368" y="309" on="0"/>
        <pt x="368" y="338" on="1"/>
        <pt x="368" y="398" on="0"/>
        <pt x="296" y="398" on="1"/>
        <pt x="244" y="398" on="1"/>
        <pt x="244" y="272" on="1"/>
      </contour>
    </TTGlyph>
    <TTGlyph name="P.sups" xMin="47" yMin="260" xMax="396" yMax="692">
      <contour>
        <pt x="47" y="692" on="1"/>
        <pt x="221" y="692" on="1"/>
        <pt x="256" y="692" on="0"/>
        <pt x="319" y="678" on="0"/>
        <pt x="367" y="644" on="0"/>
        <pt x="396" y="589" on="0"/>
        <pt x="396" y="549" on="1"/>
        <pt x="396" y="509" on="0"/>
        <pt x="367" y="451" on="0"/>
        <pt x="318" y="413" on="0"/>
        <pt x="255" y="395" on="0"/>
        <pt x="221" y="395" on="1"/>
        <pt x="167" y="395" on="1"/>
        <pt x="167" y="260" on="1"/>
        <pt x="47" y="260" on="1"/>
      </contour>
      <contour>
        <pt x="213" y="488" on="1"/>
        <pt x="247" y="488" on="0"/>
        <pt x="279" y="521" on="0"/>
        <pt x="279" y="549" on="1"/>
        <pt x="279" y="575" on="0"/>
        <pt x="245" y="598" on="0"/>
        <pt x="213" y="598" on="1"/>
        <pt x="167" y="598" on="1"/>
        <pt x="167" y="488" on="1"/>
      </contour>
    </TTGlyph>
    <TTGlyph name="Q" xMin="44" yMin="-184" xMax="690" yMax="662">
      <contour>
        <pt x="346" y="514" on="1"/>
        <pt x="287" y="514" on="0"/>
        <pt x="220" y="417" on="0"/>
        <pt x="220" y="328" on="1"/>
        <pt x="220" y="231" on="0"/>
        <pt x="287" y="128" on="0"/>
        <pt x="346" y="128" on="1"/>
        <pt x="405" y="128" on="0"/>
        <pt x="472" y="231" on="0"/>
        <pt x="472" y="328" on="1"/>
        <pt x="472" y="417" on="0"/>
        <pt x="405" y="514" on="0"/>
      </contour>
      <contour>
        <pt x="690" y="-160" on="1"/>
        <pt x="670" y="-171" on="0"/>
        <pt x="608" y="-184" on="0"/>
        <pt x="566" y="-184" on="1"/>
        <pt x="511" y="-184" on="0"/>
        <pt x="418" y="-158" on="0"/>
        <pt x="343" y="-110" on="0"/>
        <pt x="287" y="-43" on="0"/>
        <pt x="268" y="-3" on="1"/>
        <pt x="217" y="9" on="0"/>
        <pt x="134" y="64" on="0"/>
        <pt x="76" y="148" on="0"/>
        <pt x="44" y="260" on="0"/>
        <pt x="44" y="328" on="1"/>
        <pt x="44" y="408" on="0"/>
        <pt x="88" y="533" on="0"/>
        <pt x="167" y="618" on="0"/>
        <pt x="278" y="662" on="0"/>
        <pt x="346" y="662" on="1"/>
        <pt x="413" y="662" on="0"/>
        <pt x="525" y="618" on="0"/>
        <pt x="604" y="532" on="0"/>
        <pt x="648" y="408" on="0"/>
        <pt x="648" y="328" on="1"/>
        <pt x="648" y="200" on="0"/>
        <pt x="541" y="34" on="0"/>
        <pt x="449" y="4" on="1"/>
        <pt x="472" y="-27" on="0"/>
        <pt x="549" y="-48" on="0"/>
        <pt x="586" y="-48" on="1"/>
        <pt x="607" y="-48" on="0"/>
        <pt x="645" y="-41" on="0"/>
        <pt x="660" y="-36" on="1"/>
      </contour>
    </TTGlyph>
    <TTGlyph name="Q.sc" xMin="42" yMin="-177" xMax="610" yMax="544">
      <contour>
        <pt x="312" y="404" on="1"/>
        <pt x="267" y="404" on="0"/>
        <pt x="218" y="335" on="0"/>
        <pt x="218" y="269" on="1"/>
        <pt x="218" y="196" on="0"/>
        <pt x="267" y="118" on="0"/>
        <pt x="312" y="118" on="1"/>
        <pt x="356" y="118" on="0"/>
        <pt x="404" y="196" on="0"/>
        <pt x="404" y="269" on="1"/>
        <pt x="404" y="335" on="0"/>
        <pt x="356" y="404" on="0"/>
      </contour>
      <contour>
        <pt x="610" y="-155" on="1"/>
        <pt x="592" y="-165" on="0"/>
        <pt x="534" y="-177" on="0"/>
        <pt x="496" y="-177" on="1"/>
        <pt x="442" y="-177" on="0"/>
        <pt x="358" y="-152" on="0"/>
        <pt x="293" y="-105" on="0"/>
        <pt x="245" y="-41" on="0"/>
        <pt x="228" y="-2" on="1"/>
        <pt x="142" y="21" on="0"/>
        <pt x="42" y="160" on="0"/>
        <pt x="42" y="269" on="1"/>
        <pt x="42" y="336" on="0"/>
        <pt x="81" y="438" on="0"/>
        <pt x="152" y="508" on="0"/>
        <pt x="252" y="544" on="0"/>
        <pt x="312" y="544" on="1"/>
        <pt x="372" y="544" on="0"/>
        <pt x="470" y="508" on="0"/>
        <pt x="541" y="438" on="0"/>
        <pt x="580" y="335" on="0"/>
        <pt x="580" y="269" on="1"/>
        <pt x="580" y="163" on="0"/>
        <pt x="484" y="26" on="0"/>
        <pt x="403" y="1" on="1"/>
        <pt x="421" y="-30" on="0"/>
        <pt x="481" y="-45" on="0"/>
        <pt x="516" y="-45" on="1"/>
        <pt x="534" y="-45" on="0"/>
        <pt x="567" y="-40" on="0"/>
        <pt x="581" y="-35" on="1"/>
      </contour>
    </TTGlyph>
    <TTGlyph name="Q.sups" xMin="26" yMin="138" xMax="467" yMax="700">
      <contour>
        <pt x="231" y="597" on="1"/>
        <pt x="192" y="597" on="0"/>
        <pt x="149" y="535" on="0"/>
        <pt x="149" y="477" on="1"/>
        <pt x="149" y="417" on="0"/>
        <pt x="192" y="350" on="0"/>
        <pt x="231" y="350" on="1"/>
        <pt x="269" y="350" on="0"/>
        <pt x="314" y="417" on="0"/>
        <pt x="314" y="477" on="1"/>
        <pt x="314" y="535" on="0"/>
        <pt x="269" y="597" on="0"/>
      </contour>
      <contour>
        <pt x="467" y="155" on="1"/>
        <pt x="453" y="147" on="0"/>
        <pt x="410" y="138" on="0"/>
        <pt x="381" y="138" on="1"/>
        <pt x="306" y="138" on="0"/>
        <pt x="203" y="204" on="0"/>
        <pt x="178" y="258" on="1"/>
        <pt x="108" y="274" on="0"/>
        <pt x="26" y="386" on="0"/>
        <pt x="26" y="477" on="1"/>
        <pt x="26" y="531" on="0"/>
        <pt x="55" y="614" on="0"/>
        <pt x="109" y="671" on="0"/>
        <pt x="185" y="700" on="0"/>
        <pt x="231" y="700" on="1"/>
        <pt x="277" y="700" on="0"/>
        <pt x="353" y="670" on="0"/>
        <pt x="407" y="613" on="0"/>
        <pt x="437" y="530" on="0"/>
        <pt x="437" y="477" on="1"/>
        <pt x="437" y="393" on="0"/>
        <pt x="365" y="284" on="0"/>
        <pt x="304" y="263" on="1"/>
        <pt x="319" y="243" on="0"/>
        <pt x="371" y="232" on="0"/>
        <pt x="395" y="232" on="1"/>
        <pt x="424" y="232" on="0"/>
        <pt x="446" y="240" on="1"/>
      </contour>
    </TTGlyph>
    <TTGlyph name="R" xMin="72" yMin="0" xMax="614" yMax="650">
      <contour>
        <pt x="244" y="354" on="1"/>
        <pt x="306" y="354" on="1"/>
        <pt x="410" y="354" on="0"/>
        <pt x="410" y="440" on="1"/>
        <pt x="410" y="482" on="0"/>
        <pt x="357" y="514" on="0"/>
        <pt x="306" y="514" on="1"/>
        <pt x="244" y="514" on="1"/>
      </contour>
      <contour>
        <pt x="422" y="0" on="1"/>
        <pt x="310" y="218" on="1"/>
        <pt x="244" y="218" on="1"/>
        <pt x="244" y="0" on="1"/>
        <pt x="72" y="0" on="1"/>
        <pt x="72" y="650" on="1"/>
        <pt x="318" y="650" on="1"/>
        <pt x="370" y="650" on="0"/>
        <pt x="465" y="630" on="0"/>
        <pt x="536" y="582" on="0"/>
        <pt x="578" y="501" on="0"/>
        <pt x="578" y="440" on="1"/>
        <pt x="578" y="370" on="0"/>
        <pt x="521" y="278" on="0"/>
        <pt x="473" y="252" on="1"/>
        <pt x="614" y="0" on="1"/>
      </contour>
    </TTGlyph>
    <TTGlyph name="R.sc" xMin="72" yMin="0" xMax="560" yMax="532">
      <contour>
        <pt x="244" y="278" on="1"/>
        <pt x="285" y="278" on="1"/>
        <pt x="324" y="278" on="0"/>
        <pt x="364" y="313" on="0"/>
        <pt x="364" y="341" on="1"/>
        <pt x="364" y="372" on="0"/>
        <pt x="321" y="398" on="0"/>
        <pt x="283" y="398" on="1"/>
        <pt x="244" y="398" on="1"/>
      </contour>
      <contour>
        <pt x="380" y="0" on="1"/>
        <pt x="292" y="162" on="1"/>
        <pt x="244" y="162" on="1"/>
        <pt x="244" y="0" on="1"/>
        <pt x="72" y="0" on="1"/>
        <pt x="72" y="532" on="1"/>
        <pt x="293" y="532" on="1"/>
        <pt x="339" y="532" on="0"/>
        <pt x="423" y="515" on="0"/>
        <pt x="488" y="474" on="0"/>
        <pt x="526" y="405" on="0"/>
        <pt x="526" y="352" on="1"/>
        <pt x="526" y="299" on="0"/>
        <pt x="480" y="224" on="0"/>
        <pt x="442" y="200" on="1"/>
        <pt x="560" y="0" on="1"/>
      </contour>
    </TTGlyph>
    <TTGlyph name="R.sups" xMin="47" yMin="260" xMax="417" yMax="692">
      <contour>
        <pt x="167" y="496" on="1"/>
        <pt x="208" y="496" on="1"/>
        <pt x="241" y="496" on="0"/>
        <pt x="275" y="524" on="0"/>
        <pt x="275" y="549" on="1"/>
        <pt x="275" y="575" on="0"/>
        <pt x="241" y="598" on="0"/>
        <pt x="208" y="598" on="1"/>
        <pt x="167" y="598" on="1"/>
      </contour>
      <contour>
        <pt x="283" y="260" on="1"/>
        <pt x="210" y="403" on="1"/>
        <pt x="167" y="403" on="1"/>
        <pt x="167" y="260" on="1"/>
        <pt x="47" y="260" on="1"/>
        <pt x="47" y="692" on="1"/>
        <pt x="216" y="692" on="1"/>
        <pt x="251" y="692" on="0"/>
        <pt x="315" y="679" on="0"/>
        <pt x="363" y="647" on="0"/>
        <pt x="392" y="593" on="0"/>
        <pt x="392" y="553" on="1"/>
        <pt x="392" y="508" on="0"/>
        <pt x="354" y="447" on="0"/>
        <pt x="322" y="429" on="1"/>
        <pt x="417" y="260" on="1"/>
      </contour>
    </TTGlyph>
    <TTGlyph name="Racute" xMin="72" yMin="0" xMax="614" yMax="824">
      <component glyphName="R" x="0" y="0" flags="0x204"/>
      <component glyphName="uni0301.cap" x="316" y="0" flags="0x4"/>
    </TTGlyph>
    <TTGlyph name="Racute.sc" xMin="72" yMin="0" xMax="560" yMax="717">
      <component glyphName="R.sc" x="0" y="0" flags="0x204"/>
      <component glyphName="uni0301.cap" x="306" y="-107" flags="0x4"/>
    </TTGlyph>
    <TTGlyph name="Rcaron" xMin="72" yMin="0" xMax="614" yMax="824">
      <component glyphName="R" x="0" y="0" flags="0x204"/>
      <component glyphName="uni030C.cap" x="316" y="0" flags="0x4"/>
    </TTGlyph>
    <TTGlyph name="Rcaron.sc" xMin="72" yMin="0" xMax="560" yMax="717">
      <component glyphName="R.sc" x="0" y="0" flags="0x204"/>
      <component glyphName="uni030C.cap" x="306" y="-107" flags="0x4"/>
    </TTGlyph>
    <TTGlyph name="S" xMin="32" yMin="-12" xMax="532" yMax="662">
      <contour>
        <pt x="130" y="199" on="1"/>
        <pt x="165" y="171" on="0"/>
        <pt x="246" y="136" on="0"/>
        <pt x="282" y="136" on="1"/>
        <pt x="321" y="136" on="0"/>
        <pt x="356" y="160" on="0"/>
        <pt x="356" y="182" on="1"/>
        <pt x="356" y="194" on="0"/>
        <pt x="344" y="210" on="0"/>
        <pt x="321" y="224" on="0"/>
        <pt x="289" y="237" on="0"/>
        <pt x="268" y="245" on="1"/>
        <pt x="187" y="279" on="1"/>
        <pt x="161" y="289" on="0"/>
        <pt x="113" y="322" on="0"/>
        <pt x="77" y="367" on="0"/>
        <pt x="56" y="425" on="0"/>
        <pt x="56" y="460" on="1"/>
        <pt x="56" y="502" on="0"/>
        <pt x="92" y="575" on="0"/>
        <pt x="156" y="630" on="0"/>
        <pt x="245" y="662" on="0"/>
        <pt x="298" y="662" on="1"/>
        <pt x="354" y="662" on="0"/>
        <pt x="469" y="620" on="0"/>
        <pt x="514" y="575" on="1"/>
        <pt x="428" y="467" on="1"/>
        <pt x="395" y="490" on="0"/>
        <pt x="334" y="514" on="0"/>
        <pt x="298" y="514" on="1"/>
        <pt x="266" y="514" on="0"/>
        <pt x="230" y="492" on="0"/>
        <pt x="230" y="470" on="1"/>
        <pt x="230" y="447" on="0"/>
        <pt x="281" y="422" on="0"/>
        <pt x="326" y="405" on="1"/>
        <pt x="405" y="374" on="1"/>
        <pt x="466" y="350" on="0"/>
        <pt x="532" y="264" on="0"/>
        <pt x="532" y="196" on="1"/>
        <pt x="532" y="155" on="0"/>
        <pt x="498" y="79" on="0"/>
        <pt x="433" y="22" on="0"/>
        <pt x="339" y="-12" on="0"/>
        <pt x="278" y="-12" on="1"/>
        <pt x="216" y="-12" on="0"/>
        <pt x="85" y="33" on="0"/>
        <pt x="32" y="81" on="1"/>
      </contour>
    </TTGlyph>
    <TTGlyph name="S.sc" xMin="32" yMin="-12" xMax="483" yMax="545">
      <contour>
        <pt x="113" y="176" on="1"/>
        <pt x="151" y="150" on="0"/>
        <pt x="228" y="119" on="0"/>
        <pt x="266" y="119" on="1"/>
        <pt x="291" y="119" on="0"/>
        <pt x="311" y="137" on="0"/>
        <pt x="311" y="151" on="1"/>
        <pt x="311" y="166" on="0"/>
        <pt x="279" y="187" on="0"/>
        <pt x="255" y="196" on="1"/>
        <pt x="202" y="215" on="1"/>
        <pt x="175" y="225" on="0"/>
        <pt x="124" y="252" on="0"/>
        <pt x="85" y="289" on="0"/>
        <pt x="61" y="339" on="0"/>
        <pt x="61" y="371" on="1"/>
        <pt x="61" y="410" on="0"/>
        <pt x="92" y="475" on="0"/>
        <pt x="149" y="520" on="0"/>
        <pt x="230" y="545" on="0"/>
        <pt x="279" y="545" on="1"/>
        <pt x="347" y="545" on="0"/>
        <pt x="445" y="501" on="0"/>
        <pt x="482" y="475" on="1"/>
        <pt x="399" y="366" on="1"/>
        <pt x="369" y="386" on="0"/>
        <pt x="307" y="412" on="0"/>
        <pt x="275" y="412" on="1"/>
        <pt x="232" y="412" on="0"/>
        <pt x="232" y="380" on="1"/>
        <pt x="232" y="367" on="0"/>
        <pt x="263" y="348" on="0"/>
        <pt x="289" y="340" on="1"/>
        <pt x="339" y="323" on="1"/>
        <pt x="368" y="313" on="0"/>
        <pt x="421" y="288" on="0"/>
        <pt x="460" y="252" on="0"/>
        <pt x="483" y="201" on="0"/>
        <pt x="483" y="165" on="1"/>
        <pt x="483" y="127" on="0"/>
        <pt x="453" y="63" on="0"/>
        <pt x="395" y="15" on="0"/>
        <pt x="312" y="-12" on="0"/>
        <pt x="258" y="-12" on="1"/>
        <pt x="195" y="-12" on="0"/>
        <pt x="74" y="29" on="0"/>
        <pt x="32" y="62" on="1"/>
      </contour>
    </TTGlyph>
    <TTGlyph name="S.sups" xMin="21" yMin="252" xMax="360" yMax="701">
      <contour>
        <pt x="89" y="396" on="1"/>
        <pt x="112" y="377" on="0"/>
        <pt x="171" y="355" on="0"/>
        <pt x="197" y="355" on="1"/>
        <pt x="223" y="355" on="0"/>
        <pt x="238" y="373" on="0"/>
        <pt x="238" y="384" on="1"/>
        <pt x="238" y="398" on="0"/>
        <pt x="207" y="413" on="0"/>
        <pt x="180" y="424" on="1"/>
        <pt x="126" y="447" on="1"/>
        <pt x="85" y="464" on="0"/>
        <pt x="37" y="519" on="0"/>
        <pt x="37" y="565" on="1"/>
        <pt x="37" y="593" on="0"/>
        <pt x="61" y="642" on="0"/>
        <pt x="105" y="679" on="0"/>
        <pt x="166" y="701" on="0"/>
        <pt x="203" y="701" on="1"/>
        <pt x="240" y="701" on="0"/>
        <pt x="318" y="671" on="0"/>
        <pt x="349" y="642" on="1"/>
        <pt x="289" y="568" on="1"/>
        <pt x="266" y="583" on="0"/>
        <pt x="224" y="601" on="0"/>
        <pt x="198" y="601" on="1"/>
        <pt x="177" y="601" on="0"/>
        <pt x="158" y="586" on="0"/>
        <pt x="158" y="574" on="1"/>
        <pt x="158" y="559" on="0"/>
        <pt x="193" y="543" on="0"/>
        <pt x="222" y="531" on="1"/>
        <pt x="276" y="508" on="1"/>
        <pt x="323" y="488" on="0"/>
        <pt x="360" y="439" on="0"/>
        <pt x="360" y="398" on="1"/>
        <pt x="360" y="368" on="0"/>
        <pt x="337" y="315" on="0"/>
        <pt x="294" y="275" on="0"/>
        <pt x="230" y="252" on="0"/>
        <pt x="189" y="252" on="1"/>
        <pt x="146" y="252" on="0"/>
        <pt x="57" y="282" on="0"/>
        <pt x="21" y="315" on="1"/>
      </contour>
    </TTGlyph>
    <TTGlyph name="Sacute" xMin="32" yMin="-12" xMax="532" yMax="824">
      <component glyphName="S" x="0" y="0" flags="0x204"/>
      <component glyphName="uni0301.cap" x="296" y="0" flags="0x4"/>
    </TTGlyph>
    <TTGlyph name="Sacute.sc" xMin="32" yMin="-12" xMax="483" yMax="717">
      <component glyphName="S.sc" x="0" y="0" flags="0x204"/>
      <component glyphName="uni0301.cap" x="278" y="-107" flags="0x4"/>
    </TTGlyph>
    <TTGlyph name="Scaron" xMin="32" yMin="-12" xMax="532" yMax="824">
      <component glyphName="S" x="0" y="0" flags="0x204"/>
      <component glyphName="uni030C.cap" x="296" y="0" flags="0x4"/>
    </TTGlyph>
    <TTGlyph name="Scaron.sc" xMin="32" yMin="-12" xMax="483" yMax="717">
      <component glyphName="S.sc" x="0" y="0" flags="0x204"/>
      <component glyphName="uni030C.cap" x="278" y="-107" flags="0x4"/>
    </TTGlyph>
    <TTGlyph name="Scircumflex" xMin="32" yMin="-12" xMax="532" yMax="824">
      <component glyphName="S" x="0" y="0" flags="0x204"/>
      <component glyphName="uni0302.cap" x="296" y="0" flags="0x4"/>
    </TTGlyph>
    <TTGlyph name="Scircumflex.sc" xMin="32" yMin="-12" xMax="483" yMax="717">
      <component glyphName="S.sc" x="0" y="0" flags="0x204"/>
      <component glyphName="uni0302.cap" x="278" y="-107" flags="0x4"/>
    </TTGlyph>
    <TTGlyph name="T" xMin="24" yMin="0" xMax="540" yMax="650">
      <contour>
        <pt x="196" y="506" on="1"/>
        <pt x="24" y="506" on="1"/>
        <pt x="24" y="650" on="1"/>
        <pt x="540" y="650" on="1"/>
        <pt x="540" y="506" on="1"/>
        <pt x="368" y="506" on="1"/>
        <pt x="368" y="0" on="1"/>
        <pt x="196" y="0" on="1"/>
      </contour>
    </TTGlyph>
    <TTGlyph name="T.sc" xMin="24" yMin="0" xMax="476" yMax="532">
      <contour>
        <pt x="164" y="392" on="1"/>
        <pt x="24" y="392" on="1"/>
        <pt x="24" y="532" on="1"/>
        <pt x="476" y="532" on="1"/>
        <pt x="476" y="392" on="1"/>
        <pt x="336" y="392" on="1"/>
        <pt x="336" y="0" on="1"/>
        <pt x="164" y="0" on="1"/>
      </contour>
    </TTGlyph>
    <TTGlyph name="T.sups" xMin="16" yMin="260" xMax="368" yMax="692">
      <contour>
        <pt x="133" y="593" on="1"/>
        <pt x="16" y="593" on="1"/>
        <pt x="16" y="692" on="1"/>
        <pt x="368" y="692" on="1"/>
        <pt x="368" y="593" on="1"/>
        <pt x="253" y="593" on="1"/>
        <pt x="253" y="260" on="1"/>
        <pt x="133" y="260" on="1"/>
      </contour>
    </TTGlyph>
    <TTGlyph name="Tcaron" xMin="24" yMin="0" xMax="540" yMax="824">
      <component glyphName="T" x="0" y="0" flags="0x204"/>
      <component glyphName="uni030C.cap" x="282" y="0" flags="0x4"/>
    </TTGlyph>
    <TTGlyph name="Tcaron.sc" xMin="24" yMin="0" xMax="476" yMax="717">
      <component glyphName="T.sc" x="0" y="0" flags="0x204"/>
      <component glyphName="uni030C.cap" x="250" y="-107" flags="0x4"/>
    </TTGlyph>
    <TTGlyph name="Thorn" xMin="72" yMin="0" xMax="584" yMax="650">
      <contour>
        <pt x="72" y="650" on="1"/>
        <pt x="244" y="650" on="1"/>
        <pt x="244" y="556" on="1"/>
        <pt x="324" y="556" on="1"/>
        <pt x="376" y="556" on="0"/>
        <pt x="471" y="535" on="0"/>
        <pt x="542" y="484" on="0"/>
        <pt x="584" y="401" on="0"/>
        <pt x="584" y="340" on="1"/>
        <pt x="584" y="280" on="0"/>
        <pt x="541" y="194" on="0"/>
        <pt x="469" y="139" on="0"/>
        <pt x="375" y="112" on="0"/>
        <pt x="324" y="112" on="1"/>
        <pt x="244" y="112" on="1"/>
        <pt x="244" y="0" on="1"/>
        <pt x="72" y="0" on="1"/>
      </contour>
      <contour>
        <pt x="316" y="248" on="1"/>
        <pt x="367" y="248" on="0"/>
        <pt x="416" y="296" on="0"/>
        <pt x="416" y="340" on="1"/>
        <pt x="416" y="384" on="0"/>
        <pt x="364" y="420" on="0"/>
        <pt x="316" y="420" on="1"/>
        <pt x="244" y="420" on="1"/>
        <pt x="244" y="248" on="1"/>
      </contour>
    </TTGlyph>
    <TTGlyph name="Thorn.sc" xMin="72" yMin="0" xMax="530" yMax="532">
      <contour>
        <pt x="72" y="532" on="1"/>
        <pt x="244" y="532" on="1"/>
        <pt x="244" y="455" on="1"/>
        <pt x="301" y="455" on="1"/>
        <pt x="346" y="455" on="0"/>
        <pt x="428" y="438" on="0"/>
        <pt x="492" y="397" on="0"/>
        <pt x="530" y="328" on="0"/>
        <pt x="530" y="275" on="1"/>
        <pt x="530" y="224" on="0"/>
        <pt x="491" y="151" on="0"/>
        <pt x="426" y="105" on="0"/>
        <pt x="344" y="84" on="0"/>
        <pt x="301" y="84" on="1"/>
        <pt x="244" y="84" on="1"/>
        <pt x="244" y="0" on="1"/>
        <pt x="72" y="0" on="1"/>
      </contour>
      <contour>
        <pt x="295" y="207" on="1"/>
        <pt x="330" y="207" on="0"/>
        <pt x="364" y="243" on="0"/>
        <pt x="364" y="275" on="1"/>
        <pt x="364" y="307" on="0"/>
        <pt x="327" y="332" on="0"/>
        <pt x="295" y="332" on="1"/>
        <pt x="244" y="332" on="1"/>
        <pt x="244" y="207" on="1"/>
      </contour>
    </TTGlyph>
    <TTGlyph name="U" xMin="68" yMin="-12" xMax="604" yMax="650">
      <contour>
        <pt x="68" y="650" on="1"/>
        <pt x="240" y="650" on="1"/>
        <pt x="240" y="294" on="1"/>
        <pt x="240" y="207" on="0"/>
        <pt x="287" y="136" on="0"/>
        <pt x="338" y="136" on="1"/>
        <pt x="389" y="136" on="0"/>
        <pt x="438" y="207" on="0"/>
        <pt x="438" y="294" on="1"/>
        <pt x="438" y="650" on="1"/>
        <pt x="604" y="650" on="1"/>
        <pt x="604" y="314" on="1"/>
        <pt x="604" y="147" on="0"/>
        <pt x="474" y="-12" on="0"/>
        <pt x="338" y="-12" on="1"/>
        <pt x="201" y="-12" on="0"/>
        <pt x="68" y="147" on="0"/>
        <pt x="68" y="314" on="1"/>
      </contour>
    </TTGlyph>
    <TTGlyph name="U.sc" xMin="68" yMin="-12" xMax="548" yMax="532">
      <contour>
        <pt x="68" y="532" on="1"/>
        <pt x="238" y="532" on="1"/>
        <pt x="238" y="244" on="1"/>
        <pt x="238" y="181" on="0"/>
        <pt x="271" y="128" on="0"/>
        <pt x="312" y="128" on="1"/>
        <pt x="354" y="128" on="0"/>
        <pt x="384" y="181" on="0"/>
        <pt x="384" y="244" on="1"/>
        <pt x="384" y="532" on="1"/>
        <pt x="548" y="532" on="1"/>
        <pt x="548" y="256" on="1"/>
        <pt x="548" y="116" on="0"/>
        <pt x="434" y="-12" on="0"/>
        <pt x="310" y="-12" on="1"/>
        <pt x="187" y="-12" on="0"/>
        <pt x="68" y="116" on="0"/>
        <pt x="68" y="256" on="1"/>
      </contour>
    </TTGlyph>
    <TTGlyph name="U.sups" xMin="45" yMin="252" xMax="410" yMax="692">
      <contour>
        <pt x="45" y="692" on="1"/>
        <pt x="165" y="692" on="1"/>
        <pt x="165" y="457" on="1"/>
        <pt x="165" y="400" on="0"/>
        <pt x="195" y="354" on="0"/>
        <pt x="230" y="354" on="1"/>
        <pt x="263" y="354" on="0"/>
        <pt x="294" y="400" on="0"/>
        <pt x="294" y="457" on="1"/>
        <pt x="294" y="692" on="1"/>
        <pt x="410" y="692" on="1"/>
        <pt x="410" y="472" on="1"/>
        <pt x="410" y="359" on="0"/>
        <pt x="324" y="252" on="0"/>
        <pt x="230" y="252" on="1"/>
        <pt x="131" y="252" on="0"/>
        <pt x="45" y="359" on="0"/>
        <pt x="45" y="472" on="1"/>
      </contour>
    </TTGlyph>
    <TTGlyph name="Uacute" xMin="68" yMin="-12" xMax="604" yMax="824">
      <component glyphName="U" x="0" y="0" flags="0x204"/>
      <component glyphName="uni0301.cap" x="336" y="0" flags="0x4"/>
    </TTGlyph>
    <TTGlyph name="Uacute.sc" xMin="68" yMin="-12" xMax="548" yMax="717">
      <component glyphName="U.sc" x="0" y="0" flags="0x204"/>
      <component glyphName="uni0301.cap" x="308" y="-107" flags="0x4"/>
    </TTGlyph>
    <TTGlyph name="Ubreve" xMin="68" yMin="-12" xMax="604" yMax="824">
      <component glyphName="U" x="0" y="0" flags="0x204"/>
      <component glyphName="uni0306.cap" x="336" y="0" flags="0x4"/>
    </TTGlyph>
    <TTGlyph name="Ubreve.sc" xMin="68" yMin="-12" xMax="548" yMax="717">
      <component glyphName="U.sc" x="0" y="0" flags="0x204"/>
      <component glyphName="uni0306.cap" x="308" y="-107" flags="0x4"/>
    </TTGlyph>
    <TTGlyph name="Ucircumflex" xMin="68" yMin="-12" xMax="604" yMax="824">
      <component glyphName="U" x="0" y="0" flags="0x204"/>
      <component glyphName="uni0302.cap" x="336" y="0" flags="0x4"/>
    </TTGlyph>
    <TTGlyph name="Ucircumflex.sc" xMin="68" yMin="-12" xMax="548" yMax="717">
      <component glyphName="U.sc" x="0" y="0" flags="0x204"/>
      <component glyphName="uni0302.cap" x="308" y="-107" flags="0x4"/>
    </TTGlyph>
    <TTGlyph name="Udieresis" xMin="68" yMin="-12" xMax="604" yMax="850">
      <component glyphName="U" x="0" y="0" flags="0x204"/>
      <component glyphName="uni0308.cap" x="336" y="0" flags="0x4"/>
    </TTGlyph>
    <TTGlyph name="Udieresis.sc" xMin="68" yMin="-12" xMax="548" yMax="743">
      <component glyphName="U.sc" x="0" y="0" flags="0x204"/>
      <component glyphName="uni0308.cap" x="308" y="-107" flags="0x4"/>
    </TTGlyph>
    <TTGlyph name="Ugrave" xMin="68" yMin="-12" xMax="604" yMax="824">
      <component glyphName="U" x="0" y="0" flags="0x204"/>
      <component glyphName="uni0300.cap" x="336" y="0" flags="0x4"/>
    </TTGlyph>
    <TTGlyph name="Ugrave.sc" xMin="68" yMin="-12" xMax="548" yMax="717">
      <component glyphName="U.sc" x="0" y="0" flags="0x204"/>
      <component glyphName="uni0300.cap" x="308" y="-107" flags="0x4"/>
    </TTGlyph>
    <TTGlyph name="Uhorn" xMin="68" yMin="-12" xMax="734" yMax="808">
      <contour>
        <pt x="702" y="808" on="1"/>
        <pt x="714" y="794" on="0"/>
        <pt x="734" y="749" on="0"/>
        <pt x="734" y="722" on="1"/>
        <pt x="734" y="693" on="0"/>
        <pt x="714" y="648" on="0"/>
        <pt x="679" y="615" on="0"/>
        <pt x="632" y="594" on="0"/>
        <pt x="604" y="589" on="1"/>
        <pt x="604" y="314" on="1"/>
        <pt x="604" y="147" on="0"/>
        <pt x="474" y="-12" on="0"/>
        <pt x="338" y="-12" on="1"/>
        <pt x="201" y="-12" on="0"/>
        <pt x="68" y="147" on="0"/>
        <pt x="68" y="314" on="1"/>
        <pt x="68" y="650" on="1"/>
        <pt x="240" y="650" on="1"/>
        <pt x="240" y="294" on="1"/>
        <pt x="240" y="207" on="0"/>
        <pt x="287" y="136" on="0"/>
        <pt x="338" y="136" on="1"/>
        <pt x="389" y="136" on="0"/>
        <pt x="438" y="207" on="0"/>
        <pt x="438" y="294" on="1"/>
        <pt x="438" y="650" on="1"/>
        <pt x="522" y="650" on="1"/>
        <pt x="535" y="650" on="0"/>
        <pt x="563" y="654" on="0"/>
        <pt x="587" y="666" on="0"/>
        <pt x="602" y="690" on="0"/>
        <pt x="602" y="710" on="1"/>
        <pt x="602" y="725" on="0"/>
        <pt x="591" y="750" on="0"/>
        <pt x="586" y="758" on="1"/>
      </contour>
    </TTGlyph>
    <TTGlyph name="Uhorn.sc" xMin="68" yMin="-12" xMax="678" yMax="690">
      <contour>
        <pt x="646" y="690" on="1"/>
        <pt x="658" y="676" on="0"/>
        <pt x="678" y="631" on="0"/>
        <pt x="678" y="604" on="1"/>
        <pt x="678" y="575" on="0"/>
        <pt x="658" y="530" on="0"/>
        <pt x="623" y="497" on="0"/>
        <pt x="576" y="476" on="0"/>
        <pt x="548" y="471" on="1"/>
        <pt x="548" y="256" on="1"/>
        <pt x="548" y="116" on="0"/>
        <pt x="434" y="-12" on="0"/>
        <pt x="310" y="-12" on="1"/>
        <pt x="187" y="-12" on="0"/>
        <pt x="68" y="116" on="0"/>
        <pt x="68" y="256" on="1"/>
        <pt x="68" y="532" on="1"/>
        <pt x="238" y="532" on="1"/>
        <pt x="238" y="244" on="1"/>
        <pt x="238" y="181" on="0"/>
        <pt x="271" y="128" on="0"/>
        <pt x="312" y="128" on="1"/>
        <pt x="354" y="128" on="0"/>
        <pt x="384" y="181" on="0"/>
        <pt x="384" y="244" on="1"/>
        <pt x="384" y="532" on="1"/>
        <pt x="466" y="532" on="1"/>
        <pt x="479" y="532" on="0"/>
        <pt x="507" y="536" on="0"/>
        <pt x="531" y="548" on="0"/>
        <pt x="546" y="572" on="0"/>
        <pt x="546" y="592" on="1"/>
        <pt x="546" y="607" on="0"/>
        <pt x="535" y="632" on="0"/>
        <pt x="530" y="640" on="1"/>
      </contour>
    </TTGlyph>
    <TTGlyph name="Uhungarumlaut" xMin="68" yMin="-12" xMax="604" yMax="824">
      <component glyphName="U" x="0" y="0" flags="0x204"/>
      <component glyphName="uni030B.cap" x="336" y="0" flags="0x4"/>
    </TTGlyph>
    <TTGlyph name="Uhungarumlaut.sc" xMin="68" yMin="-12" xMax="554" yMax="717">
      <component glyphName="U.sc" x="0" y="0" flags="0x204"/>
      <component glyphName="uni030B.cap" x="308" y="-107" flags="0x4"/>
    </TTGlyph>
    <TTGlyph name="Umacron" xMin="68" yMin="-12" xMax="604" yMax="824">
      <component glyphName="U" x="0" y="0" flags="0x204"/>
      <component glyphName="uni0304.cap" x="336" y="0" flags="0x4"/>
    </TTGlyph>
    <TTGlyph name="Umacron.sc" xMin="68" yMin="-12" xMax="548" yMax="717">
      <component glyphName="U.sc" x="0" y="0" flags="0x204"/>
      <component glyphName="uni0304.cap" x="308" y="-107" flags="0x4"/>
    </TTGlyph>
    <TTGlyph name="Uogonek" xMin="68" yMin="-228" xMax="604" yMax="650">
      <contour>
        <pt x="68" y="650" on="1"/>
        <pt x="240" y="650" on="1"/>
        <pt x="240" y="294" on="1"/>
        <pt x="240" y="207" on="0"/>
        <pt x="287" y="136" on="0"/>
        <pt x="338" y="136" on="1"/>
        <pt x="389" y="136" on="0"/>
        <pt x="438" y="207" on="0"/>
        <pt x="438" y="294" on="1"/>
        <pt x="438" y="650" on="1"/>
        <pt x="604" y="650" on="1"/>
        <pt x="604" y="314" on="1"/>
        <pt x="604" y="243" on="0"/>
        <pt x="585" y="143" on="0"/>
        <pt x="544" y="69" on="0"/>
        <pt x="478" y="17" on="0"/>
        <pt x="430" y="-4" on="1"/>
        <pt x="393" y="-21" on="0"/>
        <pt x="362" y="-64" on="0"/>
        <pt x="362" y="-84" on="1"/>
        <pt x="362" y="-102" on="0"/>
        <pt x="387" y="-118" on="0"/>
        <pt x="402" y="-118" on="1"/>
        <pt x="411" y="-118" on="0"/>
        <pt x="429" y="-109" on="0"/>
        <pt x="436" y="-104" on="1"/>
        <pt x="474" y="-190" on="1"/>
        <pt x="453" y="-207" on="0"/>
        <pt x="389" y="-228" on="0"/>
        <pt x="360" y="-228" on="1"/>
        <pt x="309" y="-228" on="0"/>
        <pt x="238" y="-177" on="0"/>
        <pt x="238" y="-130" on="1"/>
        <pt x="238" y="-106" on="0"/>
        <pt x="254" y="-66" on="0"/>
        <pt x="275" y="-35" on="0"/>
        <pt x="297" y="-15" on="0"/>
        <pt x="302" y="-10" on="1"/>
        <pt x="183" y="-1" on="0"/>
        <pt x="68" y="159" on="0"/>
        <pt x="68" y="314" on="1"/>
      </contour>
    </TTGlyph>
    <TTGlyph name="Uogonek.sc" xMin="68" yMin="-228" xMax="548" yMax="532">
      <contour>
        <pt x="548" y="256" on="1"/>
        <pt x="548" y="199" on="0"/>
        <pt x="532" y="116" on="0"/>
        <pt x="497" y="56" on="0"/>
        <pt x="442" y="13" on="0"/>
        <pt x="402" y="-4" on="1"/>
        <pt x="365" y="-21" on="0"/>
        <pt x="334" y="-64" on="0"/>
        <pt x="334" y="-84" on="1"/>
        <pt x="334" y="-102" on="0"/>
        <pt x="359" y="-118" on="0"/>
        <pt x="374" y="-118" on="1"/>
        <pt x="383" y="-118" on="0"/>
        <pt x="401" y="-109" on="0"/>
        <pt x="408" y="-104" on="1"/>
        <pt x="446" y="-190" on="1"/>
        <pt x="425" y="-207" on="0"/>
        <pt x="361" y="-228" on="0"/>
        <pt x="332" y="-228" on="1"/>
        <pt x="281" y="-228" on="0"/>
        <pt x="210" y="-177" on="0"/>
        <pt x="210" y="-130" on="1"/>
        <pt x="210" y="-106" on="0"/>
        <pt x="226" y="-66" on="0"/>
        <pt x="247" y="-35" on="0"/>
        <pt x="269" y="-15" on="0"/>
        <pt x="274" y="-10" on="1"/>
        <pt x="171" y="-1" on="0"/>
        <pt x="68" y="125" on="0"/>
        <pt x="68" y="256" on="1"/>
        <pt x="68" y="532" on="1"/>
        <pt x="238" y="532" on="1"/>
        <pt x="238" y="244" on="1"/>
        <pt x="238" y="181" on="0"/>
        <pt x="271" y="128" on="0"/>
        <pt x="312" y="128" on="1"/>
        <pt x="354" y="128" on="0"/>
        <pt x="384" y="181" on="0"/>
        <pt x="384" y="244" on="1"/>
        <pt x="384" y="532" on="1"/>
        <pt x="548" y="532" on="1"/>
      </contour>
    </TTGlyph>
    <TTGlyph name="Uring" xMin="68" yMin="-12" xMax="604" yMax="900">
      <component glyphName="U" x="0" y="0" flags="0x204"/>
      <component glyphName="uni030A.cap" x="336" y="0" flags="0x4"/>
    </TTGlyph>
    <TTGlyph name="Uring.sc" xMin="68" yMin="-12" xMax="548" yMax="793">
      <component glyphName="U.sc" x="0" y="0" flags="0x204"/>
      <component glyphName="uni030A.cap" x="308" y="-107" flags="0x4"/>
    </TTGlyph>
    <TTGlyph name="Utilde" xMin="68" yMin="-12" xMax="604" yMax="846">
      <component glyphName="U" x="0" y="0" flags="0x204"/>
      <component glyphName="uni0303.cap" x="336" y="0" flags="0x4"/>
    </TTGlyph>
    <TTGlyph name="Utilde.sc" xMin="68" yMin="-12" xMax="548" yMax="739">
      <component glyphName="U.sc" x="0" y="0" flags="0x204"/>
      <component glyphName="uni0303.cap" x="308" y="-107" flags="0x4"/>
    </TTGlyph>
    <TTGlyph name="V" xMin="-10" yMin="0" xMax="582" yMax="650">
      <contour>
        <pt x="-10" y="650" on="1"/>
        <pt x="172" y="650" on="1"/>
        <pt x="240" y="366" on="1"/>
        <pt x="254" y="314" on="0"/>
        <pt x="274" y="213" on="0"/>
        <pt x="288" y="160" on="1"/>
        <pt x="292" y="160" on="1"/>
        <pt x="306" y="213" on="0"/>
        <pt x="327" y="314" on="0"/>
        <pt x="340" y="366" on="1"/>
        <pt x="406" y="650" on="1"/>
        <pt x="582" y="650" on="1"/>
        <pt x="390" y="0" on="1"/>
        <pt x="182" y="0" on="1"/>
      </contour>
    </TTGlyph>
    <TTGlyph name="V.sc" xMin="-10" yMin="0" xMax="518" yMax="532">
      <contour>
        <pt x="-10" y="532" on="1"/>
        <pt x="168" y="532" on="1"/>
        <pt x="218" y="317" on="1"/>
        <pt x="228" y="275" on="0"/>
        <pt x="245" y="194" on="0"/>
        <pt x="256" y="150" on="1"/>
        <pt x="260" y="150" on="1"/>
        <pt x="271" y="193" on="0"/>
        <pt x="289" y="275" on="0"/>
        <pt x="298" y="317" on="1"/>
        <pt x="346" y="532" on="1"/>
        <pt x="518" y="532" on="1"/>
        <pt x="356" y="0" on="1"/>
        <pt x="150" y="0" on="1"/>
      </contour>
    </TTGlyph>
    <TTGlyph name="V.sups" xMin="-7" yMin="260" xMax="397" yMax="692">
      <contour>
        <pt x="-7" y="692" on="1"/>
        <pt x="120" y="692" on="1"/>
        <pt x="165" y="507" on="1"/>
        <pt x="173" y="473" on="0"/>
        <pt x="188" y="406" on="0"/>
        <pt x="197" y="370" on="1"/>
        <pt x="199" y="370" on="1"/>
        <pt x="208" y="406" on="0"/>
        <pt x="223" y="473" on="0"/>
        <pt x="231" y="507" on="1"/>
        <pt x="275" y="692" on="1"/>
        <pt x="397" y="692" on="1"/>
        <pt x="268" y="260" on="1"/>
        <pt x="123" y="260" on="1"/>
      </contour>
    </TTGlyph>
    <TTGlyph name="W" xMin="10" yMin="0" xMax="814" yMax="650">
      <contour>
        <pt x="10" y="650" on="1"/>
        <pt x="186" y="650" on="1"/>
        <pt x="222" y="366" on="1"/>
        <pt x="227" y="315" on="0"/>
        <pt x="239" y="213" on="0"/>
        <pt x="244" y="162" on="1"/>
        <pt x="248" y="162" on="1"/>
        <pt x="257" y="213" on="0"/>
        <pt x="275" y="315" on="0"/>
        <pt x="284" y="366" on="1"/>
        <pt x="346" y="650" on="1"/>
        <pt x="490" y="650" on="1"/>
        <pt x="552" y="366" on="1"/>
        <pt x="561" y="317" on="0"/>
        <pt x="579" y="214" on="0"/>
        <pt x="588" y="162" on="1"/>
        <pt x="592" y="162" on="1"/>
        <pt x="597" y="214" on="0"/>
        <pt x="609" y="316" on="0"/>
        <pt x="614" y="366" on="1"/>
        <pt x="650" y="650" on="1"/>
        <pt x="814" y="650" on="1"/>
        <pt x="706" y="0" on="1"/>
        <pt x="488" y="0" on="1"/>
        <pt x="438" y="258" on="1"/>
        <pt x="430" y="296" on="0"/>
        <pt x="419" y="374" on="0"/>
        <pt x="414" y="410" on="1"/>
        <pt x="410" y="410" on="1"/>
        <pt x="405" y="374" on="0"/>
        <pt x="394" y="296" on="0"/>
        <pt x="386" y="258" on="1"/>
        <pt x="338" y="0" on="1"/>
        <pt x="124" y="0" on="1"/>
      </contour>
    </TTGlyph>
    <TTGlyph name="W.sc" xMin="10" yMin="0" xMax="720" yMax="531">
      <contour>
        <pt x="10" y="531" on="1"/>
        <pt x="178" y="531" on="1"/>
        <pt x="204" y="316" on="1"/>
        <pt x="208" y="274" on="0"/>
        <pt x="215" y="193" on="0"/>
        <pt x="220" y="151" on="1"/>
        <pt x="224" y="151" on="1"/>
        <pt x="232" y="193" on="0"/>
        <pt x="248" y="275" on="0"/>
        <pt x="255" y="316" on="1"/>
        <pt x="303" y="531" on="1"/>
        <pt x="440" y="531" on="1"/>
        <pt x="486" y="316" on="1"/>
        <pt x="494" y="277" on="0"/>
        <pt x="510" y="193" on="0"/>
        <pt x="518" y="151" on="1"/>
        <pt x="522" y="151" on="1"/>
        <pt x="525" y="193" on="0"/>
        <pt x="534" y="276" on="0"/>
        <pt x="538" y="316" on="1"/>
        <pt x="564" y="531" on="1"/>
        <pt x="720" y="531" on="1"/>
        <pt x="630" y="0" on="1"/>
        <pt x="422" y="0" on="1"/>
        <pt x="386" y="177" on="1"/>
        <pt x="380" y="208" on="0"/>
        <pt x="371" y="273" on="0"/>
        <pt x="368" y="302" on="1"/>
        <pt x="364" y="302" on="1"/>
        <pt x="359" y="273" on="0"/>
        <pt x="351" y="208" on="0"/>
        <pt x="344" y="177" on="1"/>
        <pt x="310" y="0" on="1"/>
        <pt x="106" y="0" on="1"/>
      </contour>
    </TTGlyph>
    <TTGlyph name="W.sups" xMin="6" yMin="260" xMax="552" yMax="692">
      <contour>
        <pt x="6" y="692" on="1"/>
        <pt x="129" y="692" on="1"/>
        <pt x="151" y="507" on="1"/>
        <pt x="155" y="473" on="0"/>
        <pt x="162" y="406" on="0"/>
        <pt x="167" y="371" on="1"/>
        <pt x="170" y="371" on="1"/>
        <pt x="176" y="406" on="0"/>
        <pt x="186" y="474" on="0"/>
        <pt x="193" y="507" on="1"/>
        <pt x="233" y="692" on="1"/>
        <pt x="333" y="692" on="1"/>
        <pt x="375" y="507" on="1"/>
        <pt x="381" y="475" on="0"/>
        <pt x="393" y="406" on="0"/>
        <pt x="399" y="371" on="1"/>
        <pt x="401" y="371" on="1"/>
        <pt x="405" y="406" on="0"/>
        <pt x="411" y="475" on="0"/>
        <pt x="415" y="507" on="1"/>
        <pt x="438" y="692" on="1"/>
        <pt x="552" y="692" on="1"/>
        <pt x="481" y="260" on="1"/>
        <pt x="329" y="260" on="1"/>
        <pt x="296" y="427" on="1"/>
        <pt x="291" y="451" on="0"/>
        <pt x="283" y="503" on="0"/>
        <pt x="280" y="526" on="1"/>
        <pt x="278" y="526" on="1"/>
        <pt x="274" y="503" on="0"/>
        <pt x="267" y="451" on="0"/>
        <pt x="262" y="427" on="1"/>
        <pt x="233" y="260" on="1"/>
        <pt x="83" y="260" on="1"/>
      </contour>
    </TTGlyph>
    <TTGlyph name="Wacute" xMin="10" yMin="0" xMax="814" yMax="824">
      <component glyphName="W" x="0" y="0" flags="0x204"/>
      <component glyphName="uni0301.cap" x="412" y="0" flags="0x4"/>
    </TTGlyph>
    <TTGlyph name="Wacute.sc" xMin="10" yMin="0" xMax="720" yMax="717">
      <component glyphName="W.sc" x="0" y="0" flags="0x204"/>
      <component glyphName="uni0301.cap" x="366" y="-107" flags="0x4"/>
    </TTGlyph>
    <TTGlyph name="Wcircumflex" xMin="10" yMin="0" xMax="814" yMax="824">
      <component glyphName="W" x="0" y="0" flags="0x204"/>
      <component glyphName="uni0302.cap" x="412" y="0" flags="0x4"/>
    </TTGlyph>
    <TTGlyph name="Wcircumflex.sc" xMin="10" yMin="0" xMax="720" yMax="717">
      <component glyphName="W.sc" x="0" y="0" flags="0x204"/>
      <component glyphName="uni0302.cap" x="366" y="-107" flags="0x4"/>
    </TTGlyph>
    <TTGlyph name="Wdieresis" xMin="10" yMin="0" xMax="814" yMax="850">
      <component glyphName="W" x="0" y="0" flags="0x204"/>
      <component glyphName="uni0308.cap" x="412" y="0" flags="0x4"/>
    </TTGlyph>
    <TTGlyph name="Wdieresis.sc" xMin="10" yMin="0" xMax="720" yMax="743">
      <component glyphName="W.sc" x="0" y="0" flags="0x204"/>
      <component glyphName="uni0308.cap" x="366" y="-107" flags="0x4"/>
    </TTGlyph>
    <TTGlyph name="Wgrave" xMin="10" yMin="0" xMax="814" yMax="824">
      <component glyphName="W" x="0" y="0" flags="0x204"/>
      <component glyphName="uni0300.cap" x="412" y="0" flags="0x4"/>
    </TTGlyph>
    <TTGlyph name="Wgrave.sc" xMin="10" yMin="0" xMax="720" yMax="717">
      <component glyphName="W.sc" x="0" y="0" flags="0x204"/>
      <component glyphName="uni0300.cap" x="366" y="-107" flags="0x4"/>
    </TTGlyph>
    <TTGlyph name="X" xMin="10" yMin="0" xMax="578" yMax="650">
      <contour>
        <pt x="186" y="334" on="1"/>
        <pt x="20" y="650" on="1"/>
        <pt x="212" y="650" on="1"/>
        <pt x="256" y="544" on="1"/>
        <pt x="267" y="521" on="0"/>
        <pt x="288" y="468" on="0"/>
        <pt x="302" y="436" on="1"/>
        <pt x="306" y="436" on="1"/>
        <pt x="317" y="468" on="0"/>
        <pt x="337" y="521" on="0"/>
        <pt x="346" y="544" on="1"/>
        <pt x="384" y="650" on="1"/>
        <pt x="568" y="650" on="1"/>
        <pt x="402" y="326" on="1"/>
        <pt x="578" y="0" on="1"/>
        <pt x="386" y="0" on="1"/>
        <pt x="334" y="116" on="1"/>
        <pt x="322" y="142" on="0"/>
        <pt x="300" y="194" on="0"/>
        <pt x="288" y="224" on="1"/>
        <pt x="284" y="224" on="1"/>
        <pt x="273" y="194" on="0"/>
        <pt x="253" y="142" on="0"/>
        <pt x="242" y="116" on="1"/>
        <pt x="194" y="0" on="1"/>
        <pt x="10" y="0" on="1"/>
      </contour>
    </TTGlyph>
    <TTGlyph name="X.sc" xMin="10" yMin="0" xMax="520" yMax="532">
      <contour>
        <pt x="158" y="273" on="1"/>
        <pt x="18" y="532" on="1"/>
        <pt x="207" y="532" on="1"/>
        <pt x="234" y="464" on="1"/>
        <pt x="242" y="445" on="0"/>
        <pt x="261" y="399" on="0"/>
        <pt x="272" y="372" on="1"/>
        <pt x="276" y="372" on="1"/>
        <pt x="285" y="399" on="0"/>
        <pt x="303" y="445" on="0"/>
        <pt x="309" y="464" on="1"/>
        <pt x="330" y="532" on="1"/>
        <pt x="512" y="532" on="1"/>
        <pt x="371" y="266" on="1"/>
        <pt x="520" y="0" on="1"/>
        <pt x="331" y="0" on="1"/>
        <pt x="297" y="76" on="1"/>
        <pt x="287" y="98" on="0"/>
        <pt x="268" y="142" on="0"/>
        <pt x="259" y="167" on="1"/>
        <pt x="255" y="167" on="1"/>
        <pt x="247" y="142" on="0"/>
        <pt x="230" y="98" on="0"/>
        <pt x="222" y="76" on="1"/>
        <pt x="192" y="0" on="1"/>
        <pt x="10" y="0" on="1"/>
      </contour>
    </TTGlyph>
    <TTGlyph name="X.sups" xMin="7" yMin="260" xMax="394" yMax="692">
      <contour>
        <pt x="126" y="482" on="1"/>
        <pt x="14" y="692" on="1"/>
        <pt x="148" y="692" on="1"/>
        <pt x="175" y="626" on="1"/>
        <pt x="181" y="611" on="0"/>
        <pt x="198" y="575" on="0"/>
        <pt x="207" y="552" on="1"/>
        <pt x="210" y="552" on="1"/>
        <pt x="218" y="575" on="0"/>
        <pt x="231" y="611" on="0"/>
        <pt x="236" y="626" on="1"/>
        <pt x="259" y="692" on="1"/>
        <pt x="388" y="692" on="1"/>
        <pt x="277" y="477" on="1"/>
        <pt x="394" y="260" on="1"/>
        <pt x="260" y="260" on="1"/>
        <pt x="228" y="335" on="1"/>
        <pt x="220" y="352" on="0"/>
        <pt x="205" y="387" on="0"/>
        <pt x="197" y="407" on="1"/>
        <pt x="195" y="407" on="1"/>
        <pt x="187" y="387" on="0"/>
        <pt x="172" y="352" on="0"/>
        <pt x="165" y="335" on="1"/>
        <pt x="135" y="260" on="1"/>
        <pt x="7" y="260" on="1"/>
      </contour>
    </TTGlyph>
    <TTGlyph name="Y" xMin="-10" yMin="0" xMax="554" yMax="650">
      <contour>
        <pt x="186" y="224" on="1"/>
        <pt x="-10" y="650" on="1"/>
        <pt x="174" y="650" on="1"/>
        <pt x="222" y="514" on="1"/>
        <pt x="234" y="477" on="0"/>
        <pt x="258" y="407" on="0"/>
        <pt x="271" y="369" on="1"/>
        <pt x="275" y="369" on="1"/>
        <pt x="288" y="407" on="0"/>
        <pt x="313" y="477" on="0"/>
        <pt x="326" y="514" on="1"/>
        <pt x="374" y="650" on="1"/>
        <pt x="554" y="650" on="1"/>
        <pt x="358" y="224" on="1"/>
        <pt x="358" y="0" on="1"/>
        <pt x="186" y="0" on="1"/>
      </contour>
    </TTGlyph>
    <TTGlyph name="Y.sc" xMin="-10" yMin="0" xMax="497" yMax="532">
      <contour>
        <pt x="158" y="175" on="1"/>
        <pt x="-10" y="532" on="1"/>
        <pt x="171" y="532" on="1"/>
        <pt x="204" y="436" on="1"/>
        <pt x="213" y="405" on="0"/>
        <pt x="232" y="348" on="0"/>
        <pt x="242" y="316" on="1"/>
        <pt x="246" y="316" on="1"/>
        <pt x="256" y="348" on="0"/>
        <pt x="276" y="405" on="0"/>
        <pt x="287" y="436" on="1"/>
        <pt x="319" y="532" on="1"/>
        <pt x="497" y="532" on="1"/>
        <pt x="330" y="175" on="1"/>
        <pt x="330" y="0" on="1"/>
        <pt x="158" y="0" on="1"/>
      </contour>
    </TTGlyph>
    <TTGlyph name="Y.sups" xMin="-7" yMin="260" xMax="377" yMax="692">
      <contour>
        <pt x="126" y="408" on="1"/>
        <pt x="-7" y="692" on="1"/>
        <pt x="121" y="692" on="1"/>
        <pt x="151" y="606" on="1"/>
        <pt x="161" y="581" on="0"/>
        <pt x="177" y="534" on="0"/>
        <pt x="186" y="508" on="1"/>
        <pt x="188" y="508" on="1"/>
        <pt x="196" y="534" on="0"/>
        <pt x="213" y="581" on="0"/>
        <pt x="222" y="606" on="1"/>
        <pt x="252" y="692" on="1"/>
        <pt x="377" y="692" on="1"/>
        <pt x="246" y="408" on="1"/>
        <pt x="246" y="260" on="1"/>
        <pt x="126" y="260" on="1"/>
      </contour>
    </TTGlyph>
    <TTGlyph name="Yacute" xMin="-10" yMin="0" xMax="554" yMax="824">
      <component glyphName="Y" x="0" y="0" flags="0x204"/>
      <component glyphName="uni0301.cap" x="272" y="0" flags="0x4"/>
    </TTGlyph>
    <TTGlyph name="Yacute.sc" xMin="-10" yMin="0" xMax="497" yMax="717">
      <component glyphName="Y.sc" x="0" y="0" flags="0x204"/>
      <component glyphName="uni0301.cap" x="240" y="-107" flags="0x4"/>
    </TTGlyph>
    <TTGlyph name="Ycircumflex" xMin="-10" yMin="0" xMax="554" yMax="824">
      <component glyphName="Y" x="0" y="0" flags="0x204"/>
      <component glyphName="uni0302.cap" x="272" y="0" flags="0x4"/>
    </TTGlyph>
    <TTGlyph name="Ycircumflex.sc" xMin="-10" yMin="0" xMax="497" yMax="717">
      <component glyphName="Y.sc" x="0" y="0" flags="0x204"/>
      <component glyphName="uni0302.cap" x="240" y="-107" flags="0x4"/>
    </TTGlyph>
    <TTGlyph name="Ydieresis" xMin="-10" yMin="0" xMax="554" yMax="850">
      <component glyphName="Y" x="0" y="0" flags="0x204"/>
      <component glyphName="uni0308.cap" x="272" y="0" flags="0x4"/>
    </TTGlyph>
    <TTGlyph name="Ydieresis.sc" xMin="-10" yMin="0" xMax="497" yMax="743">
      <component glyphName="Y.sc" x="0" y="0" flags="0x204"/>
      <component glyphName="uni0308.cap" x="240" y="-107" flags="0x4"/>
    </TTGlyph>
    <TTGlyph name="Ygrave" xMin="-10" yMin="0" xMax="554" yMax="824">
      <component glyphName="Y" x="0" y="0" flags="0x204"/>
      <component glyphName="uni0300.cap" x="272" y="0" flags="0x4"/>
    </TTGlyph>
    <TTGlyph name="Ygrave.sc" xMin="-10" yMin="0" xMax="497" yMax="717">
      <component glyphName="Y.sc" x="0" y="0" flags="0x204"/>
      <component glyphName="uni0300.cap" x="240" y="-107" flags="0x4"/>
    </TTGlyph>
    <TTGlyph name="Z" xMin="32" yMin="0" xMax="512" yMax="650">
      <contour>
        <pt x="32" y="104" on="1"/>
        <pt x="298" y="506" on="1"/>
        <pt x="58" y="506" on="1"/>
        <pt x="58" y="650" on="1"/>
        <pt x="510" y="650" on="1"/>
        <pt x="510" y="546" on="1"/>
        <pt x="244" y="144" on="1"/>
        <pt x="512" y="144" on="1"/>
        <pt x="512" y="0" on="1"/>
        <pt x="32" y="0" on="1"/>
      </contour>
    </TTGlyph>
    <TTGlyph name="Z.sc" xMin="32" yMin="0" xMax="453" yMax="532">
      <contour>
        <pt x="32" y="102" on="1"/>
        <pt x="244" y="392" on="1"/>
        <pt x="54" y="392" on="1"/>
        <pt x="54" y="532" on="1"/>
        <pt x="450" y="532" on="1"/>
        <pt x="450" y="430" on="1"/>
        <pt x="239" y="140" on="1"/>
        <pt x="453" y="140" on="1"/>
        <pt x="453" y="0" on="1"/>
        <pt x="32" y="0" on="1"/>
      </contour>
    </TTGlyph>
    <TTGlyph name="Z.sups" xMin="21" yMin="260" xMax="346" yMax="692">
      <contour>
        <pt x="21" y="332" on="1"/>
        <pt x="197" y="593" on="1"/>
        <pt x="38" y="593" on="1"/>
        <pt x="38" y="692" on="1"/>
        <pt x="345" y="692" on="1"/>
        <pt x="345" y="620" on="1"/>
        <pt x="169" y="359" on="1"/>
        <pt x="346" y="359" on="1"/>
        <pt x="346" y="260" on="1"/>
        <pt x="21" y="260" on="1"/>
      </contour>
    </TTGlyph>
    <TTGlyph name="Zacute" xMin="32" yMin="0" xMax="512" yMax="824">
      <component glyphName="Z" x="0" y="0" flags="0x204"/>
      <component glyphName="uni0301.cap" x="284" y="0" flags="0x4"/>
    </TTGlyph>
    <TTGlyph name="Zacute.sc" xMin="32" yMin="0" xMax="453" yMax="717">
      <component glyphName="Z.sc" x="0" y="0" flags="0x204"/>
      <component glyphName="uni0301.cap" x="258" y="-107" flags="0x4"/>
    </TTGlyph>
    <TTGlyph name="Zcaron" xMin="32" yMin="0" xMax="512" yMax="824">
      <component glyphName="Z" x="0" y="0" flags="0x204"/>
      <component glyphName="uni030C.cap" x="284" y="0" flags="0x4"/>
    </TTGlyph>
    <TTGlyph name="Zcaron.sc" xMin="32" yMin="0" xMax="453" yMax="717">
      <component glyphName="Z.sc" x="0" y="0" flags="0x204"/>
      <component glyphName="uni030C.cap" x="258" y="-107" flags="0x4"/>
    </TTGlyph>
    <TTGlyph name="Zdotaccent" xMin="32" yMin="0" xMax="512" yMax="868">
      <component glyphName="Z" x="0" y="0" flags="0x204"/>
      <component glyphName="uni0307.cap" x="284" y="0" flags="0x4"/>
    </TTGlyph>
    <TTGlyph name="Zdotaccent.sc" xMin="32" yMin="0" xMax="453" yMax="761">
      <component glyphName="Z.sc" x="0" y="0" flags="0x204"/>
      <component glyphName="uni0307.cap" x="258" y="-107" flags="0x4"/>
    </TTGlyph>
    <TTGlyph name="a" xMin="42" yMin="-12" xMax="486" yMax="512">
      <contour>
        <pt x="42" y="142" on="1"/>
        <pt x="42" y="220" on="0"/>
        <pt x="170" y="309" on="0"/>
        <pt x="314" y="324" on="1"/>
        <pt x="308" y="376" on="0"/>
        <pt x="244" y="376" on="1"/>
        <pt x="217" y="376" on="0"/>
        <pt x="157" y="355" on="0"/>
        <pt x="118" y="334" on="1"/>
        <pt x="58" y="446" on="1"/>
        <pt x="111" y="478" on="0"/>
        <pt x="219" y="512" on="0"/>
        <pt x="278" y="512" on="1"/>
        <pt x="375" y="512" on="0"/>
        <pt x="486" y="401" on="0"/>
        <pt x="486" y="278" on="1"/>
        <pt x="486" y="0" on="1"/>
        <pt x="346" y="0" on="1"/>
        <pt x="334" y="48" on="1"/>
        <pt x="330" y="48" on="1"/>
        <pt x="300" y="21" on="0"/>
        <pt x="233" y="-12" on="0"/>
        <pt x="192" y="-12" on="1"/>
        <pt x="157" y="-12" on="0"/>
        <pt x="101" y="13" on="0"/>
        <pt x="62" y="55" on="0"/>
        <pt x="42" y="111" on="0"/>
      </contour>
      <contour>
        <pt x="206" y="156" on="1"/>
        <pt x="206" y="120" on="0"/>
        <pt x="252" y="120" on="1"/>
        <pt x="273" y="120" on="0"/>
        <pt x="300" y="139" on="0"/>
        <pt x="314" y="154" on="1"/>
        <pt x="314" y="222" on="1"/>
        <pt x="252" y="213" on="0"/>
        <pt x="206" y="177" on="0"/>
      </contour>
    </TTGlyph>
    <TTGlyph name="a.a" xMin="36" yMin="-12" xMax="522" yMax="512">
      <component glyphName="uni0251" x="0" y="0" flags="0x204"/>
    </TTGlyph>
    <TTGlyph name="a.supa" xMin="24" yMin="252" xMax="352" yMax="600">
      <contour>
        <pt x="146" y="432" on="1"/>
        <pt x="146" y="384" on="0"/>
        <pt x="172" y="346" on="0"/>
        <pt x="194" y="346" on="1"/>
        <pt x="206" y="346" on="0"/>
        <pt x="224" y="356" on="0"/>
        <pt x="232" y="370" on="1"/>
        <pt x="232" y="490" on="1"/>
        <pt x="221" y="499" on="0"/>
        <pt x="203" y="506" on="0"/>
        <pt x="192" y="506" on="1"/>
        <pt x="174" y="506" on="0"/>
        <pt x="146" y="471" on="0"/>
      </contour>
      <contour>
        <pt x="24" y="430" on="1"/>
        <pt x="24" y="470" on="0"/>
        <pt x="49" y="533" on="0"/>
        <pt x="88" y="577" on="0"/>
        <pt x="138" y="600" on="0"/>
        <pt x="164" y="600" on="1"/>
        <pt x="210" y="600" on="0"/>
        <pt x="246" y="558" on="1"/>
        <pt x="250" y="558" on="1"/>
        <pt x="260" y="591" on="1"/>
        <pt x="352" y="591" on="1"/>
        <pt x="352" y="260" on="1"/>
        <pt x="256" y="260" on="1"/>
        <pt x="248" y="290" on="1"/>
        <pt x="244" y="290" on="1"/>
        <pt x="227" y="273" on="0"/>
        <pt x="184" y="252" on="0"/>
        <pt x="160" y="252" on="1"/>
        <pt x="97" y="252" on="0"/>
        <pt x="24" y="345" on="0"/>
      </contour>
    </TTGlyph>
    <TTGlyph name="a.sups" xMin="26" yMin="252" xMax="328" yMax="600">
      <contour>
        <pt x="128" y="252" on="1"/>
        <pt x="104" y="252" on="0"/>
        <pt x="66" y="269" on="0"/>
        <pt x="40" y="297" on="0"/>
        <pt x="26" y="334" on="0"/>
        <pt x="26" y="354" on="1"/>
        <pt x="26" y="407" on="0"/>
        <pt x="111" y="465" on="0"/>
        <pt x="208" y="474" on="1"/>
        <pt x="204" y="506" on="0"/>
        <pt x="164" y="506" on="1"/>
        <pt x="146" y="506" on="0"/>
        <pt x="104" y="492" on="0"/>
        <pt x="78" y="478" on="1"/>
        <pt x="36" y="556" on="1"/>
        <pt x="72" y="577" on="0"/>
        <pt x="147" y="600" on="0"/>
        <pt x="186" y="600" on="1"/>
        <pt x="251" y="600" on="0"/>
        <pt x="328" y="526" on="0"/>
        <pt x="328" y="446" on="1"/>
        <pt x="328" y="260" on="1"/>
        <pt x="232" y="260" on="1"/>
        <pt x="222" y="292" on="1"/>
        <pt x="218" y="292" on="1"/>
        <pt x="200" y="274" on="0"/>
        <pt x="155" y="252" on="0"/>
      </contour>
      <contour>
        <pt x="169" y="342" on="1"/>
        <pt x="182" y="342" on="0"/>
        <pt x="199" y="353" on="0"/>
        <pt x="208" y="362" on="1"/>
        <pt x="208" y="406" on="1"/>
        <pt x="169" y="401" on="0"/>
        <pt x="140" y="378" on="0"/>
        <pt x="140" y="364" on="1"/>
        <pt x="140" y="342" on="0"/>
      </contour>
    </TTGlyph>
    <TTGlyph name="aacute" xMin="42" yMin="-12" xMax="486" yMax="728">
      <component glyphName="a" x="0" y="0" flags="0x204"/>
      <component glyphName="uni0301" x="285" y="0" flags="0x4"/>
    </TTGlyph>
    <TTGlyph name="aacute.a" xMin="36" yMin="-12" xMax="522" yMax="728">
      <component glyphName="uni0251" x="0" y="0" flags="0x204"/>
      <component glyphName="uni0301" x="306" y="0" flags="0x4"/>
    </TTGlyph>
    <TTGlyph name="abreve" xMin="42" yMin="-12" xMax="486" yMax="718">
      <component glyphName="a" x="0" y="0" flags="0x204"/>
      <component glyphName="uni0306" x="285" y="0" flags="0x4"/>
    </TTGlyph>
    <TTGlyph name="abreve.a" xMin="36" yMin="-12" xMax="522" yMax="718">
      <component glyphName="uni0251" x="0" y="0" flags="0x204"/>
      <component glyphName="uni0306" x="306" y="0" flags="0x4"/>
    </TTGlyph>
    <TTGlyph name="acircumflex" xMin="42" yMin="-12" xMax="486" yMax="728">
      <component glyphName="a" x="0" y="0" flags="0x204"/>
      <component glyphName="uni0302" x="285" y="0" flags="0x4"/>
    </TTGlyph>
    <TTGlyph name="acircumflex.a" xMin="36" yMin="-12" xMax="522" yMax="728">
      <component glyphName="uni0251" x="0" y="0" flags="0x204"/>
      <component glyphName="uni0302" x="306" y="0" flags="0x4"/>
    </TTGlyph>
    <TTGlyph name="acute" xMin="192" yMin="574" xMax="444" yMax="728">
      <component glyphName="uni0301" x="280" y="0" flags="0x4"/>
    </TTGlyph>
    <TTGlyph name="adieresis" xMin="42" yMin="-12" xMax="486" yMax="720">
      <component glyphName="a" x="0" y="0" flags="0x204"/>
      <component glyphName="uni0308" x="285" y="0" flags="0x4"/>
    </TTGlyph>
    <TTGlyph name="adieresis.a" xMin="36" yMin="-12" xMax="522" yMax="720">
      <component glyphName="uni0251" x="0" y="0" flags="0x204"/>
      <component glyphName="uni0308" x="306" y="0" flags="0x4"/>
    </TTGlyph>
    <TTGlyph name="ae" xMin="42" yMin="-12" xMax="750" yMax="512">
      <contour>
        <pt x="206" y="156" on="1"/>
        <pt x="206" y="120" on="0"/>
        <pt x="252" y="120" on="1"/>
        <pt x="274" y="120" on="0"/>
        <pt x="309" y="136" on="0"/>
        <pt x="324" y="150" on="1"/>
        <pt x="315" y="177" on="0"/>
        <pt x="312" y="203" on="1"/>
        <pt x="310" y="222" on="1"/>
        <pt x="253" y="213" on="0"/>
        <pt x="206" y="178" on="0"/>
      </contour>
      <contour>
        <pt x="58" y="446" on="1"/>
        <pt x="111" y="478" on="0"/>
        <pt x="214" y="512" on="0"/>
        <pt x="268" y="512" on="1"/>
        <pt x="312" y="512" on="0"/>
        <pt x="382" y="478" on="0"/>
        <pt x="406" y="448" on="1"/>
        <pt x="439" y="480" on="0"/>
        <pt x="506" y="512" on="0"/>
        <pt x="548" y="512" on="1"/>
        <pt x="599" y="512" on="0"/>
        <pt x="675" y="473" on="0"/>
        <pt x="725" y="406" on="0"/>
        <pt x="750" y="316" on="0"/>
        <pt x="750" y="266" on="1"/>
        <pt x="750" y="243" on="0"/>
        <pt x="745" y="207" on="0"/>
        <pt x="743" y="198" on="1"/>
        <pt x="468" y="198" on="1"/>
        <pt x="479" y="156" on="0"/>
        <pt x="536" y="122" on="0"/>
        <pt x="574" y="122" on="1"/>
        <pt x="600" y="122" on="0"/>
        <pt x="647" y="141" on="0"/>
        <pt x="674" y="156" on="1"/>
        <pt x="732" y="46" on="1"/>
        <pt x="691" y="17" on="0"/>
        <pt x="592" y="-12" on="0"/>
        <pt x="550" y="-12" on="1"/>
        <pt x="497" y="-12" on="0"/>
        <pt x="412" y="26" on="0"/>
        <pt x="380" y="60" on="1"/>
        <pt x="353" y="39" on="0"/>
        <pt x="306" y="12" on="0"/>
        <pt x="262" y="-5" on="0"/>
        <pt x="217" y="-12" on="0"/>
        <pt x="192" y="-12" on="1"/>
        <pt x="157" y="-12" on="0"/>
        <pt x="101" y="13" on="0"/>
        <pt x="62" y="55" on="0"/>
        <pt x="42" y="111" on="0"/>
        <pt x="42" y="142" on="1"/>
        <pt x="42" y="220" on="0"/>
        <pt x="168" y="310" on="0"/>
        <pt x="312" y="325" on="1"/>
        <pt x="309" y="351" on="0"/>
        <pt x="278" y="376" on="0"/>
        <pt x="244" y="376" on="1"/>
        <pt x="217" y="376" on="0"/>
        <pt x="157" y="355" on="0"/>
        <pt x="118" y="334" on="1"/>
      </contour>
      <contour>
        <pt x="604" y="302" on="1"/>
        <pt x="604" y="335" on="0"/>
        <pt x="577" y="382" on="0"/>
        <pt x="542" y="382" on="1"/>
        <pt x="513" y="382" on="0"/>
        <pt x="474" y="346" on="0"/>
        <pt x="468" y="302" on="1"/>
      </contour>
    </TTGlyph>
    <TTGlyph name="agrave" xMin="42" yMin="-12" xMax="486" yMax="728">
      <component glyphName="a" x="0" y="0" flags="0x204"/>
      <component glyphName="uni0300" x="285" y="0" flags="0x4"/>
    </TTGlyph>
    <TTGlyph name="agrave.a" xMin="36" yMin="-12" xMax="522" yMax="728">
      <component glyphName="uni0251" x="0" y="0" flags="0x204"/>
      <component glyphName="uni0300" x="306" y="0" flags="0x4"/>
    </TTGlyph>
    <TTGlyph name="amacron" xMin="42" yMin="-12" xMax="486" yMax="696">
      <component glyphName="a" x="0" y="0" flags="0x204"/>
      <component glyphName="uni0304" x="285" y="0" flags="0x4"/>
    </TTGlyph>
    <TTGlyph name="amacron.a" xMin="36" yMin="-12" xMax="522" yMax="696">
      <component glyphName="uni0251" x="0" y="0" flags="0x204"/>
      <component glyphName="uni0304" x="306" y="0" flags="0x4"/>
    </TTGlyph>
    <TTGlyph name="ampersand" xMin="22" yMin="-12" xMax="670" yMax="662">
      <contour>
        <pt x="184" y="186" on="1"/>
        <pt x="184" y="156" on="0"/>
        <pt x="229" y="118" on="0"/>
        <pt x="268" y="118" on="1"/>
        <pt x="297" y="118" on="0"/>
        <pt x="332" y="134" on="1"/>
        <pt x="264" y="188" on="0"/>
        <pt x="214" y="247" on="1"/>
        <pt x="200" y="233" on="0"/>
        <pt x="184" y="203" on="0"/>
      </contour>
      <contour>
        <pt x="239" y="486" on="1"/>
        <pt x="239" y="455" on="0"/>
        <pt x="257" y="421" on="1"/>
        <pt x="288" y="439" on="0"/>
        <pt x="328" y="479" on="0"/>
        <pt x="328" y="508" on="1"/>
        <pt x="328" y="550" on="0"/>
        <pt x="290" y="550" on="1"/>
        <pt x="270" y="550" on="0"/>
        <pt x="239" y="518" on="0"/>
      </contour>
      <contour>
        <pt x="630" y="-12" on="1"/>
        <pt x="587" y="-4" on="0"/>
        <pt x="500" y="28" on="0"/>
        <pt x="456" y="51" on="1"/>
        <pt x="413" y="22" on="0"/>
        <pt x="309" y="-12" on="0"/>
        <pt x="246" y="-12" on="1"/>
        <pt x="189" y="-12" on="0"/>
        <pt x="105" y="19" on="0"/>
        <pt x="50" y="71" on="0"/>
        <pt x="22" y="139" on="0"/>
        <pt x="22" y="176" on="1"/>
        <pt x="22" y="210" on="0"/>
        <pt x="40" y="265" on="0"/>
        <pt x="72" y="308" on="0"/>
        <pt x="114" y="343" on="0"/>
        <pt x="137" y="357" on="1"/>
        <pt x="118" y="391" on="0"/>
        <pt x="98" y="457" on="0"/>
        <pt x="98" y="486" on="1"/>
        <pt x="98" y="521" on="0"/>
        <pt x="124" y="585" on="0"/>
        <pt x="173" y="633" on="0"/>
        <pt x="242" y="662" on="0"/>
        <pt x="286" y="662" on="1"/>
        <pt x="364" y="662" on="0"/>
        <pt x="458" y="579" on="0"/>
        <pt x="458" y="508" on="1"/>
        <pt x="458" y="476" on="0"/>
        <pt x="436" y="424" on="0"/>
        <pt x="400" y="380" on="0"/>
        <pt x="353" y="343" on="0"/>
        <pt x="328" y="327" on="1"/>
        <pt x="353" y="301" on="0"/>
        <pt x="411" y="252" on="0"/>
        <pt x="442" y="230" on="1"/>
        <pt x="465" y="260" on="0"/>
        <pt x="501" y="332" on="0"/>
        <pt x="512" y="374" on="1"/>
        <pt x="668" y="374" on="1"/>
        <pt x="651" y="317" on="0"/>
        <pt x="599" y="211" on="0"/>
        <pt x="562" y="161" on="1"/>
        <pt x="621" y="132" on="0"/>
        <pt x="670" y="126" on="1"/>
      </contour>
    </TTGlyph>
    <TTGlyph name="ampersand.sc" xMin="22" yMin="-12" xMax="600" yMax="544">
      <contour>
        <pt x="174" y="156" on="1"/>
        <pt x="174" y="133" on="0"/>
        <pt x="209" y="110" on="0"/>
        <pt x="238" y="110" on="1"/>
        <pt x="260" y="110" on="0"/>
        <pt x="283" y="119" on="1"/>
        <pt x="258" y="137" on="0"/>
        <pt x="213" y="177" on="0"/>
        <pt x="193" y="198" on="1"/>
        <pt x="174" y="177" on="0"/>
      </contour>
      <contour>
        <pt x="216" y="392" on="1"/>
        <pt x="216" y="369" on="0"/>
        <pt x="234" y="340" on="1"/>
        <pt x="260" y="353" on="0"/>
        <pt x="292" y="383" on="0"/>
        <pt x="292" y="406" on="1"/>
        <pt x="292" y="423" on="0"/>
        <pt x="273" y="438" on="0"/>
        <pt x="258" y="438" on="1"/>
        <pt x="243" y="438" on="0"/>
        <pt x="216" y="415" on="0"/>
      </contour>
      <contour>
        <pt x="600" y="313" on="1"/>
        <pt x="572" y="228" on="0"/>
        <pt x="509" y="145" on="1"/>
        <pt x="559" y="127" on="0"/>
        <pt x="600" y="121" on="1"/>
        <pt x="561" y="-12" on="1"/>
        <pt x="523" y="-7" on="0"/>
        <pt x="445" y="22" on="0"/>
        <pt x="407" y="42" on="1"/>
        <pt x="370" y="16" on="0"/>
        <pt x="277" y="-12" on="0"/>
        <pt x="220" y="-12" on="1"/>
        <pt x="169" y="-12" on="0"/>
        <pt x="94" y="15" on="0"/>
        <pt x="45" y="60" on="0"/>
        <pt x="22" y="117" on="0"/>
        <pt x="22" y="146" on="1"/>
        <pt x="22" y="173" on="0"/>
        <pt x="38" y="216" on="0"/>
        <pt x="65" y="251" on="0"/>
        <pt x="101" y="277" on="0"/>
        <pt x="121" y="288" on="1"/>
        <pt x="104" y="316" on="0"/>
        <pt x="85" y="369" on="0"/>
        <pt x="85" y="393" on="1"/>
        <pt x="85" y="423" on="0"/>
        <pt x="109" y="477" on="0"/>
        <pt x="153" y="519" on="0"/>
        <pt x="216" y="544" on="0"/>
        <pt x="255" y="544" on="1"/>
        <pt x="327" y="544" on="0"/>
        <pt x="414" y="471" on="0"/>
        <pt x="414" y="408" on="1"/>
        <pt x="414" y="383" on="0"/>
        <pt x="395" y="343" on="0"/>
        <pt x="363" y="309" on="0"/>
        <pt x="322" y="281" on="0"/>
        <pt x="301" y="268" on="1"/>
        <pt x="343" y="233" on="0"/>
        <pt x="392" y="204" on="1"/>
        <pt x="409" y="227" on="0"/>
        <pt x="437" y="281" on="0"/>
        <pt x="446" y="313" on="1"/>
      </contour>
    </TTGlyph>
    <TTGlyph name="aogonek" xMin="42" yMin="-212" xMax="506" yMax="512">
      <contour>
        <pt x="206" y="156" on="1"/>
        <pt x="206" y="120" on="0"/>
        <pt x="252" y="120" on="1"/>
        <pt x="273" y="120" on="0"/>
        <pt x="300" y="139" on="0"/>
        <pt x="314" y="154" on="1"/>
        <pt x="314" y="222" on="1"/>
        <pt x="252" y="213" on="0"/>
        <pt x="206" y="177" on="0"/>
      </contour>
      <contour>
        <pt x="42" y="142" on="1"/>
        <pt x="42" y="220" on="0"/>
        <pt x="170" y="309" on="0"/>
        <pt x="314" y="324" on="1"/>
        <pt x="308" y="376" on="0"/>
        <pt x="244" y="376" on="1"/>
        <pt x="217" y="376" on="0"/>
        <pt x="157" y="355" on="0"/>
        <pt x="118" y="334" on="1"/>
        <pt x="58" y="446" on="1"/>
        <pt x="111" y="478" on="0"/>
        <pt x="219" y="512" on="0"/>
        <pt x="278" y="512" on="1"/>
        <pt x="375" y="512" on="0"/>
        <pt x="486" y="401" on="0"/>
        <pt x="486" y="278" on="1"/>
        <pt x="486" y="0" on="1"/>
        <pt x="435" y="-12" on="0"/>
        <pt x="398" y="-57" on="0"/>
        <pt x="398" y="-78" on="1"/>
        <pt x="398" y="-96" on="0"/>
        <pt x="423" y="-112" on="0"/>
        <pt x="438" y="-112" on="1"/>
        <pt x="447" y="-112" on="0"/>
        <pt x="466" y="-105" on="0"/>
        <pt x="472" y="-100" on="1"/>
        <pt x="506" y="-176" on="1"/>
        <pt x="485" y="-193" on="0"/>
        <pt x="422" y="-212" on="0"/>
        <pt x="396" y="-212" on="1"/>
        <pt x="349" y="-212" on="0"/>
        <pt x="284" y="-165" on="0"/>
        <pt x="284" y="-118" on="1"/>
        <pt x="284" y="-96" on="0"/>
        <pt x="298" y="-58" on="0"/>
        <pt x="319" y="-29" on="0"/>
        <pt x="340" y="-9" on="0"/>
        <pt x="348" y="-4" on="1"/>
        <pt x="334" y="48" on="1"/>
        <pt x="330" y="48" on="1"/>
        <pt x="300" y="21" on="0"/>
        <pt x="233" y="-12" on="0"/>
        <pt x="192" y="-12" on="1"/>
        <pt x="157" y="-12" on="0"/>
        <pt x="101" y="13" on="0"/>
        <pt x="62" y="55" on="0"/>
        <pt x="42" y="111" on="0"/>
      </contour>
    </TTGlyph>
    <TTGlyph name="aogonek.a" xMin="36" yMin="-212" xMax="542" yMax="512">
      <contour>
        <pt x="212" y="252" on="1"/>
        <pt x="212" y="184" on="0"/>
        <pt x="251" y="128" on="0"/>
        <pt x="286" y="128" on="1"/>
        <pt x="306" y="128" on="0"/>
        <pt x="336" y="143" on="0"/>
        <pt x="350" y="164" on="1"/>
        <pt x="350" y="348" on="1"/>
        <pt x="335" y="362" on="0"/>
        <pt x="299" y="372" on="0"/>
        <pt x="282" y="372" on="1"/>
        <pt x="255" y="372" on="0"/>
        <pt x="212" y="318" on="0"/>
      </contour>
      <contour>
        <pt x="36" y="250" on="1"/>
        <pt x="36" y="311" on="0"/>
        <pt x="72" y="409" on="0"/>
        <pt x="131" y="476" on="0"/>
        <pt x="206" y="512" on="0"/>
        <pt x="244" y="512" on="1"/>
        <pt x="280" y="512" on="0"/>
        <pt x="341" y="483" on="0"/>
        <pt x="370" y="450" on="1"/>
        <pt x="374" y="450" on="1"/>
        <pt x="388" y="500" on="1"/>
        <pt x="522" y="500" on="1"/>
        <pt x="522" y="0" on="1"/>
        <pt x="471" y="-12" on="0"/>
        <pt x="434" y="-57" on="0"/>
        <pt x="434" y="-78" on="1"/>
        <pt x="434" y="-95" on="0"/>
        <pt x="458" y="-112" on="0"/>
        <pt x="474" y="-112" on="1"/>
        <pt x="483" y="-112" on="0"/>
        <pt x="502" y="-105" on="0"/>
        <pt x="508" y="-100" on="1"/>
        <pt x="542" y="-176" on="1"/>
        <pt x="521" y="-193" on="0"/>
        <pt x="458" y="-212" on="0"/>
        <pt x="432" y="-212" on="1"/>
        <pt x="385" y="-212" on="0"/>
        <pt x="320" y="-165" on="0"/>
        <pt x="320" y="-118" on="1"/>
        <pt x="320" y="-96" on="0"/>
        <pt x="334" y="-58" on="0"/>
        <pt x="355" y="-29" on="0"/>
        <pt x="376" y="-9" on="0"/>
        <pt x="384" y="-4" on="1"/>
        <pt x="370" y="46" on="1"/>
        <pt x="366" y="46" on="1"/>
        <pt x="340" y="20" on="0"/>
        <pt x="273" y="-12" on="0"/>
        <pt x="240" y="-12" on="1"/>
        <pt x="193" y="-12" on="0"/>
        <pt x="118" y="24" on="0"/>
        <pt x="65" y="92" on="0"/>
        <pt x="36" y="189" on="0"/>
      </contour>
    </TTGlyph>
    <TTGlyph name="approxequal" xMin="26" yMin="115" xMax="514" yMax="546">
      <component glyphName="asciitilde" x="0" y="120" flags="0x204"/>
      <component glyphName="asciitilde" x="0" y="-119" flags="0x4"/>
    </TTGlyph>
    <TTGlyph name="aring" xMin="42" yMin="-12" xMax="486" yMax="762">
      <component glyphName="a" x="0" y="0" flags="0x204"/>
      <component glyphName="uni030A" x="285" y="0" flags="0x4"/>
    </TTGlyph>
    <TTGlyph name="aring.a" xMin="36" yMin="-12" xMax="522" yMax="762">
      <component glyphName="uni0251" x="0" y="0" flags="0x204"/>
      <component glyphName="uni030A" x="306" y="0" flags="0x4"/>
    </TTGlyph>
    <TTGlyph name="arrowdown" xMin="38" yMin="-26" xMax="578" yMax="530">
      <contour>
        <pt x="306" y="-26" on="1"/>
        <pt x="38" y="254" on="1"/>
        <pt x="130" y="334" on="1"/>
        <pt x="240" y="204" on="1"/>
        <pt x="240" y="530" on="1"/>
        <pt x="376" y="530" on="1"/>
        <pt x="376" y="204" on="1"/>
        <pt x="486" y="334" on="1"/>
        <pt x="578" y="254" on="1"/>
        <pt x="310" y="-26" on="1"/>
      </contour>
    </TTGlyph>
    <TTGlyph name="arrowup" xMin="38" yMin="-26" xMax="578" yMax="530">
      <contour>
        <pt x="310" y="530" on="1"/>
        <pt x="578" y="250" on="1"/>
        <pt x="486" y="170" on="1"/>
        <pt x="376" y="300" on="1"/>
        <pt x="376" y="-26" on="1"/>
        <pt x="240" y="-26" on="1"/>
        <pt x="240" y="300" on="1"/>
        <pt x="130" y="170" on="1"/>
        <pt x="38" y="250" on="1"/>
        <pt x="306" y="530" on="1"/>
      </contour>
    </TTGlyph>
    <TTGlyph name="asciicircum" xMin="46" yMin="270" xMax="494" yMax="670">
      <contour>
        <pt x="202" y="670" on="1"/>
        <pt x="338" y="670" on="1"/>
        <pt x="494" y="270" on="1"/>
        <pt x="354" y="270" on="1"/>
        <pt x="316" y="380" on="1"/>
        <pt x="272" y="516" on="1"/>
        <pt x="268" y="516" on="1"/>
        <pt x="224" y="380" on="1"/>
        <pt x="186" y="270" on="1"/>
        <pt x="46" y="270" on="1"/>
      </contour>
    </TTGlyph>
    <TTGlyph name="asciitilde" xMin="26" yMin="234" xMax="514" yMax="426">
      <contour>
        <pt x="26" y="318" on="1"/>
        <pt x="67" y="378" on="0"/>
        <pt x="147" y="426" on="0"/>
        <pt x="186" y="426" on="1"/>
        <pt x="217" y="426" on="0"/>
        <pt x="263" y="403" on="0"/>
        <pt x="301" y="376" on="0"/>
        <pt x="336" y="354" on="0"/>
        <pt x="356" y="354" on="1"/>
        <pt x="376" y="354" on="0"/>
        <pt x="411" y="384" on="0"/>
        <pt x="426" y="410" on="1"/>
        <pt x="514" y="342" on="1"/>
        <pt x="473" y="282" on="0"/>
        <pt x="393" y="234" on="0"/>
        <pt x="354" y="234" on="1"/>
        <pt x="322" y="234" on="0"/>
        <pt x="277" y="256" on="0"/>
        <pt x="239" y="283" on="0"/>
        <pt x="204" y="306" on="0"/>
        <pt x="184" y="306" on="1"/>
        <pt x="164" y="306" on="0"/>
        <pt x="129" y="276" on="0"/>
        <pt x="114" y="250" on="1"/>
      </contour>
    </TTGlyph>
    <TTGlyph name="asterisk" xMin="30" yMin="321" xMax="442" yMax="712">
      <contour>
        <pt x="82" y="372" on="1"/>
        <pt x="142" y="479" on="1"/>
        <pt x="30" y="531" on="1"/>
        <pt x="57" y="614" on="1"/>
        <pt x="178" y="590" on="1"/>
        <pt x="192" y="712" on="1"/>
        <pt x="280" y="712" on="1"/>
        <pt x="294" y="589" on="1"/>
        <pt x="415" y="614" on="1"/>
        <pt x="442" y="531" on="1"/>
        <pt x="329" y="479" on="1"/>
        <pt x="390" y="372" on="1"/>
        <pt x="320" y="321" on="1"/>
        <pt x="236" y="412" on="1"/>
        <pt x="152" y="321" on="1"/>
      </contour>
    </TTGlyph>
    <TTGlyph name="at" xMin="48" yMin="-178" xMax="876" yMax="678">
      <contour>
        <pt x="48" y="206" on="1"/>
        <pt x="48" y="312" on="0"/>
        <pt x="122" y="487" on="0"/>
        <pt x="248" y="610" on="0"/>
        <pt x="417" y="678" on="0"/>
        <pt x="512" y="678" on="1"/>
        <pt x="595" y="678" on="0"/>
        <pt x="730" y="624" on="0"/>
        <pt x="825" y="527" on="0"/>
        <pt x="876" y="392" on="0"/>
        <pt x="876" y="312" on="1"/>
        <pt x="876" y="242" on="0"/>
        <pt x="833" y="138" on="0"/>
        <pt x="764" y="69" on="0"/>
        <pt x="679" y="34" on="0"/>
        <pt x="638" y="34" on="1"/>
        <pt x="593" y="34" on="0"/>
        <pt x="527" y="74" on="0"/>
        <pt x="518" y="110" on="1"/>
        <pt x="516" y="110" on="1"/>
        <pt x="506" y="95" on="0"/>
        <pt x="478" y="71" on="0"/>
        <pt x="445" y="53" on="0"/>
        <pt x="411" y="44" on="0"/>
        <pt x="396" y="44" on="1"/>
        <pt x="334" y="44" on="0"/>
        <pt x="260" y="129" on="0"/>
        <pt x="260" y="198" on="1"/>
        <pt x="260" y="246" on="0"/>
        <pt x="292" y="336" on="0"/>
        <pt x="348" y="406" on="0"/>
        <pt x="423" y="448" on="0"/>
        <pt x="466" y="448" on="1"/>
        <pt x="490" y="448" on="0"/>
        <pt x="528" y="425" on="0"/>
        <pt x="540" y="398" on="1"/>
        <pt x="542" y="398" on="1"/>
        <pt x="558" y="440" on="1"/>
        <pt x="662" y="440" on="1"/>
        <pt x="614" y="212" on="1"/>
        <pt x="596" y="138" on="0"/>
        <pt x="656" y="138" on="1"/>
        <pt x="678" y="138" on="0"/>
        <pt x="720" y="162" on="0"/>
        <pt x="751" y="207" on="0"/>
        <pt x="770" y="270" on="0"/>
        <pt x="770" y="308" on="1"/>
        <pt x="770" y="359" on="0"/>
        <pt x="742" y="455" on="0"/>
        <pt x="678" y="530" on="0"/>
        <pt x="574" y="576" on="0"/>
        <pt x="498" y="576" on="1"/>
        <pt x="435" y="576" on="0"/>
        <pt x="314" y="524" on="0"/>
        <pt x="220" y="428" on="0"/>
        <pt x="162" y="293" on="0"/>
        <pt x="162" y="210" on="1"/>
        <pt x="162" y="136" on="0"/>
        <pt x="210" y="28" on="0"/>
        <pt x="291" y="-42" on="0"/>
        <pt x="396" y="-76" on="0"/>
        <pt x="452" y="-76" on="1"/>
        <pt x="488" y="-76" on="0"/>
        <pt x="570" y="-55" on="0"/>
        <pt x="600" y="-40" on="1"/>
        <pt x="636" y="-132" on="1"/>
        <pt x="589" y="-156" on="0"/>
        <pt x="492" y="-178" on="0"/>
        <pt x="438" y="-178" on="1"/>
        <pt x="362" y="-178" on="0"/>
        <pt x="221" y="-132" on="0"/>
        <pt x="113" y="-38" on="0"/>
        <pt x="48" y="107" on="0"/>
      </contour>
      <contour>
        <pt x="388" y="208" on="1"/>
        <pt x="388" y="150" on="0"/>
        <pt x="434" y="150" on="1"/>
        <pt x="448" y="150" on="0"/>
        <pt x="473" y="167" on="0"/>
        <pt x="490" y="190" on="1"/>
        <pt x="512" y="316" on="1"/>
        <pt x="507" y="327" on="0"/>
        <pt x="486" y="340" on="0"/>
        <pt x="472" y="340" on="1"/>
        <pt x="452" y="340" on="0"/>
        <pt x="421" y="314" on="0"/>
        <pt x="400" y="275" on="0"/>
        <pt x="388" y="228" on="0"/>
      </contour>
    </TTGlyph>
    <TTGlyph name="at.case" xMin="48" yMin="-38" xMax="800" yMax="706">
      <contour>
        <pt x="48" y="294" on="1"/>
        <pt x="48" y="388" on="0"/>
        <pt x="113" y="541" on="0"/>
        <pt x="226" y="648" on="0"/>
        <pt x="378" y="706" on="0"/>
        <pt x="464" y="706" on="1"/>
        <pt x="541" y="706" on="0"/>
        <pt x="666" y="660" on="0"/>
        <pt x="753" y="578" on="0"/>
        <pt x="800" y="465" on="0"/>
        <pt x="800" y="398" on="1"/>
        <pt x="800" y="333" on="0"/>
        <pt x="764" y="235" on="0"/>
        <pt x="704" y="168" on="0"/>
        <pt x="625" y="134" on="0"/>
        <pt x="582" y="134" on="1"/>
        <pt x="540" y="134" on="0"/>
        <pt x="485" y="177" on="0"/>
        <pt x="476" y="212" on="1"/>
        <pt x="474" y="212" on="1"/>
        <pt x="465" y="197" on="0"/>
        <pt x="436" y="173" on="0"/>
        <pt x="403" y="155" on="0"/>
        <pt x="369" y="146" on="0"/>
        <pt x="354" y="146" on="1"/>
        <pt x="302" y="146" on="0"/>
        <pt x="238" y="224" on="0"/>
        <pt x="238" y="284" on="1"/>
        <pt x="238" y="330" on="0"/>
        <pt x="267" y="412" on="0"/>
        <pt x="318" y="475" on="0"/>
        <pt x="386" y="512" on="0"/>
        <pt x="424" y="512" on="1"/>
        <pt x="448" y="512" on="0"/>
        <pt x="484" y="489" on="0"/>
        <pt x="496" y="462" on="1"/>
        <pt x="498" y="462" on="1"/>
        <pt x="515" y="504" on="1"/>
        <pt x="618" y="504" on="1"/>
        <pt x="570" y="304" on="1"/>
        <pt x="562" y="272" on="0"/>
        <pt x="578" y="238" on="0"/>
        <pt x="598" y="238" on="1"/>
        <pt x="614" y="238" on="0"/>
        <pt x="649" y="257" on="0"/>
        <pt x="676" y="296" on="0"/>
        <pt x="694" y="354" on="0"/>
        <pt x="694" y="392" on="1"/>
        <pt x="694" y="434" on="0"/>
        <pt x="669" y="513" on="0"/>
        <pt x="612" y="573" on="0"/>
        <pt x="519" y="610" on="0"/>
        <pt x="452" y="610" on="1"/>
        <pt x="396" y="610" on="0"/>
        <pt x="291" y="566" on="0"/>
        <pt x="208" y="485" on="0"/>
        <pt x="158" y="369" on="0"/>
        <pt x="158" y="298" on="1"/>
        <pt x="158" y="231" on="0"/>
        <pt x="201" y="140" on="0"/>
        <pt x="270" y="83" on="0"/>
        <pt x="356" y="58" on="0"/>
        <pt x="400" y="58" on="1"/>
        <pt x="430" y="58" on="0"/>
        <pt x="498" y="72" on="0"/>
        <pt x="524" y="84" on="1"/>
        <pt x="562" y="-2" on="1"/>
        <pt x="517" y="-22" on="0"/>
        <pt x="436" y="-38" on="0"/>
        <pt x="386" y="-38" on="1"/>
        <pt x="324" y="-38" on="0"/>
        <pt x="203" y="-1" on="0"/>
        <pt x="107" y="79" on="0"/>
        <pt x="48" y="205" on="0"/>
      </contour>
      <contour>
        <pt x="394" y="250" on="1"/>
        <pt x="406" y="250" on="0"/>
        <pt x="429" y="266" on="0"/>
        <pt x="444" y="286" on="1"/>
        <pt x="464" y="386" on="1"/>
        <pt x="455" y="408" on="0"/>
        <pt x="430" y="408" on="1"/>
        <pt x="415" y="408" on="0"/>
        <pt x="392" y="385" on="0"/>
        <pt x="375" y="350" on="0"/>
        <pt x="366" y="309" on="0"/>
        <pt x="366" y="292" on="1"/>
        <pt x="366" y="272" on="0"/>
        <pt x="379" y="250" on="0"/>
      </contour>
    </TTGlyph>
    <TTGlyph name="atilde" xMin="42" yMin="-12" xMax="486" yMax="720">
      <component glyphName="a" x="0" y="0" flags="0x204"/>
      <component glyphName="uni0303" x="285" y="0" flags="0x4"/>
    </TTGlyph>
    <TTGlyph name="atilde.a" xMin="36" yMin="-12" xMax="522" yMax="720">
      <component glyphName="uni0251" x="0" y="0" flags="0x204"/>
      <component glyphName="uni0303" x="306" y="0" flags="0x4"/>
    </TTGlyph>
    <TTGlyph name="b" xMin="58" yMin="-12" xMax="544" yMax="696">
      <contour>
        <pt x="58" y="696" on="1"/>
        <pt x="230" y="696" on="1"/>
        <pt x="230" y="534" on="1"/>
        <pt x="226" y="462" on="1"/>
        <pt x="252" y="486" on="0"/>
        <pt x="316" y="512" on="0"/>
        <pt x="349" y="512" on="1"/>
        <pt x="393" y="512" on="0"/>
        <pt x="465" y="476" on="0"/>
        <pt x="516" y="410" on="0"/>
        <pt x="544" y="316" on="0"/>
        <pt x="544" y="259" on="1"/>
        <pt x="544" y="194" on="0"/>
        <pt x="509" y="93" on="0"/>
        <pt x="451" y="24" on="0"/>
        <pt x="376" y="-12" on="0"/>
        <pt x="336" y="-12" on="1"/>
        <pt x="303" y="-12" on="0"/>
        <pt x="239" y="21" on="0"/>
        <pt x="210" y="54" on="1"/>
        <pt x="206" y="54" on="1"/>
        <pt x="192" y="0" on="1"/>
        <pt x="58" y="0" on="1"/>
      </contour>
      <contour>
        <pt x="230" y="152" on="1"/>
        <pt x="245" y="138" on="0"/>
        <pt x="277" y="128" on="0"/>
        <pt x="294" y="128" on="1"/>
        <pt x="324" y="128" on="0"/>
        <pt x="368" y="184" on="0"/>
        <pt x="368" y="256" on="1"/>
        <pt x="368" y="318" on="0"/>
        <pt x="333" y="372" on="0"/>
        <pt x="298" y="372" on="1"/>
        <pt x="278" y="372" on="0"/>
        <pt x="247" y="356" on="0"/>
        <pt x="230" y="336" on="1"/>
      </contour>
    </TTGlyph>
    <TTGlyph name="b.sups" xMin="38" yMin="252" xMax="366" yMax="720">
      <contour>
        <pt x="38" y="720" on="1"/>
        <pt x="158" y="720" on="1"/>
        <pt x="158" y="613" on="1"/>
        <pt x="154" y="566" on="1"/>
        <pt x="171" y="582" on="0"/>
        <pt x="214" y="600" on="0"/>
        <pt x="236" y="600" on="1"/>
        <pt x="265" y="600" on="0"/>
        <pt x="313" y="576" on="0"/>
        <pt x="347" y="531" on="0"/>
        <pt x="366" y="469" on="0"/>
        <pt x="366" y="432" on="1"/>
        <pt x="366" y="388" on="0"/>
        <pt x="343" y="321" on="0"/>
        <pt x="304" y="276" on="0"/>
        <pt x="254" y="252" on="0"/>
        <pt x="228" y="252" on="1"/>
        <pt x="205" y="252" on="0"/>
        <pt x="161" y="273" on="0"/>
        <pt x="144" y="296" on="1"/>
        <pt x="140" y="296" on="1"/>
        <pt x="130" y="260" on="1"/>
        <pt x="38" y="260" on="1"/>
      </contour>
      <contour>
        <pt x="158" y="360" on="1"/>
        <pt x="178" y="346" on="0"/>
        <pt x="198" y="346" on="1"/>
        <pt x="216" y="346" on="0"/>
        <pt x="244" y="383" on="0"/>
        <pt x="244" y="430" on="1"/>
        <pt x="244" y="471" on="0"/>
        <pt x="221" y="504" on="0"/>
        <pt x="200" y="504" on="1"/>
        <pt x="188" y="504" on="0"/>
        <pt x="169" y="494" on="0"/>
        <pt x="158" y="482" on="1"/>
      </contour>
    </TTGlyph>
    <TTGlyph name="backslash" xMin="34" yMin="-160" xMax="320" yMax="710">
      <contour>
        <pt x="34" y="710" on="1"/>
        <pt x="144" y="710" on="1"/>
        <pt x="320" y="-160" on="1"/>
        <pt x="210" y="-160" on="1"/>
      </contour>
    </TTGlyph>
    <TTGlyph name="bar" xMin="84" yMin="-250" xMax="194" yMax="750">
      <contour>
        <pt x="84" y="750" on="1"/>
        <pt x="194" y="750" on="1"/>
        <pt x="194" y="-250" on="1"/>
        <pt x="84" y="-250" on="1"/>
      </contour>
    </TTGlyph>
    <TTGlyph name="braceleft" xMin="30" yMin="-152" xMax="308" yMax="708">
      <contour>
        <pt x="308" y="-62" on="1"/>
        <pt x="308" y="-152" on="1"/>
        <pt x="238" y="-152" on="1"/>
        <pt x="203" y="-152" on="0"/>
        <pt x="154" y="-137" on="0"/>
        <pt x="121" y="-103" on="0"/>
        <pt x="106" y="-47" on="0"/>
        <pt x="106" y="-6" on="1"/>
        <pt x="106" y="20" on="0"/>
        <pt x="109" y="60" on="0"/>
        <pt x="113" y="96" on="0"/>
        <pt x="116" y="133" on="0"/>
        <pt x="116" y="156" on="1"/>
        <pt x="116" y="182" on="0"/>
        <pt x="78" y="226" on="0"/>
        <pt x="30" y="228" on="1"/>
        <pt x="30" y="328" on="1"/>
        <pt x="78" y="330" on="0"/>
        <pt x="116" y="374" on="0"/>
        <pt x="116" y="400" on="1"/>
        <pt x="116" y="423" on="0"/>
        <pt x="113" y="460" on="0"/>
        <pt x="109" y="496" on="0"/>
        <pt x="106" y="536" on="0"/>
        <pt x="106" y="562" on="1"/>
        <pt x="106" y="644" on="0"/>
        <pt x="169" y="708" on="0"/>
        <pt x="238" y="708" on="1"/>
        <pt x="308" y="708" on="1"/>
        <pt x="308" y="618" on="1"/>
        <pt x="292" y="618" on="1"/>
        <pt x="264" y="618" on="0"/>
        <pt x="244" y="595" on="0"/>
        <pt x="244" y="556" on="1"/>
        <pt x="244" y="518" on="0"/>
        <pt x="248" y="444" on="0"/>
        <pt x="248" y="400" on="1"/>
        <pt x="248" y="340" on="0"/>
        <pt x="208" y="289" on="0"/>
        <pt x="168" y="280" on="1"/>
        <pt x="168" y="276" on="1"/>
        <pt x="208" y="267" on="0"/>
        <pt x="248" y="216" on="0"/>
        <pt x="248" y="156" on="1"/>
        <pt x="248" y="112" on="0"/>
        <pt x="244" y="38" on="0"/>
        <pt x="244" y="0" on="1"/>
        <pt x="244" y="-39" on="0"/>
        <pt x="264" y="-62" on="0"/>
        <pt x="292" y="-62" on="1"/>
      </contour>
    </TTGlyph>
    <TTGlyph name="braceright" xMin="52" yMin="-152" xMax="330" yMax="708">
      <contour>
        <pt x="68" y="-62" on="1"/>
        <pt x="96" y="-62" on="0"/>
        <pt x="116" y="-39" on="0"/>
        <pt x="116" y="0" on="1"/>
        <pt x="116" y="38" on="0"/>
        <pt x="112" y="112" on="0"/>
        <pt x="112" y="156" on="1"/>
        <pt x="112" y="216" on="0"/>
        <pt x="152" y="267" on="0"/>
        <pt x="192" y="276" on="1"/>
        <pt x="192" y="280" on="1"/>
        <pt x="152" y="289" on="0"/>
        <pt x="112" y="340" on="0"/>
        <pt x="112" y="400" on="1"/>
        <pt x="112" y="444" on="0"/>
        <pt x="116" y="518" on="0"/>
        <pt x="116" y="556" on="1"/>
        <pt x="116" y="595" on="0"/>
        <pt x="96" y="618" on="0"/>
        <pt x="68" y="618" on="1"/>
        <pt x="52" y="618" on="1"/>
        <pt x="52" y="708" on="1"/>
        <pt x="122" y="708" on="1"/>
        <pt x="191" y="708" on="0"/>
        <pt x="254" y="644" on="0"/>
        <pt x="254" y="562" on="1"/>
        <pt x="254" y="536" on="0"/>
        <pt x="251" y="496" on="0"/>
        <pt x="247" y="460" on="0"/>
        <pt x="244" y="423" on="0"/>
        <pt x="244" y="400" on="1"/>
        <pt x="244" y="374" on="0"/>
        <pt x="282" y="330" on="0"/>
        <pt x="330" y="328" on="1"/>
        <pt x="330" y="228" on="1"/>
        <pt x="282" y="226" on="0"/>
        <pt x="244" y="182" on="0"/>
        <pt x="244" y="156" on="1"/>
        <pt x="244" y="133" on="0"/>
        <pt x="247" y="96" on="0"/>
        <pt x="251" y="60" on="0"/>
        <pt x="254" y="20" on="0"/>
        <pt x="254" y="-6" on="1"/>
        <pt x="254" y="-47" on="0"/>
        <pt x="239" y="-103" on="0"/>
        <pt x="206" y="-137" on="0"/>
        <pt x="156" y="-152" on="0"/>
        <pt x="122" y="-152" on="1"/>
        <pt x="52" y="-152" on="1"/>
        <pt x="52" y="-62" on="1"/>
      </contour>
    </TTGlyph>
    <TTGlyph name="bracketleft" xMin="84" yMin="-152" xMax="308" yMax="708">
      <contour>
        <pt x="84" y="708" on="1"/>
        <pt x="308" y="708" on="1"/>
        <pt x="308" y="618" on="1"/>
        <pt x="212" y="618" on="1"/>
        <pt x="212" y="-62" on="1"/>
        <pt x="308" y="-62" on="1"/>
        <pt x="308" y="-152" on="1"/>
        <pt x="84" y="-152" on="1"/>
      </contour>
    </TTGlyph>
    <TTGlyph name="bracketright" xMin="52" yMin="-152" xMax="276" yMax="708">
      <contour>
        <pt x="148" y="-62" on="1"/>
        <pt x="148" y="618" on="1"/>
        <pt x="52" y="618" on="1"/>
        <pt x="52" y="708" on="1"/>
        <pt x="276" y="708" on="1"/>
        <pt x="276" y="-152" on="1"/>
        <pt x="52" y="-152" on="1"/>
        <pt x="52" y="-62" on="1"/>
      </contour>
    </TTGlyph>
    <TTGlyph name="breve" xMin="136" yMin="574" xMax="424" yMax="718">
      <component glyphName="uni0306" x="280" y="0" flags="0x4"/>
    </TTGlyph>
    <TTGlyph name="brokenbar" xMin="84" yMin="-250" xMax="194" yMax="750">
      <contour>
        <pt x="84" y="750" on="1"/>
        <pt x="194" y="750" on="1"/>
        <pt x="194" y="320" on="1"/>
        <pt x="84" y="320" on="1"/>
      </contour>
      <contour>
        <pt x="194" y="200" on="1"/>
        <pt x="194" y="-250" on="1"/>
        <pt x="84" y="-250" on="1"/>
        <pt x="84" y="200" on="1"/>
      </contour>
    </TTGlyph>
    <TTGlyph name="bullet" xMin="40" yMin="116" xMax="320" yMax="408">
      <contour>
        <pt x="180" y="116" on="1"/>
        <pt x="150" y="116" on="0"/>
        <pt x="99" y="139" on="0"/>
        <pt x="61" y="178" on="0"/>
        <pt x="40" y="231" on="0"/>
        <pt x="40" y="262" on="1"/>
        <pt x="40" y="293" on="0"/>
        <pt x="61" y="346" on="0"/>
        <pt x="99" y="385" on="0"/>
        <pt x="150" y="408" on="0"/>
        <pt x="180" y="408" on="1"/>
        <pt x="210" y="408" on="0"/>
        <pt x="261" y="385" on="0"/>
        <pt x="299" y="346" on="0"/>
        <pt x="320" y="293" on="0"/>
        <pt x="320" y="262" on="1"/>
        <pt x="320" y="231" on="0"/>
        <pt x="299" y="178" on="0"/>
        <pt x="261" y="139" on="0"/>
        <pt x="210" y="116" on="0"/>
      </contour>
    </TTGlyph>
    <TTGlyph name="c" xMin="32" yMin="-12" xMax="452" yMax="512">
      <contour>
        <pt x="32" y="250" on="1"/>
        <pt x="32" y="312" on="0"/>
        <pt x="76" y="410" on="0"/>
        <pt x="150" y="477" on="0"/>
        <pt x="247" y="512" on="0"/>
        <pt x="300" y="512" on="1"/>
        <pt x="345" y="512" on="0"/>
        <pt x="420" y="482" on="0"/>
        <pt x="446" y="456" on="1"/>
        <pt x="368" y="350" on="1"/>
        <pt x="351" y="364" on="0"/>
        <pt x="324" y="374" on="0"/>
        <pt x="310" y="374" on="1"/>
        <pt x="262" y="374" on="0"/>
        <pt x="208" y="307" on="0"/>
        <pt x="208" y="250" on="1"/>
        <pt x="208" y="193" on="0"/>
        <pt x="263" y="126" on="0"/>
        <pt x="304" y="126" on="1"/>
        <pt x="328" y="126" on="0"/>
        <pt x="367" y="146" on="0"/>
        <pt x="384" y="158" on="1"/>
        <pt x="452" y="50" on="1"/>
        <pt x="414" y="17" on="0"/>
        <pt x="323" y="-12" on="0"/>
        <pt x="284" y="-12" on="1"/>
        <pt x="231" y="-12" on="0"/>
        <pt x="139" y="23" on="0"/>
        <pt x="71" y="90" on="0"/>
        <pt x="32" y="188" on="0"/>
      </contour>
    </TTGlyph>
    <TTGlyph name="c.sups" xMin="22" yMin="252" xMax="304" yMax="600">
      <contour>
        <pt x="188" y="252" on="1"/>
        <pt x="152" y="252" on="0"/>
        <pt x="91" y="275" on="0"/>
        <pt x="47" y="320" on="0"/>
        <pt x="22" y="385" on="0"/>
        <pt x="22" y="426" on="1"/>
        <pt x="22" y="466" on="0"/>
        <pt x="50" y="531" on="0"/>
        <pt x="97" y="576" on="0"/>
        <pt x="159" y="600" on="0"/>
        <pt x="194" y="600" on="1"/>
        <pt x="233" y="600" on="0"/>
        <pt x="288" y="578" on="0"/>
        <pt x="300" y="566" on="1"/>
        <pt x="246" y="490" on="1"/>
        <pt x="227" y="506" on="0"/>
        <pt x="206" y="506" on="1"/>
        <pt x="179" y="506" on="0"/>
        <pt x="144" y="462" on="0"/>
        <pt x="144" y="426" on="1"/>
        <pt x="144" y="390" on="0"/>
        <pt x="177" y="346" on="0"/>
        <pt x="204" y="346" on="1"/>
        <pt x="224" y="346" on="0"/>
        <pt x="247" y="358" on="0"/>
        <pt x="256" y="366" on="1"/>
        <pt x="304" y="290" on="1"/>
        <pt x="287" y="276" on="0"/>
        <pt x="229" y="252" on="0"/>
      </contour>
    </TTGlyph>
    <TTGlyph name="cacute" xMin="32" yMin="-12" xMax="459" yMax="728">
      <component glyphName="c" x="0" y="0" flags="0x204"/>
      <component glyphName="uni0301" x="295" y="0" flags="0x4"/>
    </TTGlyph>
    <TTGlyph name="caron" xMin="116" yMin="574" xMax="444" yMax="728">
      <component glyphName="uni030C" x="280" y="0" flags="0x4"/>
    </TTGlyph>
    <TTGlyph name="ccaron" xMin="32" yMin="-12" xMax="459" yMax="728">
      <component glyphName="c" x="0" y="0" flags="0x204"/>
      <component glyphName="uni030C" x="295" y="0" flags="0x4"/>
    </TTGlyph>
    <TTGlyph name="ccedilla" xMin="32" yMin="-224" xMax="452" yMax="512">
      <component glyphName="c" x="0" y="0" flags="0x204"/>
      <component glyphName="uni0327" x="287" y="0" flags="0x4"/>
    </TTGlyph>
    <TTGlyph name="ccircumflex" xMin="32" yMin="-12" xMax="459" yMax="728">
      <component glyphName="c" x="0" y="0" flags="0x204"/>
      <component glyphName="uni0302" x="295" y="0" flags="0x4"/>
    </TTGlyph>
    <TTGlyph name="cdotaccent" xMin="32" yMin="-12" xMax="452" yMax="734">
      <component glyphName="c" x="0" y="0" flags="0x204"/>
      <component glyphName="uni0307" x="295" y="0" flags="0x4"/>
    </TTGlyph>
    <TTGlyph name="cedilla" xMin="170" yMin="-224" xMax="372" yMax="4">
      <component glyphName="uni0327" x="280" y="0" flags="0x4"/>
    </TTGlyph>
    <TTGlyph name="cent" xMin="60" yMin="-44" xMax="500" yMax="656">
      <contour>
        <pt x="280" y="413" on="1"/>
        <pt x="252" y="398" on="0"/>
        <pt x="226" y="343" on="0"/>
        <pt x="226" y="306" on="1"/>
        <pt x="226" y="230" on="0"/>
        <pt x="280" y="199" on="1"/>
      </contour>
      <contour>
        <pt x="500" y="106" on="1"/>
        <pt x="471" y="81" on="0"/>
        <pt x="404" y="52" on="0"/>
        <pt x="372" y="47" on="1"/>
        <pt x="372" y="-44" on="1"/>
        <pt x="280" y="-44" on="1"/>
        <pt x="280" y="47" on="1"/>
        <pt x="179" y="61" on="0"/>
        <pt x="60" y="194" on="0"/>
        <pt x="60" y="306" on="1"/>
        <pt x="60" y="359" on="0"/>
        <pt x="93" y="446" on="0"/>
        <pt x="151" y="511" on="0"/>
        <pt x="232" y="553" on="0"/>
        <pt x="280" y="562" on="1"/>
        <pt x="280" y="656" on="1"/>
        <pt x="372" y="656" on="1"/>
        <pt x="372" y="567" on="1"/>
        <pt x="410" y="563" on="0"/>
        <pt x="472" y="534" on="0"/>
        <pt x="494" y="512" on="1"/>
        <pt x="416" y="406" on="1"/>
        <pt x="393" y="424" on="0"/>
        <pt x="372" y="429" on="1"/>
        <pt x="372" y="184" on="1"/>
        <pt x="389" y="188" on="0"/>
        <pt x="419" y="204" on="0"/>
        <pt x="432" y="214" on="1"/>
      </contour>
    </TTGlyph>
    <TTGlyph name="circumflex" xMin="116" yMin="574" xMax="444" yMax="728">
      <component glyphName="uni0302" x="280" y="0" flags="0x4"/>
    </TTGlyph>
    <TTGlyph name="colon" xMin="60" yMin="-12" xMax="260" yMax="506">
      <component glyphName="period" x="0" y="310" flags="0x204"/>
      <component glyphName="period" x="0" y="0" flags="0x4"/>
    </TTGlyph>
    <TTGlyph name="colon.sups" xMin="40" yMin="432" xMax="180" yMax="774">
      <contour>
        <pt x="40" y="502" on="1"/>
        <pt x="40" y="532" on="0"/>
        <pt x="80" y="574" on="0"/>
        <pt x="110" y="574" on="1"/>
        <pt x="140" y="574" on="0"/>
        <pt x="180" y="532" on="0"/>
        <pt x="180" y="502" on="1"/>
        <pt x="180" y="472" on="0"/>
        <pt x="140" y="432" on="0"/>
        <pt x="110" y="432" on="1"/>
        <pt x="80" y="432" on="0"/>
        <pt x="40" y="472" on="0"/>
      </contour>
      <contour>
        <pt x="40" y="702" on="1"/>
        <pt x="40" y="732" on="0"/>
        <pt x="80" y="774" on="0"/>
        <pt x="110" y="774" on="1"/>
        <pt x="140" y="774" on="0"/>
        <pt x="180" y="732" on="0"/>
        <pt x="180" y="702" on="1"/>
        <pt x="180" y="672" on="0"/>
        <pt x="140" y="632" on="0"/>
        <pt x="110" y="632" on="1"/>
        <pt x="80" y="632" on="0"/>
        <pt x="40" y="672" on="0"/>
      </contour>
    </TTGlyph>
    <TTGlyph name="colonmonetary" xMin="52" yMin="-110" xMax="532" yMax="744">
      <contour>
        <pt x="286" y="138" on="1"/>
        <pt x="299" y="128" on="0"/>
        <pt x="318" y="123" on="1"/>
        <pt x="364" y="513" on="1"/>
        <pt x="359" y="514" on="0"/>
        <pt x="348" y="514" on="1"/>
        <pt x="343" y="514" on="0"/>
        <pt x="335" y="514" on="0"/>
        <pt x="330" y="513" on="1"/>
      </contour>
      <contour>
        <pt x="273" y="485" on="1"/>
        <pt x="224" y="436" on="0"/>
        <pt x="224" y="318" on="1"/>
        <pt x="224" y="249" on="0"/>
        <pt x="240" y="205" on="1"/>
      </contour>
      <contour>
        <pt x="372" y="124" on="1"/>
        <pt x="391" y="129" on="0"/>
        <pt x="422" y="151" on="0"/>
        <pt x="436" y="168" on="1"/>
        <pt x="530" y="80" on="1"/>
        <pt x="494" y="39" on="0"/>
        <pt x="407" y="-7" on="0"/>
        <pt x="356" y="-11" on="1"/>
        <pt x="344" y="-110" on="1"/>
        <pt x="290" y="-110" on="1"/>
        <pt x="302" y="-10" on="1"/>
        <pt x="294" y="-9" on="0"/>
        <pt x="276" y="-7" on="0"/>
        <pt x="268" y="-5" on="1"/>
        <pt x="256" y="-110" on="1"/>
        <pt x="202" y="-110" on="1"/>
        <pt x="216" y="11" on="1"/>
        <pt x="142" y="43" on="0"/>
        <pt x="52" y="193" on="0"/>
        <pt x="52" y="312" on="1"/>
        <pt x="52" y="382" on="0"/>
        <pt x="87" y="495" on="0"/>
        <pt x="150" y="578" on="0"/>
        <pt x="238" y="631" on="0"/>
        <pt x="292" y="641" on="1"/>
        <pt x="304" y="744" on="1"/>
        <pt x="358" y="744" on="1"/>
        <pt x="346" y="646" on="1"/>
        <pt x="354" y="646" on="1"/>
        <pt x="361" y="646" on="0"/>
        <pt x="373" y="645" on="0"/>
        <pt x="380" y="644" on="1"/>
        <pt x="392" y="744" on="1"/>
        <pt x="446" y="744" on="1"/>
        <pt x="433" y="631" on="1"/>
        <pt x="460" y="620" on="0"/>
        <pt x="510" y="584" on="0"/>
        <pt x="532" y="558" on="1"/>
        <pt x="438" y="466" on="1"/>
        <pt x="428" y="477" on="0"/>
        <pt x="415" y="487" on="1"/>
      </contour>
    </TTGlyph>
    <TTGlyph name="comma" xMin="46" yMin="-204" xMax="278" yMax="196">
      <contour>
        <pt x="46" y="-114" on="1"/>
        <pt x="106" y="-94" on="0"/>
        <pt x="167" y="-29" on="0"/>
        <pt x="167" y="8" on="1"/>
        <pt x="160" y="8" on="1"/>
        <pt x="121" y="8" on="0"/>
        <pt x="60" y="57" on="0"/>
        <pt x="60" y="102" on="1"/>
        <pt x="60" y="144" on="0"/>
        <pt x="120" y="196" on="0"/>
        <pt x="164" y="196" on="1"/>
        <pt x="220" y="196" on="0"/>
        <pt x="278" y="114" on="0"/>
        <pt x="278" y="40" on="1"/>
        <pt x="278" y="-49" on="0"/>
        <pt x="178" y="-177" on="0"/>
        <pt x="80" y="-204" on="1"/>
      </contour>
    </TTGlyph>
    <TTGlyph name="comma.dnom" xMin="30" yMin="-136" xMax="190" yMax="134">
      <contour>
        <pt x="30" y="-74" on="1"/>
        <pt x="71" y="-61" on="0"/>
        <pt x="112" y="-27" on="0"/>
        <pt x="112" y="2" on="1"/>
        <pt x="109" y="2" on="1"/>
        <pt x="82" y="2" on="0"/>
        <pt x="40" y="36" on="0"/>
        <pt x="40" y="68" on="1"/>
        <pt x="40" y="97" on="0"/>
        <pt x="82" y="134" on="0"/>
        <pt x="112" y="134" on="1"/>
        <pt x="150" y="134" on="0"/>
        <pt x="190" y="79" on="0"/>
        <pt x="190" y="28" on="1"/>
        <pt x="190" y="-34" on="0"/>
        <pt x="120" y="-118" on="0"/>
        <pt x="54" y="-136" on="1"/>
      </contour>
    </TTGlyph>
    <TTGlyph name="comma.numr" xMin="30" yMin="124" xMax="190" yMax="394">
      <component glyphName="comma.dnom" x="0" y="260" flags="0x204"/>
    </TTGlyph>
    <TTGlyph name="comma.subs" xMin="30" yMin="-407" xMax="190" yMax="-137">
      <component glyphName="comma.dnom" x="0" y="-271" flags="0x204"/>
    </TTGlyph>
    <TTGlyph name="comma.sups" xMin="30" yMin="304" xMax="190" yMax="574">
      <component glyphName="comma.dnom" x="0" y="440" flags="0x204"/>
    </TTGlyph>
    <TTGlyph name="copyright" xMin="44" yMin="-8" xMax="708" yMax="656">
      <contour>
        <pt x="44" y="326" on="1"/>
        <pt x="44" y="404" on="0"/>
        <pt x="98" y="527" on="0"/>
        <pt x="189" y="611" on="0"/>
        <pt x="309" y="656" on="0"/>
        <pt x="376" y="656" on="1"/>
        <pt x="443" y="656" on="0"/>
        <pt x="563" y="611" on="0"/>
        <pt x="654" y="526" on="0"/>
        <pt x="708" y="404" on="0"/>
        <pt x="708" y="326" on="1"/>
        <pt x="708" y="248" on="0"/>
        <pt x="654" y="124" on="0"/>
        <pt x="563" y="38" on="0"/>
        <pt x="443" y="-8" on="0"/>
        <pt x="376" y="-8" on="1"/>
        <pt x="309" y="-8" on="0"/>
        <pt x="189" y="38" on="0"/>
        <pt x="98" y="124" on="0"/>
        <pt x="44" y="248" on="0"/>
      </contour>
      <contour>
        <pt x="120" y="326" on="1"/>
        <pt x="120" y="266" on="0"/>
        <pt x="159" y="168" on="0"/>
        <pt x="228" y="98" on="0"/>
        <pt x="321" y="60" on="0"/>
        <pt x="376" y="60" on="1"/>
        <pt x="431" y="60" on="0"/>
        <pt x="524" y="98" on="0"/>
        <pt x="593" y="168" on="0"/>
        <pt x="632" y="266" on="0"/>
        <pt x="632" y="326" on="1"/>
        <pt x="632" y="386" on="0"/>
        <pt x="593" y="483" on="0"/>
        <pt x="524" y="551" on="0"/>
        <pt x="431" y="588" on="0"/>
        <pt x="376" y="588" on="1"/>
        <pt x="321" y="588" on="0"/>
        <pt x="228" y="551" on="0"/>
        <pt x="159" y="483" on="0"/>
        <pt x="120" y="386" on="0"/>
      </contour>
      <contour>
        <pt x="192" y="324" on="1"/>
        <pt x="192" y="368" on="0"/>
        <pt x="225" y="440" on="0"/>
        <pt x="279" y="491" on="0"/>
        <pt x="350" y="518" on="0"/>
        <pt x="388" y="518" on="1"/>
        <pt x="436" y="518" on="0"/>
        <pt x="500" y="482" on="0"/>
        <pt x="524" y="458" on="1"/>
        <pt x="461" y="388" on="1"/>
        <pt x="447" y="403" on="0"/>
        <pt x="418" y="420" on="0"/>
        <pt x="400" y="420" on="1"/>
        <pt x="355" y="420" on="0"/>
        <pt x="313" y="363" on="0"/>
        <pt x="313" y="324" on="1"/>
        <pt x="313" y="279" on="0"/>
        <pt x="356" y="226" on="0"/>
        <pt x="394" y="226" on="1"/>
        <pt x="417" y="226" on="0"/>
        <pt x="448" y="242" on="0"/>
        <pt x="466" y="256" on="1"/>
        <pt x="520" y="178" on="1"/>
        <pt x="491" y="155" on="0"/>
        <pt x="427" y="128" on="0"/>
        <pt x="390" y="128" on="1"/>
        <pt x="346" y="128" on="0"/>
        <pt x="274" y="155" on="0"/>
        <pt x="221" y="206" on="0"/>
        <pt x="192" y="279" on="0"/>
      </contour>
    </TTGlyph>
</ttFont>
